STARTFONT 2.1
COMMENT
COMMENT Converted from OpenType font "DejaVuSansCondensed.ttf" by "otf2bdf 3.0".
COMMENT
FONT -FreeType-DejaVu Sans Condensed-Medium-R-Normal--28-200-100-100-P-143-ISO10646-1
SIZE 20 100 100
FONTBOUNDINGBOX 68 41 -26 -11
STARTPROPERTIES 19
FOUNDRY "FreeType"
FAMILY_NAME "DejaVu Sans Condensed"
WEIGHT_NAME "Medium"
SLANT "R"
SETWIDTH_NAME "Normal"
ADD_STYLE_NAME ""
PIXEL_SIZE 28
POINT_SIZE 200
RESOLUTION_X 100
RESOLUTION_Y 100
SPACING "P"
AVERAGE_WIDTH 143
CHARSET_REGISTRY "ISO10646"
CHARSET_ENCODING "1"
FONT_ASCENT 25
FONT_DESCENT 6
COPYRIGHT "Copyright (c) 2003 by Bitstream, Inc. All Rights Reserved.  Copyright (c) 2006 by Tavmjong Bah. All Rights Reserved.  DejaVu changes are in public domain  "
_OTF_FONTFILE "DejaVuSansCondensed.ttf"
_OTF_PSNAME "DejaVuSansCondensed"
ENDPROPERTIES
CHARS 5370
STARTCHAR 0020
ENCODING 32
SWIDTH 288 0
DWIDTH 8 0
BBX 0 0 0 0
BITMAP
ENDCHAR
STARTCHAR 0021
ENCODING 33
SWIDTH 360 0
DWIDTH 10 0
BBX 2 20 4 0
BITMAP
C0
C0
C0
C0
C0
C0
C0
C0
C0
C0
C0
C0
C0
00
00
00
00
C0
C0
C0
ENDCHAR
STARTCHAR 0022
ENCODING 34
SWIDTH 432 0
DWIDTH 12 0
BBX 7 7 2 13
BITMAP
E6
E6
E6
E6
E6
E6
E6
ENDCHAR
STARTCHAR 0023
ENCODING 35
SWIDTH 756 0
DWIDTH 21 0
BBX 17 20 2 0
BITMAP
018C00
018C00
030C00
030C00
030C00
031800
7FFF80
7FFF80
061800
063000
063000
0C3000
FFFF00
FFFF00
0C6000
0C6000
186000
186000
18C000
18C000
ENDCHAR
STARTCHAR 0024
ENCODING 36
SWIDTH 576 0
DWIDTH 16 0
BBX 12 25 2 -4
BITMAP
0600
0600
0600
1FC0
7FE0
6660
E600
C600
C600
E600
7E00
3F80
0FE0
06E0
0670
0630
0630
0670
C6E0
FFC0
3F80
0600
0600
0600
0600
ENDCHAR
STARTCHAR 0025
ENCODING 37
SWIDTH 864 0
DWIDTH 24 0
BBX 22 21 1 0
BITMAP
1C00C0
3F0180
630300
618300
C18600
C18600
C18C00
618C00
631800
771800
3E30C0
0033F0
006318
006618
00C618
01860C
01860C
030618
030718
0603B8
0601F0
ENDCHAR
STARTCHAR 0026
ENCODING 38
SWIDTH 720 0
DWIDTH 20 0
BBX 16 21 2 0
BITMAP
0780
1FE0
3CE0
3020
3000
3000
3000
3800
1C00
3E00
7703
E783
C387
C1C6
C0E6
C07C
C03C
E01C
707E
7FEF
1FC7
ENDCHAR
STARTCHAR 0027
ENCODING 39
SWIDTH 252 0
DWIDTH 7 0
BBX 3 7 2 13
BITMAP
E0
E0
E0
E0
E0
E0
E0
ENDCHAR
STARTCHAR 0028
ENCODING 40
SWIDTH 360 0
DWIDTH 10 0
BBX 6 25 2 -4
BITMAP
18
18
38
30
30
60
60
60
E0
E0
E0
E0
E0
E0
E0
E0
60
60
60
70
30
30
18
18
0C
ENDCHAR
STARTCHAR 0029
ENCODING 41
SWIDTH 360 0
DWIDTH 10 0
BBX 6 25 2 -4
BITMAP
C0
60
60
30
30
38
18
18
18
18
1C
1C
1C
1C
1C
18
18
18
38
30
30
70
60
60
C0
ENDCHAR
STARTCHAR 002A
ENCODING 42
SWIDTH 468 0
DWIDTH 13 0
BBX 11 13 1 8
BITMAP
0400
0400
0400
C460
65C0
3F00
0E00
1F00
75C0
C4E0
8400
0400
0400
ENDCHAR
STARTCHAR 002B
ENCODING 43
SWIDTH 756 0
DWIDTH 21 0
BBX 15 18 3 0
BITMAP
0180
0180
0180
0180
0180
0180
0180
0180
FFFE
FFFE
0180
0180
0180
0180
0180
0180
0180
0180
ENDCHAR
STARTCHAR 002C
ENCODING 44
SWIDTH 288 0
DWIDTH 8 0
BBX 4 6 2 -3
BITMAP
70
70
60
60
C0
C0
ENDCHAR
STARTCHAR 002D
ENCODING 45
SWIDTH 324 0
DWIDTH 9 0
BBX 7 2 1 7
BITMAP
FE
FE
ENDCHAR
STARTCHAR 002E
ENCODING 46
SWIDTH 288 0
DWIDTH 8 0
BBX 2 3 3 0
BITMAP
C0
C0
C0
ENDCHAR
STARTCHAR 002F
ENCODING 47
SWIDTH 288 0
DWIDTH 8 0
BBX 8 23 0 -3
BITMAP
03
03
03
06
06
06
0E
0C
0C
0C
18
18
18
18
30
30
30
70
60
60
60
C0
C0
ENDCHAR
STARTCHAR 0030
ENCODING 48
SWIDTH 576 0
DWIDTH 16 0
BBX 12 21 2 0
BITMAP
0F00
3FC0
39C0
70E0
6060
E070
E030
C030
C030
C030
C030
C030
C030
C030
C030
E070
E070
6060
70E0
3FC0
1F80
ENDCHAR
STARTCHAR 0031
ENCODING 49
SWIDTH 576 0
DWIDTH 16 0
BBX 11 20 3 0
BITMAP
FE00
FE00
CE00
0E00
0E00
0E00
0E00
0E00
0E00
0E00
0E00
0E00
0E00
0E00
0E00
0E00
0E00
0E00
FFE0
FFE0
ENDCHAR
STARTCHAR 0032
ENCODING 50
SWIDTH 576 0
DWIDTH 16 0
BBX 12 21 2 0
BITMAP
1E00
FF80
FFC0
C0E0
0060
0060
0060
0060
00E0
00C0
01C0
0380
0700
0E00
0C00
1C00
3800
7000
E000
FFF0
FFF0
ENDCHAR
STARTCHAR 0033
ENCODING 51
SWIDTH 576 0
DWIDTH 16 0
BBX 12 21 2 0
BITMAP
1E00
FFC0
FFE0
80E0
0070
0070
0070
0060
00E0
1F80
1FC0
01E0
0060
0070
0070
0030
0070
0070
C0E0
FFC0
FF80
ENDCHAR
STARTCHAR 0034
ENCODING 52
SWIDTH 576 0
DWIDTH 16 0
BBX 14 20 1 0
BITMAP
01E0
01E0
0360
0360
0660
0E60
0C60
1860
1860
3060
7060
6060
C060
FFFC
FFFC
0060
0060
0060
0060
0060
ENDCHAR
STARTCHAR 0035
ENCODING 53
SWIDTH 576 0
DWIDTH 16 0
BBX 12 20 2 0
BITMAP
7FC0
7FC0
6000
6000
6000
6000
6000
7F80
7FC0
41E0
00E0
0070
0070
0070
0070
0070
00E0
C1E0
FFC0
FF80
ENDCHAR
STARTCHAR 0036
ENCODING 54
SWIDTH 576 0
DWIDTH 16 0
BBX 12 21 2 0
BITMAP
07C0
1FE0
3FE0
3800
7000
6000
E000
E000
CFC0
DFE0
F070
E070
E030
E030
E030
E030
E030
6070
70E0
3FE0
1FC0
ENDCHAR
STARTCHAR 0037
ENCODING 55
SWIDTH 576 0
DWIDTH 16 0
BBX 12 20 2 0
BITMAP
FFF0
FFF0
0060
00E0
00E0
00C0
01C0
01C0
0180
0380
0380
0300
0700
0600
0600
0E00
0C00
1C00
1C00
1800
ENDCHAR
STARTCHAR 0038
ENCODING 56
SWIDTH 576 0
DWIDTH 16 0
BBX 12 21 2 0
BITMAP
0F00
3FC0
79E0
E070
E070
E070
E070
E070
70E0
3FC0
1FC0
79E0
E070
E030
C030
C030
C030
E070
F0F0
7FE0
3FC0
ENDCHAR
STARTCHAR 0039
ENCODING 57
SWIDTH 576 0
DWIDTH 16 0
BBX 12 21 2 0
BITMAP
0F00
3F80
7BC0
E0E0
E060
C070
C070
C070
C070
C070
E0F0
71F0
7FB0
1F30
0070
0070
0060
00E0
41C0
7F80
7F00
ENDCHAR
STARTCHAR 003A
ENCODING 58
SWIDTH 288 0
DWIDTH 8 0
BBX 3 14 3 0
BITMAP
E0
E0
E0
00
00
00
00
00
00
00
00
E0
E0
E0
ENDCHAR
STARTCHAR 003B
ENCODING 59
SWIDTH 288 0
DWIDTH 8 0
BBX 4 17 2 -3
BITMAP
70
70
70
00
00
00
00
00
00
00
00
70
70
60
60
C0
C0
ENDCHAR
STARTCHAR 003C
ENCODING 60
SWIDTH 756 0
DWIDTH 21 0
BBX 15 14 3 1
BITMAP
0002
001E
007E
03F0
0FC0
7E00
F800
E000
FC00
3F80
07E0
01FC
003E
000E
ENDCHAR
STARTCHAR 003D
ENCODING 61
SWIDTH 756 0
DWIDTH 21 0
BBX 15 8 3 5
BITMAP
FFFE
FFFE
FFFE
0000
0000
0000
FFFE
FFFE
ENDCHAR
STARTCHAR 003E
ENCODING 62
SWIDTH 756 0
DWIDTH 21 0
BBX 15 14 3 1
BITMAP
C000
F000
FE00
1F80
07E0
00FC
003E
000E
007E
01F8
0FC0
7F00
F800
E000
ENDCHAR
STARTCHAR 003F
ENCODING 63
SWIDTH 468 0
DWIDTH 13 0
BBX 10 21 2 0
BITMAP
1C00
FF00
FF80
8180
01C0
01C0
0180
0380
0700
0E00
0C00
1C00
1800
1800
1800
1800
0000
0000
1800
1800
1800
ENDCHAR
STARTCHAR 0040
ENCODING 64
SWIDTH 900 0
DWIDTH 25 0
BBX 21 25 2 -5
BITMAP
007800
03FF00
0F8780
1C01C0
380060
300030
600030
61FB18
C1FF18
C30708
C30308
860308
860308
860318
C30318
C30730
C38F70
41FBE0
607300
700000
380000
1C0180
0F0780
03FF00
00F800
ENDCHAR
STARTCHAR 0041
ENCODING 65
SWIDTH 612 0
DWIDTH 17 0
BBX 17 20 0 0
BITMAP
01C000
01E000
03E000
036000
037000
073000
063000
0E3800
0E1800
0C1800
1C1C00
1C0C00
1FFC00
3FFE00
3FFE00
300600
700700
700300
600380
E00380
ENDCHAR
STARTCHAR 0042
ENCODING 66
SWIDTH 612 0
DWIDTH 17 0
BBX 14 20 2 0
BITMAP
FFE0
FFF0
E070
E038
E038
E038
E030
E070
FFE0
FFE0
E070
E038
E018
E018
E01C
E018
E038
E078
FFF0
FFC0
ENDCHAR
STARTCHAR 0043
ENCODING 67
SWIDTH 648 0
DWIDTH 18 0
BBX 15 21 1 0
BITMAP
01E0
07FC
1FBE
3C06
3802
7000
7000
6000
6000
E000
E000
E000
E000
6000
6000
7000
7000
3802
1E0E
0FFE
07F8
ENDCHAR
STARTCHAR 0044
ENCODING 68
SWIDTH 684 0
DWIDTH 19 0
BBX 16 20 2 0
BITMAP
FFE0
FFF8
E03C
E01E
E00E
E006
E007
E007
E007
E007
E007
E007
E007
E007
E00E
E00E
E01C
E0F8
FFF0
FFC0
ENDCHAR
STARTCHAR 0045
ENCODING 69
SWIDTH 576 0
DWIDTH 16 0
BBX 12 20 2 0
BITMAP
FFF0
FFF0
E000
E000
E000
E000
E000
E000
FFF0
FFF0
E000
E000
E000
E000
E000
E000
E000
E000
FFF0
FFF0
ENDCHAR
STARTCHAR 0046
ENCODING 70
SWIDTH 540 0
DWIDTH 15 0
BBX 11 20 2 0
BITMAP
FFE0
FFE0
E000
E000
E000
E000
E000
E000
FFC0
FFC0
E000
E000
E000
E000
E000
E000
E000
E000
E000
E000
ENDCHAR
STARTCHAR 0047
ENCODING 71
SWIDTH 720 0
DWIDTH 20 0
BBX 16 21 1 0
BITMAP
01F0
07FE
1FFF
3C03
3801
7000
7000
6000
6000
E000
E03F
E03F
E03F
6003
6003
7003
7003
3803
1E07
0FFF
07FC
ENDCHAR
STARTCHAR 0048
ENCODING 72
SWIDTH 684 0
DWIDTH 19 0
BBX 14 20 2 0
BITMAP
E00C
E00C
E00C
E00C
E00C
E00C
E00C
E00C
FFFC
FFFC
E00C
E00C
E00C
E00C
E00C
E00C
E00C
E00C
E00C
E00C
ENDCHAR
STARTCHAR 0049
ENCODING 73
SWIDTH 252 0
DWIDTH 7 0
BBX 3 20 2 0
BITMAP
E0
E0
E0
E0
E0
E0
E0
E0
E0
E0
E0
E0
E0
E0
E0
E0
E0
E0
E0
E0
ENDCHAR
STARTCHAR 004A
ENCODING 74
SWIDTH 252 0
DWIDTH 7 0
BBX 6 26 -1 -6
BITMAP
1C
1C
1C
1C
1C
1C
1C
1C
1C
1C
1C
1C
1C
1C
1C
1C
1C
1C
1C
1C
1C
1C
18
F8
F0
80
ENDCHAR
STARTCHAR 004B
ENCODING 75
SWIDTH 612 0
DWIDTH 17 0
BBX 15 20 2 0
BITMAP
E03C
E078
E0F0
E1E0
E1C0
E380
E700
EE00
FC00
FC00
FE00
EE00
E700
E380
E1C0
E0E0
E070
E038
E03C
E01E
ENDCHAR
STARTCHAR 004C
ENCODING 76
SWIDTH 504 0
DWIDTH 14 0
BBX 12 20 2 0
BITMAP
E000
E000
E000
E000
E000
E000
E000
E000
E000
E000
E000
E000
E000
E000
E000
E000
E000
E000
FFF0
FFF0
ENDCHAR
STARTCHAR 004D
ENCODING 77
SWIDTH 792 0
DWIDTH 22 0
BBX 17 20 2 0
BITMAP
F80780
F80780
F80780
FC0D80
EC0D80
EC0D80
EE1980
E61980
E61980
E73180
E33180
E33180
E3E180
E1E180
E1E180
E1C180
E00180
E00180
E00180
E00180
ENDCHAR
STARTCHAR 004E
ENCODING 78
SWIDTH 684 0
DWIDTH 19 0
BBX 14 20 2 0
BITMAP
F00C
F80C
F80C
FC0C
EC0C
EE0C
E60C
E70C
E30C
E38C
E38C
E1CC
E1CC
E0CC
E0EC
E06C
E07C
E03C
E03C
E01C
ENDCHAR
STARTCHAR 004F
ENCODING 79
SWIDTH 720 0
DWIDTH 20 0
BBX 17 21 1 0
BITMAP
01E000
0FF800
1FFE00
3C0E00
380700
700300
700380
600380
600180
E00180
E00180
E00180
E00180
600180
600380
700380
700700
380700
1C0E00
0FFC00
07F800
ENDCHAR
STARTCHAR 0050
ENCODING 80
SWIDTH 540 0
DWIDTH 15 0
BBX 12 20 2 0
BITMAP
FFC0
FFE0
E0F0
E070
E030
E030
E030
E070
E070
E3E0
FFC0
FF00
E000
E000
E000
E000
E000
E000
E000
E000
ENDCHAR
STARTCHAR 0051
ENCODING 81
SWIDTH 720 0
DWIDTH 20 0
BBX 17 25 1 -4
BITMAP
01E000
0FF800
1FFE00
3C0E00
380700
700300
700380
600380
600180
E00180
E00180
E00180
E00180
600180
600380
700380
700700
380700
1C0E00
0FFC00
07F800
003800
001C00
000E00
000700
ENDCHAR
STARTCHAR 0052
ENCODING 82
SWIDTH 648 0
DWIDTH 18 0
BBX 15 20 2 0
BITMAP
FFC0
FFE0
E0F0
E070
E030
E030
E030
E070
E0F0
FFE0
FF80
E1E0
E0E0
E070
E030
E038
E018
E01C
E01C
E00E
ENDCHAR
STARTCHAR 0053
ENCODING 83
SWIDTH 576 0
DWIDTH 16 0
BBX 13 21 2 0
BITMAP
0F80
3FE0
7DE0
E000
C000
C000
C000
E000
F000
7F00
3FC0
0FE0
00F0
0070
0038
0038
0038
0070
C0F0
FFE0
7FC0
ENDCHAR
STARTCHAR 0054
ENCODING 84
SWIDTH 540 0
DWIDTH 15 0
BBX 15 20 0 0
BITMAP
FFFE
FFFE
0380
0380
0380
0380
0380
0380
0380
0380
0380
0380
0380
0380
0380
0380
0380
0380
0380
0380
ENDCHAR
STARTCHAR 0055
ENCODING 85
SWIDTH 648 0
DWIDTH 18 0
BBX 14 20 2 0
BITMAP
E00C
E00C
E00C
E00C
E00C
E00C
E00C
E00C
E00C
E00C
E00C
E00C
E00C
E00C
E00C
601C
701C
7838
3FF0
1FE0
ENDCHAR
STARTCHAR 0056
ENCODING 86
SWIDTH 612 0
DWIDTH 17 0
BBX 17 20 0 0
BITMAP
E00380
600300
700700
300700
300600
380E00
180E00
180C00
1C1C00
0C1C00
0C1800
0E3800
063800
073000
077000
037000
03E000
03E000
01E000
01C000
ENDCHAR
STARTCHAR 0057
ENCODING 87
SWIDTH 900 0
DWIDTH 25 0
BBX 23 20 1 0
BITMAP
E0380E
E0380E
E0680C
606C0C
606C1C
706C1C
706C1C
30C618
30C618
38C638
38C638
198330
198330
198370
1D8370
1F8370
0F01E0
0F01E0
0F01E0
0F01E0
ENDCHAR
STARTCHAR 0058
ENCODING 88
SWIDTH 612 0
DWIDTH 17 0
BBX 15 20 1 0
BITMAP
700E
301C
3818
1C38
0C70
0E70
06E0
07C0
03C0
0380
07C0
07C0
0EE0
0C70
1C30
3838
3818
701C
600E
E006
ENDCHAR
STARTCHAR 0059
ENCODING 89
SWIDTH 540 0
DWIDTH 15 0
BBX 15 20 0 0
BITMAP
E00E
700C
301C
3838
1C30
0C70
0E60
06E0
07C0
0380
0380
0380
0380
0380
0380
0380
0380
0380
0380
0380
ENDCHAR
STARTCHAR 005A
ENCODING 90
SWIDTH 612 0
DWIDTH 17 0
BBX 15 20 1 0
BITMAP
FFFE
FFFE
001C
001C
0038
0070
00E0
00E0
01C0
0380
0700
0700
0E00
1C00
1C00
3800
7000
E000
FFFE
FFFE
ENDCHAR
STARTCHAR 005B
ENCODING 91
SWIDTH 360 0
DWIDTH 10 0
BBX 5 25 2 -4
BITMAP
F8
F8
C0
C0
C0
C0
C0
C0
C0
C0
C0
C0
C0
C0
C0
C0
C0
C0
C0
C0
C0
C0
C0
F8
F8
ENDCHAR
STARTCHAR 005C
ENCODING 92
SWIDTH 288 0
DWIDTH 8 0
BBX 8 23 0 -3
BITMAP
C0
60
60
60
60
30
30
30
38
18
18
18
0C
0C
0C
0E
06
06
06
03
03
03
03
ENDCHAR
STARTCHAR 005D
ENCODING 93
SWIDTH 360 0
DWIDTH 10 0
BBX 6 25 2 -4
BITMAP
FC
FC
1C
1C
1C
1C
1C
1C
1C
1C
1C
1C
1C
1C
1C
1C
1C
1C
1C
1C
1C
1C
1C
FC
FC
ENDCHAR
STARTCHAR 005E
ENCODING 94
SWIDTH 756 0
DWIDTH 21 0
BBX 15 7 3 13
BITMAP
03C0
07C0
0EE0
1C70
3838
701C
E00E
ENDCHAR
STARTCHAR 005F
ENCODING 95
SWIDTH 468 0
DWIDTH 13 0
BBX 13 2 0 -7
BITMAP
FFF8
FFF8
ENDCHAR
STARTCHAR 0060
ENCODING 96
SWIDTH 468 0
DWIDTH 13 0
BBX 5 5 3 17
BITMAP
C0
60
60
30
18
ENDCHAR
STARTCHAR 0061
ENCODING 97
SWIDTH 540 0
DWIDTH 15 0
BBX 11 16 2 0
BITMAP
0C00
7F80
7FC0
00E0
0060
0060
0FE0
7FE0
F060
C060
C060
C0E0
C0E0
E1E0
FF60
7E60
ENDCHAR
STARTCHAR 0062
ENCODING 98
SWIDTH 576 0
DWIDTH 16 0
BBX 13 21 2 0
BITMAP
E000
E000
E000
E000
E000
E700
EFC0
FDE0
F070
E030
E030
E030
E038
E038
E038
E030
E030
E070
F060
FFE0
EFC0
ENDCHAR
STARTCHAR 0063
ENCODING 99
SWIDTH 504 0
DWIDTH 14 0
BBX 11 16 1 0
BITMAP
0380
1FE0
3EE0
7000
7000
6000
E000
E000
E000
E000
6000
6000
7000
3800
3FE0
0FE0
ENDCHAR
STARTCHAR 0064
ENCODING 100
SWIDTH 576 0
DWIDTH 16 0
BBX 13 21 1 0
BITMAP
0038
0038
0038
0038
0038
0738
1FB8
3DF8
7078
6038
6038
E038
E038
E038
E038
6038
6038
7038
3078
3FF8
1FB8
ENDCHAR
STARTCHAR 0065
ENCODING 101
SWIDTH 576 0
DWIDTH 16 0
BBX 13 16 1 0
BITMAP
0380
1FE0
3FF0
3030
7038
6018
6018
FFF8
FFF8
E000
6000
6000
7000
3818
1FF8
0FF0
ENDCHAR
STARTCHAR 0066
ENCODING 102
SWIDTH 324 0
DWIDTH 9 0
BBX 8 21 1 0
BITMAP
1F
3F
30
30
30
30
FF
FF
30
30
30
30
30
30
30
30
30
30
30
30
30
ENDCHAR
STARTCHAR 0067
ENCODING 103
SWIDTH 576 0
DWIDTH 16 0
BBX 13 22 1 -6
BITMAP
0700
1FB8
3DF8
7078
6038
6038
E038
E038
E038
E038
6038
6038
7078
38F8
3FF8
0F38
0038
0030
0070
30E0
3FE0
0F00
ENDCHAR
STARTCHAR 0068
ENCODING 104
SWIDTH 576 0
DWIDTH 16 0
BBX 12 21 2 0
BITMAP
E000
E000
E000
E000
E000
E300
EFC0
FFE0
F060
E070
E070
E030
E030
E030
E030
E030
E030
E030
E030
E030
E030
ENDCHAR
STARTCHAR 0069
ENCODING 105
SWIDTH 252 0
DWIDTH 7 0
BBX 3 21 2 0
BITMAP
E0
E0
E0
00
00
00
E0
E0
E0
E0
E0
E0
E0
E0
E0
E0
E0
E0
E0
E0
E0
ENDCHAR
STARTCHAR 006A
ENCODING 106
SWIDTH 252 0
DWIDTH 7 0
BBX 5 27 0 -6
BITMAP
38
38
38
00
00
00
38
38
38
38
38
38
38
38
38
38
38
38
38
38
38
38
38
30
70
F0
C0
ENDCHAR
STARTCHAR 006B
ENCODING 107
SWIDTH 540 0
DWIDTH 15 0
BBX 12 21 2 0
BITMAP
E000
E000
E000
E000
E000
E000
E0F0
E1C0
E380
E700
EE00
FC00
F800
FC00
FC00
EE00
E700
E380
E1C0
E0E0
E070
ENDCHAR
STARTCHAR 006C
ENCODING 108
SWIDTH 252 0
DWIDTH 7 0
BBX 3 21 2 0
BITMAP
E0
E0
E0
E0
E0
E0
E0
E0
E0
E0
E0
E0
E0
E0
E0
E0
E0
E0
E0
E0
E0
ENDCHAR
STARTCHAR 006D
ENCODING 109
SWIDTH 900 0
DWIDTH 25 0
BBX 20 16 2 0
BITMAP
030180
EFC7E0
FFEFF0
F0F870
E07030
E07030
E07030
E06030
E06030
E06030
E06030
E06030
E06030
E06030
E06030
E06030
ENDCHAR
STARTCHAR 006E
ENCODING 110
SWIDTH 576 0
DWIDTH 16 0
BBX 12 16 2 0
BITMAP
0300
EFC0
FFE0
F060
E070
E070
E030
E030
E030
E030
E030
E030
E030
E030
E030
E030
ENDCHAR
STARTCHAR 006F
ENCODING 111
SWIDTH 540 0
DWIDTH 15 0
BBX 13 16 1 0
BITMAP
0700
1FC0
3FE0
7070
7030
6038
E038
E018
E018
E018
6038
6038
7030
3870
3FE0
1FC0
ENDCHAR
STARTCHAR 0070
ENCODING 112
SWIDTH 576 0
DWIDTH 16 0
BBX 13 22 2 -6
BITMAP
0700
EFC0
FDE0
F070
E030
E030
E030
E038
E038
E038
E030
E030
E070
F060
FFE0
EFC0
E000
E000
E000
E000
E000
E000
ENDCHAR
STARTCHAR 0071
ENCODING 113
SWIDTH 576 0
DWIDTH 16 0
BBX 13 22 1 -6
BITMAP
0700
1FB8
3DF8
7078
6038
6038
E038
E038
E038
E038
6038
6038
7038
3078
3FF8
1FB8
0038
0038
0038
0038
0038
0038
ENDCHAR
STARTCHAR 0072
ENCODING 114
SWIDTH 360 0
DWIDTH 10 0
BBX 8 16 2 0
BITMAP
03
EF
FF
F0
E0
E0
E0
E0
E0
E0
E0
E0
E0
E0
E0
E0
ENDCHAR
STARTCHAR 0073
ENCODING 115
SWIDTH 468 0
DWIDTH 13 0
BBX 11 16 1 0
BITMAP
0F00
3FC0
79C0
6000
E000
E000
7000
7E00
1F80
03C0
00E0
0060
0060
C0E0
FFC0
7F80
ENDCHAR
STARTCHAR 0074
ENCODING 116
SWIDTH 360 0
DWIDTH 10 0
BBX 8 20 1 0
BITMAP
70
70
70
70
70
FF
FF
70
70
70
70
70
70
70
70
70
70
30
3F
1F
ENDCHAR
STARTCHAR 0075
ENCODING 117
SWIDTH 576 0
DWIDTH 16 0
BBX 12 15 2 1
BITMAP
C070
C070
C070
C070
C070
C070
C070
C070
C070
C070
E070
E070
70F0
7FF0
3F70
ENDCHAR
STARTCHAR 0076
ENCODING 118
SWIDTH 540 0
DWIDTH 15 0
BBX 13 15 1 0
BITMAP
C038
E038
6030
6070
7070
3060
30E0
38E0
18C0
19C0
1DC0
0D80
0F80
0F80
0700
ENDCHAR
STARTCHAR 0077
ENCODING 119
SWIDTH 756 0
DWIDTH 21 0
BBX 18 15 1 0
BITMAP
E0E0C0
E0E0C0
61E0C0
61B1C0
61B180
71B180
333180
333380
331B00
3B1B00
1E1B00
1E1F00
1E0F00
1E0E00
0C0E00
ENDCHAR
STARTCHAR 0078
ENCODING 120
SWIDTH 540 0
DWIDTH 15 0
BBX 13 15 1 0
BITMAP
6030
7070
38E0
18C0
1DC0
0F80
0700
0700
0F80
1D80
19C0
38E0
7060
6070
E038
ENDCHAR
STARTCHAR 0079
ENCODING 121
SWIDTH 540 0
DWIDTH 15 0
BBX 13 21 1 -6
BITMAP
C038
E038
6030
7070
3060
3060
38E0
18C0
18C0
1DC0
0D80
0D80
0F80
0700
0700
0600
0600
0E00
1C00
7C00
7000
ENDCHAR
STARTCHAR 007A
ENCODING 122
SWIDTH 468 0
DWIDTH 13 0
BBX 11 15 1 0
BITMAP
FFE0
FFE0
00E0
01C0
0380
0300
0700
0E00
1C00
1800
3800
7000
E000
FFE0
FFE0
ENDCHAR
STARTCHAR 007B
ENCODING 123
SWIDTH 576 0
DWIDTH 16 0
BBX 10 26 3 -5
BITMAP
07C0
0FC0
0E00
0C00
0C00
0C00
0C00
0C00
0C00
0C00
0C00
3C00
F000
F800
1C00
0C00
0C00
0C00
0C00
0C00
0C00
0C00
0E00
0F00
07C0
00C0
ENDCHAR
STARTCHAR 007C
ENCODING 124
SWIDTH 288 0
DWIDTH 8 0
BBX 2 28 3 -7
BITMAP
C0
C0
C0
C0
C0
C0
C0
C0
C0
C0
C0
C0
C0
C0
C0
C0
C0
C0
C0
C0
C0
C0
C0
C0
C0
C0
C0
C0
ENDCHAR
STARTCHAR 007D
ENCODING 125
SWIDTH 576 0
DWIDTH 16 0
BBX 10 26 3 -5
BITMAP
F800
FC00
1C00
0C00
0C00
0C00
0C00
0C00
0C00
0C00
0C00
0F00
03C0
07C0
0E00
0C00
0C00
0C00
0C00
0C00
0C00
0C00
0C00
3C00
F800
C000
ENDCHAR
STARTCHAR 007E
ENCODING 126
SWIDTH 756 0
DWIDTH 21 0
BBX 15 4 3 6
BITMAP
1C02
7F86
E7FE
80FC
ENDCHAR
STARTCHAR 00A0
ENCODING 160
SWIDTH 288 0
DWIDTH 8 0
BBX 0 0 0 0
BITMAP
ENDCHAR
STARTCHAR 00A1
ENCODING 161
SWIDTH 360 0
DWIDTH 10 0
BBX 2 20 4 -5
BITMAP
C0
C0
C0
00
00
00
C0
C0
C0
C0
C0
C0
C0
C0
C0
C0
C0
C0
C0
C0
ENDCHAR
STARTCHAR 00A2
ENCODING 162
SWIDTH 576 0
DWIDTH 16 0
BBX 11 24 2 -4
BITMAP
0300
0300
0300
0300
0380
1FE0
3FE0
7300
6300
E300
E300
E300
E300
E300
E300
6300
7300
7B20
3FE0
0FE0
0300
0300
0300
0300
ENDCHAR
STARTCHAR 00A3
ENCODING 163
SWIDTH 576 0
DWIDTH 16 0
BBX 12 21 2 0
BITMAP
03C0
0FF0
1F70
1C00
1800
1800
3800
3800
3800
3800
FFC0
FFC0
3800
3800
3800
3800
3800
3800
3800
FFF0
FFF0
ENDCHAR
STARTCHAR 00A4
ENCODING 164
SWIDTH 576 0
DWIDTH 16 0
BBX 14 15 1 1
BITMAP
4008
E31C
7FF8
3FF0
3870
3030
3030
3030
3030
3030
1C60
3FF0
77B8
E01C
4008
ENDCHAR
STARTCHAR 00A5
ENCODING 165
SWIDTH 576 0
DWIDTH 16 0
BBX 14 20 1 0
BITMAP
E01C
6018
7038
3030
3870
1860
1CE0
0CC0
7FF8
0780
0780
0300
7FF8
7FF8
0300
0300
0300
0300
0300
0300
ENDCHAR
STARTCHAR 00A6
ENCODING 166
SWIDTH 288 0
DWIDTH 8 0
BBX 2 25 3 -5
BITMAP
C0
C0
C0
C0
C0
C0
C0
C0
C0
C0
C0
00
00
00
C0
C0
C0
C0
C0
C0
C0
C0
C0
C0
C0
ENDCHAR
STARTCHAR 00A7
ENCODING 167
SWIDTH 468 0
DWIDTH 13 0
BBX 10 24 1 -3
BITMAP
0F00
3F80
7180
6000
6000
7000
3800
3C00
6F00
C380
C1C0
C0C0
E0C0
70C0
38C0
1F80
0700
0380
01C0
01C0
01C0
6380
7F00
1C00
ENDCHAR
STARTCHAR 00A8
ENCODING 168
SWIDTH 468 0
DWIDTH 13 0
BBX 7 3 3 18
BITMAP
CE
CE
CE
ENDCHAR
STARTCHAR 00A9
ENCODING 169
SWIDTH 900 0
DWIDTH 25 0
BBX 19 20 3 0
BITMAP
03F800
0E0E00
180300
300180
21F880
6398C0
460040
4E0040
4C0060
CC0060
CC0060
4C0060
460040
460040
63F8C0
31F880
180100
0C0700
079C00
01F000
ENDCHAR
STARTCHAR 00AA
ENCODING 170
SWIDTH 432 0
DWIDTH 12 0
BBX 9 15 1 6
BITMAP
1E00
7F00
4180
0180
0F80
7F80
6180
C180
C180
6380
7F80
0000
0000
7F80
7F80
ENDCHAR
STARTCHAR 00AB
ENCODING 171
SWIDTH 540 0
DWIDTH 15 0
BBX 11 12 2 2
BITMAP
0420
0C60
18E0
31C0
6380
C700
E700
7380
39C0
1CE0
0C60
0420
ENDCHAR
STARTCHAR 00AC
ENCODING 172
SWIDTH 756 0
DWIDTH 21 0
BBX 15 8 3 4
BITMAP
FFFE
FFFE
FFFE
0006
0006
0006
0006
0006
ENDCHAR
STARTCHAR 00AD
ENCODING 173
SWIDTH 324 0
DWIDTH 9 0
BBX 7 2 1 7
BITMAP
FE
FE
ENDCHAR
STARTCHAR 00AE
ENCODING 174
SWIDTH 900 0
DWIDTH 25 0
BBX 19 20 3 0
BITMAP
03F800
0E0E00
180300
300180
23F080
6338C0
430C40
430C40
431860
C3F860
C3F060
433060
431840
431C40
630CC0
300080
180100
0C0700
079C00
01F000
ENDCHAR
STARTCHAR 00AF
ENCODING 175
SWIDTH 468 0
DWIDTH 13 0
BBX 7 2 3 19
BITMAP
FE
FE
ENDCHAR
STARTCHAR 00B0
ENCODING 176
SWIDTH 468 0
DWIDTH 13 0
BBX 8 9 2 12
BITMAP
1C
3E
63
43
C1
C3
63
7E
1C
ENDCHAR
STARTCHAR 00B1
ENCODING 177
SWIDTH 756 0
DWIDTH 21 0
BBX 15 18 3 0
BITMAP
0180
0180
0180
0180
0180
0180
FFFE
FFFE
0180
0180
0180
0180
0180
0000
0000
0000
FFFE
FFFE
ENDCHAR
STARTCHAR 00B2
ENCODING 178
SWIDTH 360 0
DWIDTH 10 0
BBX 8 12 1 9
BITMAP
38
FE
86
02
06
06
0C
18
30
60
FF
FF
ENDCHAR
STARTCHAR 00B3
ENCODING 179
SWIDTH 360 0
DWIDTH 10 0
BBX 8 12 1 9
BITMAP
3C
7E
06
03
06
3C
3E
03
03
03
CE
FC
ENDCHAR
STARTCHAR 00B4
ENCODING 180
SWIDTH 468 0
DWIDTH 13 0
BBX 5 5 5 17
BITMAP
38
30
60
C0
C0
ENDCHAR
STARTCHAR 00B5
ENCODING 181
SWIDTH 576 0
DWIDTH 16 0
BBX 13 21 2 -6
BITMAP
C070
C070
C070
C070
C070
C070
C070
C070
C070
C070
E070
E070
F0F0
DFB8
DFB8
C000
C000
C000
C000
C000
C000
ENDCHAR
STARTCHAR 00B6
ENCODING 182
SWIDTH 576 0
DWIDTH 16 0
BBX 11 23 2 -3
BITMAP
3FE0
7E20
7E20
FE20
FE20
FE20
FE20
FE20
7E20
3E20
1E20
0620
0620
0620
0620
0620
0620
0620
0620
0620
0620
0620
0620
ENDCHAR
STARTCHAR 00B7
ENCODING 183
SWIDTH 288 0
DWIDTH 8 0
BBX 2 3 3 8
BITMAP
C0
C0
C0
ENDCHAR
STARTCHAR 00B8
ENCODING 184
SWIDTH 468 0
DWIDTH 13 0
BBX 5 5 4 -5
BITMAP
30
10
18
38
F0
ENDCHAR
STARTCHAR 00B9
ENCODING 185
SWIDTH 360 0
DWIDTH 10 0
BBX 7 12 2 9
BITMAP
30
F0
30
30
30
30
30
30
30
30
FE
FE
ENDCHAR
STARTCHAR 00BA
ENCODING 186
SWIDTH 432 0
DWIDTH 12 0
BBX 10 15 1 6
BITMAP
0C00
3F00
6180
E180
C0C0
C0C0
C0C0
C0C0
6180
7380
3F00
0000
0000
7F80
7F80
ENDCHAR
STARTCHAR 00BB
ENCODING 187
SWIDTH 540 0
DWIDTH 15 0
BBX 11 12 2 2
BITMAP
8200
C300
6380
31C0
18E0
0C60
1C60
38C0
7180
E300
C200
8400
ENDCHAR
STARTCHAR 00BC
ENCODING 188
SWIDTH 864 0
DWIDTH 24 0
BBX 22 21 2 0
BITMAP
300180
F00300
300300
300600
300600
300C00
300C00
301800
303000
303030
FE6070
FE6070
00C0B0
00C1B0
018130
018230
030630
0307FC
060030
0C0030
0C0030
ENDCHAR
STARTCHAR 00BD
ENCODING 189
SWIDTH 864 0
DWIDTH 24 0
BBX 21 21 2 0
BITMAP
300180
F00300
300300
300600
300600
300C00
300C00
301800
303000
3031E0
FE63F0
FE6038
00C018
00C018
018030
018060
0300C0
030180
060300
0C07F8
0C07F8
ENDCHAR
STARTCHAR 00BE
ENCODING 190
SWIDTH 864 0
DWIDTH 24 0
BBX 23 21 1 0
BITMAP
3C00C0
7E0180
060180
030300
060300
3C0600
3E0600
030C00
031800
031818
CE3038
FC3038
006058
0060D8
00C098
00C118
018318
0183FE
030018
060018
060018
ENDCHAR
STARTCHAR 00BF
ENCODING 191
SWIDTH 468 0
DWIDTH 13 0
BBX 10 20 2 -6
BITMAP
0E00
0E00
0E00
0000
0000
0C00
0C00
0C00
0C00
0C00
1C00
3800
7000
E000
C000
C000
C040
E0C0
7FC0
7F80
ENDCHAR
STARTCHAR 00C0
ENCODING 192
SWIDTH 612 0
DWIDTH 17 0
BBX 17 26 0 0
BITMAP
030000
018000
018000
00C000
000000
000000
01C000
01E000
03E000
036000
037000
073000
063000
0E3800
0E1800
0C1800
1C1C00
1C0C00
1FFC00
3FFE00
3FFE00
300600
700700
700300
600380
E00380
ENDCHAR
STARTCHAR 00C1
ENCODING 193
SWIDTH 612 0
DWIDTH 17 0
BBX 17 26 0 0
BITMAP
006000
00E000
00C000
018000
000000
000000
01C000
01E000
03E000
036000
037000
073000
063000
0E3800
0E1800
0C1800
1C1C00
1C0C00
1FFC00
3FFE00
3FFE00
300600
700700
700300
600380
E00380
ENDCHAR
STARTCHAR 00C2
ENCODING 194
SWIDTH 612 0
DWIDTH 17 0
BBX 17 26 0 0
BITMAP
01C000
036000
032000
063000
000000
000000
01C000
01E000
03E000
036000
037000
073000
063000
0E3800
0E1800
0C1800
1C1C00
1C0C00
1FFC00
3FFE00
3FFE00
300600
700700
700300
600380
E00380
ENDCHAR
STARTCHAR 00C3
ENCODING 195
SWIDTH 612 0
DWIDTH 17 0
BBX 17 26 0 0
BITMAP
031800
07D800
04F000
000000
000000
000000
01C000
01E000
03E000
036000
037000
073000
063000
0E3800
0E1800
0C1800
1C1C00
1C0C00
1FFC00
3FFE00
3FFE00
300600
700700
700300
600380
E00380
ENDCHAR
STARTCHAR 00C4
ENCODING 196
SWIDTH 612 0
DWIDTH 17 0
BBX 17 25 0 0
BITMAP
063000
063000
000000
000000
000000
01C000
01E000
03E000
036000
037000
073000
063000
0E3800
0E1800
0C1800
1C1C00
1C0C00
1FFC00
3FFE00
3FFE00
300600
700700
700300
600380
E00380
ENDCHAR
STARTCHAR 00C5
ENCODING 197
SWIDTH 612 0
DWIDTH 17 0
BBX 17 26 0 0
BITMAP
01C000
03E000
063000
063000
063000
033000
03E000
01E000
03E000
036000
077000
073000
063000
0E3800
0E1800
0C1800
1C1C00
1C0C00
1FFC00
3FFE00
3FFE00
300600
700700
700300
600380
E00380
ENDCHAR
STARTCHAR 00C6
ENCODING 198
SWIDTH 900 0
DWIDTH 25 0
BBX 23 20 0 0
BITMAP
01FFFE
01FFFE
019C00
039C00
031C00
031C00
071C00
061C00
0E1FFC
0E1FFC
0C1C00
1C1C00
1FFC00
1FFC00
3FFC00
301C00
701C00
701C00
601FFE
E01FFE
ENDCHAR
STARTCHAR 00C7
ENCODING 199
SWIDTH 648 0
DWIDTH 18 0
BBX 15 26 1 -5
BITMAP
01E0
07FC
1FBE
3C06
3802
7000
7000
6000
6000
E000
E000
E000
E000
6000
6000
7000
7000
3802
1E0E
0FFE
07F8
0040
0060
0020
0260
03E0
ENDCHAR
STARTCHAR 00C8
ENCODING 200
SWIDTH 576 0
DWIDTH 16 0
BBX 12 26 2 0
BITMAP
0C00
0C00
0600
0300
0000
0000
FFF0
FFF0
E000
E000
E000
E000
E000
E000
FFF0
FFF0
E000
E000
E000
E000
E000
E000
E000
E000
FFF0
FFF0
ENDCHAR
STARTCHAR 00C9
ENCODING 201
SWIDTH 576 0
DWIDTH 16 0
BBX 12 26 2 0
BITMAP
0180
0300
0600
0600
0000
0000
FFF0
FFF0
E000
E000
E000
E000
E000
E000
FFF0
FFF0
E000
E000
E000
E000
E000
E000
E000
E000
FFF0
FFF0
ENDCHAR
STARTCHAR 00CA
ENCODING 202
SWIDTH 576 0
DWIDTH 16 0
BBX 12 26 2 0
BITMAP
0700
0F00
1980
10C0
0000
0000
FFF0
FFF0
E000
E000
E000
E000
E000
E000
FFF0
FFF0
E000
E000
E000
E000
E000
E000
E000
E000
FFF0
FFF0
ENDCHAR
STARTCHAR 00CB
ENCODING 203
SWIDTH 576 0
DWIDTH 16 0
BBX 12 25 2 0
BITMAP
19C0
19C0
0000
0000
0000
FFF0
FFF0
E000
E000
E000
E000
E000
E000
FFF0
FFF0
E000
E000
E000
E000
E000
E000
E000
E000
FFF0
FFF0
ENDCHAR
STARTCHAR 00CC
ENCODING 204
SWIDTH 252 0
DWIDTH 7 0
BBX 4 26 1 0
BITMAP
C0
60
30
30
00
00
70
70
70
70
70
70
70
70
70
70
70
70
70
70
70
70
70
70
70
70
ENDCHAR
STARTCHAR 00CD
ENCODING 205
SWIDTH 252 0
DWIDTH 7 0
BBX 4 26 2 0
BITMAP
30
70
60
C0
00
00
E0
E0
E0
E0
E0
E0
E0
E0
E0
E0
E0
E0
E0
E0
E0
E0
E0
E0
E0
E0
ENDCHAR
STARTCHAR 00CE
ENCODING 206
SWIDTH 252 0
DWIDTH 7 0
BBX 7 26 0 0
BITMAP
38
3C
66
C2
00
00
38
38
38
38
38
38
38
38
38
38
38
38
38
38
38
38
38
38
38
38
ENDCHAR
STARTCHAR 00CF
ENCODING 207
SWIDTH 252 0
DWIDTH 7 0
BBX 7 25 0 0
BITMAP
E6
E6
00
00
00
38
38
38
38
38
38
38
38
38
38
38
38
38
38
38
38
38
38
38
38
ENDCHAR
STARTCHAR 00D0
ENCODING 208
SWIDTH 720 0
DWIDTH 20 0
BBX 18 20 0 0
BITMAP
1FF800
1FFE00
180F00
180780
180380
180180
1801C0
1801C0
FF81C0
FF81C0
1801C0
1801C0
1801C0
1801C0
180180
180380
180700
183F00
1FFC00
1FF000
ENDCHAR
STARTCHAR 00D1
ENCODING 209
SWIDTH 684 0
DWIDTH 19 0
BBX 14 26 2 0
BITMAP
0620
0FE0
19E0
0000
0000
0000
F00C
F80C
F80C
FC0C
EC0C
EE0C
E60C
E70C
E30C
E38C
E38C
E1CC
E1CC
E0CC
E0EC
E06C
E07C
E03C
E03C
E01C
ENDCHAR
STARTCHAR 00D2
ENCODING 210
SWIDTH 720 0
DWIDTH 20 0
BBX 17 26 1 0
BITMAP
030000
018000
00C000
004000
000000
01E000
0FF800
1FFE00
3C0E00
380700
700300
700380
600380
600180
E00180
E00180
E00180
E00180
600180
600380
700380
700700
380700
1C0E00
0FFC00
07F800
ENDCHAR
STARTCHAR 00D3
ENCODING 211
SWIDTH 720 0
DWIDTH 20 0
BBX 17 26 1 0
BITMAP
007000
006000
00C000
018000
000000
01E000
0FF800
1FFE00
3C0E00
380700
700300
700380
600380
600180
E00180
E00180
E00180
E00180
600180
600380
700380
700700
380700
1C0E00
0FFC00
07F800
ENDCHAR
STARTCHAR 00D4
ENCODING 212
SWIDTH 720 0
DWIDTH 20 0
BBX 17 26 1 0
BITMAP
01C000
01E000
033000
061800
000000
01E000
0FF800
1FFE00
3C0E00
380700
700300
700380
600380
600180
E00180
E00180
E00180
E00180
600180
600380
700380
700700
380700
1C0E00
0FFC00
07F800
ENDCHAR
STARTCHAR 00D5
ENCODING 213
SWIDTH 720 0
DWIDTH 20 0
BBX 17 26 1 0
BITMAP
031800
07D800
067000
000000
000000
01E000
0FF800
1FFE00
3C0E00
380700
700300
700380
600380
600180
E00180
E00180
E00180
E00180
600180
600380
700380
700700
380700
1C0E00
0FFC00
07F800
ENDCHAR
STARTCHAR 00D6
ENCODING 214
SWIDTH 720 0
DWIDTH 20 0
BBX 17 25 1 0
BITMAP
073800
073800
000000
000000
01E000
0FF800
1FFE00
3C0E00
380700
700300
700380
600380
600180
E00180
E00180
E00180
E00180
600180
600380
700380
700700
380700
1C0E00
0FFC00
07F800
ENDCHAR
STARTCHAR 00D7
ENCODING 215
SWIDTH 756 0
DWIDTH 21 0
BBX 15 15 3 2
BITMAP
600C
701C
3838
1C70
0E70
06E0
07C0
0380
07C0
0EE0
1C70
3838
701C
E00E
4004
ENDCHAR
STARTCHAR 00D8
ENCODING 216
SWIDTH 720 0
DWIDTH 20 0
BBX 17 22 1 -1
BITMAP
01E080
0FF980
1FFF00
3C0F00
380700
700F00
701B80
603B80
603180
E06180
E0C180
E1C180
E18180
630180
660380
7C0380
7C0700
380700
3C0E00
6FFC00
E7F800
400000
ENDCHAR
STARTCHAR 00D9
ENCODING 217
SWIDTH 648 0
DWIDTH 18 0
BBX 14 26 2 0
BITMAP
0600
0600
0300
0180
0000
0000
E00C
E00C
E00C
E00C
E00C
E00C
E00C
E00C
E00C
E00C
E00C
E00C
E00C
E00C
E00C
601C
701C
7838
3FF0
1FE0
ENDCHAR
STARTCHAR 00DA
ENCODING 218
SWIDTH 648 0
DWIDTH 18 0
BBX 14 26 2 0
BITMAP
00C0
0180
0300
0300
0000
0000
E00C
E00C
E00C
E00C
E00C
E00C
E00C
E00C
E00C
E00C
E00C
E00C
E00C
E00C
E00C
601C
701C
7838
3FF0
1FE0
ENDCHAR
STARTCHAR 00DB
ENCODING 219
SWIDTH 648 0
DWIDTH 18 0
BBX 14 26 2 0
BITMAP
0380
0780
0CC0
0860
0000
0000
E00C
E00C
E00C
E00C
E00C
E00C
E00C
E00C
E00C
E00C
E00C
E00C
E00C
E00C
E00C
601C
701C
7838
3FF0
1FE0
ENDCHAR
STARTCHAR 00DC
ENCODING 220
SWIDTH 648 0
DWIDTH 18 0
BBX 14 25 2 0
BITMAP
0CE0
0CE0
0000
0000
0000
E00C
E00C
E00C
E00C
E00C
E00C
E00C
E00C
E00C
E00C
E00C
E00C
E00C
E00C
E00C
601C
701C
7838
3FF0
1FE0
ENDCHAR
STARTCHAR 00DD
ENCODING 221
SWIDTH 540 0
DWIDTH 15 0
BBX 15 26 0 0
BITMAP
00C0
01C0
0180
0300
0000
0000
E00E
700C
301C
3838
1C30
0C70
0E60
06E0
07C0
0380
0380
0380
0380
0380
0380
0380
0380
0380
0380
0380
ENDCHAR
STARTCHAR 00DE
ENCODING 222
SWIDTH 540 0
DWIDTH 15 0
BBX 12 20 2 0
BITMAP
E000
E000
E000
FF00
FFC0
E3E0
E070
E070
E030
E030
E030
E070
E0F0
FFE0
FFC0
E000
E000
E000
E000
E000
ENDCHAR
STARTCHAR 00DF
ENCODING 223
SWIDTH 576 0
DWIDTH 16 0
BBX 13 21 2 0
BITMAP
1F80
7FC0
70E0
E060
E060
E1E0
E380
E700
E600
E600
E700
E380
E3C0
E0F0
E070
E038
E038
E038
E030
EFF0
EFE0
ENDCHAR
STARTCHAR 00E0
ENCODING 224
SWIDTH 540 0
DWIDTH 15 0
BBX 11 22 2 0
BITMAP
3000
1800
1800
0C00
0600
0000
0C00
7F80
7FC0
00E0
0060
0060
0FE0
7FE0
F060
C060
C060
C0E0
C0E0
E1E0
FF60
7E60
ENDCHAR
STARTCHAR 00E1
ENCODING 225
SWIDTH 540 0
DWIDTH 15 0
BBX 11 22 2 0
BITMAP
0380
0300
0600
0C00
0C00
0000
0C00
7F80
7FC0
00E0
0060
0060
0FE0
7FE0
F060
C060
C060
C0E0
C0E0
E1E0
FF60
7E60
ENDCHAR
STARTCHAR 00E2
ENCODING 226
SWIDTH 540 0
DWIDTH 15 0
BBX 11 22 2 0
BITMAP
0E00
1E00
1B00
3180
2180
0000
0C00
7F80
7FC0
00E0
0060
0060
0FE0
7FE0
F060
C060
C060
C0E0
C0E0
E1E0
FF60
7E60
ENDCHAR
STARTCHAR 00E3
ENCODING 227
SWIDTH 540 0
DWIDTH 15 0
BBX 11 22 2 0
BITMAP
1880
3C80
6780
6300
0000
0000
0C00
7F80
7FC0
00E0
0060
0060
0FE0
7FE0
F060
C060
C060
C0E0
C0E0
E1E0
FF60
7E60
ENDCHAR
STARTCHAR 00E4
ENCODING 228
SWIDTH 540 0
DWIDTH 15 0
BBX 11 21 2 0
BITMAP
3380
3380
3380
0000
0000
0C00
7F80
7FC0
00E0
0060
0060
0FE0
7FE0
F060
C060
C060
C0E0
C0E0
E1E0
FF60
7E60
ENDCHAR
STARTCHAR 00E5
ENCODING 229
SWIDTH 540 0
DWIDTH 15 0
BBX 11 25 2 0
BITMAP
0400
1F00
3300
3180
2180
3100
1F00
0E00
0000
0C00
7F80
7FC0
00E0
0060
0060
0FE0
7FE0
F060
C060
C060
C0E0
C0E0
E1E0
FF60
7E60
ENDCHAR
STARTCHAR 00E6
ENCODING 230
SWIDTH 900 0
DWIDTH 25 0
BBX 21 16 2 0
BITMAP
0E0380
7F8FE0
7FFEF0
00F838
007018
006018
0FE018
7FFFF8
F07FF8
C06000
C06000
C0F000
C0F000
E1F808
FF9FF8
7F0FF0
ENDCHAR
STARTCHAR 00E7
ENCODING 231
SWIDTH 504 0
DWIDTH 14 0
BBX 11 21 1 -5
BITMAP
0380
1FE0
3EE0
7000
7000
6000
E000
E000
E000
E000
6000
6000
7000
3800
3FE0
0FE0
0100
0180
0080
0980
0F80
ENDCHAR
STARTCHAR 00E8
ENCODING 232
SWIDTH 576 0
DWIDTH 16 0
BBX 13 22 1 0
BITMAP
1C00
0E00
0600
0300
0180
0000
0380
1FE0
3FF0
3030
7038
6018
6018
FFF8
FFF8
E000
6000
6000
7000
3818
1FF8
0FF0
ENDCHAR
STARTCHAR 00E9
ENCODING 233
SWIDTH 576 0
DWIDTH 16 0
BBX 13 22 1 0
BITMAP
00E0
01C0
0180
0300
0600
0000
0380
1FE0
3FF0
3030
7038
6018
6018
FFF8
FFF8
E000
6000
6000
7000
3818
1FF8
0FF0
ENDCHAR
STARTCHAR 00EA
ENCODING 234
SWIDTH 576 0
DWIDTH 16 0
BBX 13 22 1 0
BITMAP
0300
0780
0CC0
0CC0
1860
0000
0380
1FE0
3FF0
3030
7038
6018
6018
FFF8
FFF8
E000
6000
6000
7000
3818
1FF8
0FF0
ENDCHAR
STARTCHAR 00EB
ENCODING 235
SWIDTH 576 0
DWIDTH 16 0
BBX 13 21 1 0
BITMAP
1CE0
1CE0
1CE0
0000
0000
0380
1FE0
3FF0
3030
7038
6018
6018
FFF8
FFF8
E000
6000
6000
7000
3818
1FF8
0FF0
ENDCHAR
STARTCHAR 00EC
ENCODING 236
SWIDTH 252 0
DWIDTH 7 0
BBX 5 22 0 0
BITMAP
C0
60
30
30
18
00
00
38
38
38
38
38
38
38
38
38
38
38
38
38
38
38
ENDCHAR
STARTCHAR 00ED
ENCODING 237
SWIDTH 252 0
DWIDTH 7 0
BBX 5 22 2 0
BITMAP
18
30
60
60
C0
00
00
E0
E0
E0
E0
E0
E0
E0
E0
E0
E0
E0
E0
E0
E0
E0
ENDCHAR
STARTCHAR 00EE
ENCODING 238
SWIDTH 252 0
DWIDTH 7 0
BBX 7 22 0 0
BITMAP
38
6C
6C
C6
82
00
00
38
38
38
38
38
38
38
38
38
38
38
38
38
38
38
ENDCHAR
STARTCHAR 00EF
ENCODING 239
SWIDTH 252 0
DWIDTH 7 0
BBX 7 21 0 0
BITMAP
C6
C6
C6
00
00
00
38
38
38
38
38
38
38
38
38
38
38
38
38
38
38
ENDCHAR
STARTCHAR 00F0
ENCODING 240
SWIDTH 540 0
DWIDTH 15 0
BBX 13 21 1 0
BITMAP
1C20
0EF0
0780
3F80
3180
01C0
0FE0
1FE0
3870
7030
6038
6038
E018
E018
E018
6038
6038
7030
3870
3FE0
1FC0
ENDCHAR
STARTCHAR 00F1
ENCODING 241
SWIDTH 576 0
DWIDTH 16 0
BBX 12 22 2 0
BITMAP
0840
1E40
37C0
3380
0000
0000
0300
EFC0
FFE0
F060
E070
E070
E030
E030
E030
E030
E030
E030
E030
E030
E030
E030
ENDCHAR
STARTCHAR 00F2
ENCODING 242
SWIDTH 540 0
DWIDTH 15 0
BBX 13 22 1 0
BITMAP
1C00
0C00
0600
0300
0300
0000
0700
1FC0
3FE0
7070
7030
6038
E038
E018
E018
E018
6038
6038
7030
3870
3FE0
1FC0
ENDCHAR
STARTCHAR 00F3
ENCODING 243
SWIDTH 540 0
DWIDTH 15 0
BBX 13 22 1 0
BITMAP
00C0
0180
0380
0300
0600
0000
0700
1FC0
3FE0
7070
7030
6038
E038
E018
E018
E018
6038
6038
7030
3870
3FE0
1FC0
ENDCHAR
STARTCHAR 00F4
ENCODING 244
SWIDTH 540 0
DWIDTH 15 0
BBX 13 22 1 0
BITMAP
0700
0780
0D80
08C0
1860
0000
0700
1FC0
3FE0
7070
7030
6038
E038
E018
E018
E018
6038
6038
7030
3870
3FE0
1FC0
ENDCHAR
STARTCHAR 00F5
ENCODING 245
SWIDTH 540 0
DWIDTH 15 0
BBX 13 22 1 0
BITMAP
0C60
1E60
13C0
11C0
0000
0000
0700
1FC0
3FE0
7070
7030
6038
E038
E018
E018
E018
6038
6038
7030
3870
3FE0
1FC0
ENDCHAR
STARTCHAR 00F6
ENCODING 246
SWIDTH 540 0
DWIDTH 15 0
BBX 13 21 1 0
BITMAP
1CC0
1CC0
1CC0
0000
0000
0700
1FC0
3FE0
7070
7030
6038
E038
E018
E018
E018
6038
6038
7030
3870
3FE0
1FC0
ENDCHAR
STARTCHAR 00F7
ENCODING 247
SWIDTH 756 0
DWIDTH 21 0
BBX 15 14 3 2
BITMAP
0380
0380
0380
0380
0000
0000
FFFE
FFFE
0000
0000
0000
0380
0380
0380
ENDCHAR
STARTCHAR 00F8
ENCODING 248
SWIDTH 540 0
DWIDTH 15 0
BBX 14 17 1 0
BITMAP
070C
1FD8
3FF0
7070
7070
60F8
E198
E318
E318
E618
6C38
7838
7830
3870
7FE0
DFC0
C000
ENDCHAR
STARTCHAR 00F9
ENCODING 249
SWIDTH 576 0
DWIDTH 16 0
BBX 12 22 2 0
BITMAP
3800
1800
0C00
0600
0600
0000
0000
C070
C070
C070
C070
C070
C070
C070
C070
C070
C070
E070
E070
70F0
7FF0
3F70
ENDCHAR
STARTCHAR 00FA
ENCODING 250
SWIDTH 576 0
DWIDTH 16 0
BBX 12 22 2 0
BITMAP
0180
0380
0300
0600
0C00
0000
0000
C070
C070
C070
C070
C070
C070
C070
C070
C070
C070
E070
E070
70F0
7FF0
3F70
ENDCHAR
STARTCHAR 00FB
ENCODING 251
SWIDTH 576 0
DWIDTH 16 0
BBX 12 22 2 0
BITMAP
0E00
0F00
1900
1180
30C0
0000
0000
C070
C070
C070
C070
C070
C070
C070
C070
C070
C070
E070
E070
70F0
7FF0
3F70
ENDCHAR
STARTCHAR 00FC
ENCODING 252
SWIDTH 576 0
DWIDTH 16 0
BBX 12 21 2 0
BITMAP
3980
3980
3980
0000
0000
0000
C070
C070
C070
C070
C070
C070
C070
C070
C070
C070
E070
E070
70F0
7FF0
3F70
ENDCHAR
STARTCHAR 00FD
ENCODING 253
SWIDTH 540 0
DWIDTH 15 0
BBX 13 28 1 -6
BITMAP
00C0
0180
0300
0300
0600
0000
0000
C038
E038
6030
7070
3060
3060
38E0
18C0
18C0
1DC0
0D80
0D80
0F80
0700
0700
0600
0600
0E00
1C00
7C00
7000
ENDCHAR
STARTCHAR 00FE
ENCODING 254
SWIDTH 576 0
DWIDTH 16 0
BBX 13 27 2 -6
BITMAP
E000
E000
E000
E000
E000
E700
EFC0
FDE0
F070
E030
E030
E030
E038
E038
E038
E030
E030
E070
F060
FFE0
EFC0
E000
E000
E000
E000
E000
E000
ENDCHAR
STARTCHAR 00FF
ENCODING 255
SWIDTH 540 0
DWIDTH 15 0
BBX 13 27 1 -6
BITMAP
18C0
18C0
18C0
0000
0000
0000
C038
E038
6030
7070
3060
3060
38E0
18C0
18C0
1DC0
0D80
0D80
0F80
0700
0700
0600
0600
0E00
1C00
7C00
7000
ENDCHAR
STARTCHAR 0100
ENCODING 256
SWIDTH 612 0
DWIDTH 17 0
BBX 17 25 0 0
BITMAP
07F000
07F000
000000
000000
000000
01C000
01E000
03E000
036000
037000
073000
063000
0E3800
0E1800
0C1800
1C1C00
1C0C00
1FFC00
3FFE00
3FFE00
300600
700700
700300
600380
E00380
ENDCHAR
STARTCHAR 0101
ENCODING 257
SWIDTH 540 0
DWIDTH 15 0
BBX 11 21 2 0
BITMAP
3F80
3F80
0000
0000
0000
0C00
7F80
7FC0
00E0
0060
0060
0FE0
7FE0
F060
C060
C060
C0E0
C0E0
E1E0
FF60
7E60
ENDCHAR
STARTCHAR 0102
ENCODING 258
SWIDTH 612 0
DWIDTH 17 0
BBX 17 27 0 0
BITMAP
061800
061000
03F000
01E000
000000
000000
000000
01C000
01E000
03E000
036000
037000
073000
063000
0E3800
0E1800
0C1800
1C1C00
1C0C00
1FFC00
3FFE00
3FFE00
300600
700700
700300
600380
E00380
ENDCHAR
STARTCHAR 0103
ENCODING 259
SWIDTH 540 0
DWIDTH 15 0
BBX 11 21 2 0
BITMAP
6080
3180
3F00
1E00
0000
0C00
7F80
7FC0
00E0
0060
0060
0FE0
7FE0
F060
C060
C060
C0E0
C0E0
E1E0
FF60
7E60
ENDCHAR
STARTCHAR 0104
ENCODING 260
SWIDTH 612 0
DWIDTH 17 0
BBX 18 25 0 -5
BITMAP
01C000
01E000
03E000
036000
037000
073000
063000
0E3800
0E1800
0C1800
1C1C00
1C0C00
1FFC00
3FFE00
3FFE00
300600
700700
700300
600380
E00380
000300
000200
000600
000740
0003C0
ENDCHAR
STARTCHAR 0105
ENCODING 261
SWIDTH 540 0
DWIDTH 15 0
BBX 12 21 2 -5
BITMAP
0C00
7F80
7FC0
00E0
0060
0060
0FE0
7FE0
F060
C060
C060
C0E0
C0E0
E1E0
FF60
7E60
0040
00C0
0080
00C0
00F0
ENDCHAR
STARTCHAR 0106
ENCODING 262
SWIDTH 648 0
DWIDTH 18 0
BBX 15 26 1 0
BITMAP
0070
0060
00C0
0180
0000
01E0
07FC
1FBE
3C06
3802
7000
7000
6000
6000
E000
E000
E000
E000
6000
6000
7000
7000
3802
1E0E
0FFE
07F8
ENDCHAR
STARTCHAR 0107
ENCODING 263
SWIDTH 504 0
DWIDTH 14 0
BBX 11 22 1 0
BITMAP
00E0
01C0
0180
0300
0600
0000
0380
1FE0
3EE0
7000
7000
6000
E000
E000
E000
E000
6000
6000
7000
3800
3FE0
0FE0
ENDCHAR
STARTCHAR 0108
ENCODING 264
SWIDTH 648 0
DWIDTH 18 0
BBX 15 26 1 0
BITMAP
00E0
01B0
0130
0318
0000
01E0
07FC
1FBE
3C06
3802
7000
7000
6000
6000
E000
E000
E000
E000
6000
6000
7000
7000
3802
1E0E
0FFE
07F8
ENDCHAR
STARTCHAR 0109
ENCODING 265
SWIDTH 504 0
DWIDTH 14 0
BBX 11 22 1 0
BITMAP
0380
0780
06C0
0C60
0860
0000
0380
1FE0
3EE0
7000
7000
6000
E000
E000
E000
E000
6000
6000
7000
3800
3FE0
0FE0
ENDCHAR
STARTCHAR 010A
ENCODING 266
SWIDTH 648 0
DWIDTH 18 0
BBX 15 26 1 0
BITMAP
00E0
00E0
00E0
0000
0000
01E0
07FC
1FBE
3C06
3802
7000
7000
6000
6000
E000
E000
E000
E000
6000
6000
7000
7000
3802
1E0E
0FFE
07F8
ENDCHAR
STARTCHAR 010B
ENCODING 267
SWIDTH 504 0
DWIDTH 14 0
BBX 11 21 1 0
BITMAP
0300
0300
0300
0000
0000
0380
1FE0
3EE0
7000
7000
6000
E000
E000
E000
E000
6000
6000
7000
3800
3FE0
0FE0
ENDCHAR
STARTCHAR 010C
ENCODING 268
SWIDTH 648 0
DWIDTH 18 0
BBX 15 26 1 0
BITMAP
0210
0330
01E0
00C0
0000
01E0
07FC
1FBE
3C06
3802
7000
7000
6000
6000
E000
E000
E000
E000
6000
6000
7000
7000
3802
1E0E
0FFE
07F8
ENDCHAR
STARTCHAR 010D
ENCODING 269
SWIDTH 504 0
DWIDTH 14 0
BBX 11 22 1 0
BITMAP
0840
0CC0
0780
0780
0300
0000
0380
1FE0
3EE0
7000
7000
6000
E000
E000
E000
E000
6000
6000
7000
3800
3FE0
0FE0
ENDCHAR
STARTCHAR 010E
ENCODING 270
SWIDTH 684 0
DWIDTH 19 0
BBX 16 26 2 0
BITMAP
0860
0CC0
0780
0380
0000
0000
FFE0
FFF8
E03C
E01E
E00E
E006
E007
E007
E007
E007
E007
E007
E007
E007
E00E
E00E
E01C
E0F8
FFF0
FFC0
ENDCHAR
STARTCHAR 010F
ENCODING 271
SWIDTH 576 0
DWIDTH 16 0
BBX 17 21 1 0
BITMAP
003980
003980
003980
003B00
003B00
073800
1FB800
3DF800
707800
603800
603800
E03800
E03800
E03800
E03800
603800
603800
703800
307800
3FF800
1FB800
ENDCHAR
STARTCHAR 0110
ENCODING 272
SWIDTH 720 0
DWIDTH 20 0
BBX 18 20 0 0
BITMAP
1FF800
1FFE00
180F00
180780
180380
180180
1801C0
1801C0
FF81C0
FF81C0
1801C0
1801C0
1801C0
1801C0
180180
180380
180700
183F00
1FFC00
1FF000
ENDCHAR
STARTCHAR 0111
ENCODING 273
SWIDTH 576 0
DWIDTH 16 0
BBX 15 21 1 0
BITMAP
0038
0038
03FE
0038
0038
0738
1FB8
3DF8
7078
6038
6038
E038
E038
E038
E038
6038
6038
7038
3078
3FF8
1FB8
ENDCHAR
STARTCHAR 0112
ENCODING 274
SWIDTH 576 0
DWIDTH 16 0
BBX 12 25 2 0
BITMAP
1FC0
1FC0
0000
0000
0000
FFF0
FFF0
E000
E000
E000
E000
E000
E000
FFF0
FFF0
E000
E000
E000
E000
E000
E000
E000
E000
FFF0
FFF0
ENDCHAR
STARTCHAR 0113
ENCODING 275
SWIDTH 576 0
DWIDTH 16 0
BBX 13 21 1 0
BITMAP
1FE0
1FE0
0000
0000
0000
0380
1FE0
3FF0
3030
7038
6018
6018
FFF8
FFF8
E000
6000
6000
7000
3818
1FF8
0FF0
ENDCHAR
STARTCHAR 0114
ENCODING 276
SWIDTH 576 0
DWIDTH 16 0
BBX 12 26 2 0
BITMAP
3040
1DC0
1F80
0000
0000
0000
FFF0
FFF0
E000
E000
E000
E000
E000
E000
FFF0
FFF0
E000
E000
E000
E000
E000
E000
E000
E000
FFF0
FFF0
ENDCHAR
STARTCHAR 0115
ENCODING 277
SWIDTH 576 0
DWIDTH 16 0
BBX 13 22 1 0
BITMAP
1860
0860
0FC0
0780
0000
0000
0380
1FE0
3FF0
3030
7038
6018
6018
FFF8
FFF8
E000
6000
6000
7000
3818
1FF8
0FF0
ENDCHAR
STARTCHAR 0116
ENCODING 278
SWIDTH 576 0
DWIDTH 16 0
BBX 12 26 2 0
BITMAP
0700
0700
0700
0000
0000
0000
FFF0
FFF0
E000
E000
E000
E000
E000
E000
FFF0
FFF0
E000
E000
E000
E000
E000
E000
E000
E000
FFF0
FFF0
ENDCHAR
STARTCHAR 0117
ENCODING 279
SWIDTH 576 0
DWIDTH 16 0
BBX 13 21 1 0
BITMAP
0300
0300
0300
0000
0000
0380
1FE0
3FF0
3030
7038
6018
6018
FFF8
FFF8
E000
6000
6000
7000
3818
1FF8
0FF0
ENDCHAR
STARTCHAR 0118
ENCODING 280
SWIDTH 576 0
DWIDTH 16 0
BBX 12 25 2 -5
BITMAP
FFF0
FFF0
E000
E000
E000
E000
E000
E000
FFF0
FFF0
E000
E000
E000
E000
E000
E000
E000
E000
FFF0
FFF0
0040
00C0
0080
00C0
00F0
ENDCHAR
STARTCHAR 0119
ENCODING 281
SWIDTH 576 0
DWIDTH 16 0
BBX 13 21 1 -5
BITMAP
0380
1FE0
3FF0
3030
7038
6018
6018
FFF8
FFF8
E000
6000
6000
7000
3818
1FF8
0FF0
0040
00C0
0080
00C0
00F0
ENDCHAR
STARTCHAR 011A
ENCODING 282
SWIDTH 576 0
DWIDTH 16 0
BBX 12 26 2 0
BITMAP
18C0
0980
0F00
0700
0000
0000
FFF0
FFF0
E000
E000
E000
E000
E000
E000
FFF0
FFF0
E000
E000
E000
E000
E000
E000
E000
E000
FFF0
FFF0
ENDCHAR
STARTCHAR 011B
ENCODING 283
SWIDTH 576 0
DWIDTH 16 0
BBX 13 22 1 0
BITMAP
0C60
0CC0
0780
0780
0300
0000
0380
1FE0
3FF0
3030
7038
6018
6018
FFF8
FFF8
E000
6000
6000
7000
3818
1FF8
0FF0
ENDCHAR
STARTCHAR 011C
ENCODING 284
SWIDTH 720 0
DWIDTH 20 0
BBX 16 26 1 0
BITMAP
00E0
01B0
0190
0318
0000
01F0
07FE
1FFF
3C03
3801
7000
7000
6000
6000
E000
E03F
E03F
E03F
6003
6003
7003
7003
3803
1E07
0FFF
07FC
ENDCHAR
STARTCHAR 011D
ENCODING 285
SWIDTH 576 0
DWIDTH 16 0
BBX 13 28 1 -6
BITMAP
0700
0780
0D80
18C0
1840
0000
0700
1FB8
3DF8
7078
6038
6038
E038
E038
E038
E038
6038
6038
7078
38F8
3FF8
0F38
0038
0030
0070
30E0
3FE0
0F00
ENDCHAR
STARTCHAR 011E
ENCODING 286
SWIDTH 720 0
DWIDTH 20 0
BBX 16 26 1 0
BITMAP
0618
0770
03F0
0000
0000
01F0
07FE
1FFF
3C03
3801
7000
7000
6000
6000
E000
E03F
E03F
E03F
6003
6003
7003
7003
3803
1E07
0FFF
07FC
ENDCHAR
STARTCHAR 011F
ENCODING 287
SWIDTH 576 0
DWIDTH 16 0
BBX 13 28 1 -6
BITMAP
1860
1860
0FC0
0780
0000
0000
0700
1FB8
3DF8
7078
6038
6038
E038
E038
E038
E038
6038
6038
7078
38F8
3FF8
0F38
0038
0030
0070
30E0
3FE0
0F00
ENDCHAR
STARTCHAR 0120
ENCODING 288
SWIDTH 720 0
DWIDTH 20 0
BBX 16 26 1 0
BITMAP
00E0
00E0
00E0
0000
0000
01F0
07FE
1FFF
3C03
3801
7000
7000
6000
6000
E000
E03F
E03F
E03F
6003
6003
7003
7003
3803
1E07
0FFF
07FC
ENDCHAR
STARTCHAR 0121
ENCODING 289
SWIDTH 576 0
DWIDTH 16 0
BBX 13 27 1 -6
BITMAP
0700
0700
0700
0000
0000
0700
1FB8
3DF8
7078
6038
6038
E038
E038
E038
E038
6038
6038
7078
38F8
3FF8
0F38
0038
0030
0070
30E0
3FE0
0F00
ENDCHAR
STARTCHAR 0122
ENCODING 290
SWIDTH 720 0
DWIDTH 20 0
BBX 16 28 1 -7
BITMAP
01F0
07FE
1FFF
3C03
3801
7000
7000
6000
6000
E000
E03F
E03F
E03F
6003
6003
7003
7003
3803
1E07
0FFF
07FC
0000
0000
0060
00E0
00C0
00C0
0080
ENDCHAR
STARTCHAR 0123
ENCODING 291
SWIDTH 576 0
DWIDTH 16 0
BBX 13 28 1 -6
BITMAP
0180
0180
0300
0300
0000
0000
0700
1FB8
3DF8
7078
6038
6038
E038
E038
E038
E038
6038
6038
7078
38F8
3FF8
0F38
0038
0030
0070
30E0
3FE0
0F00
ENDCHAR
STARTCHAR 0124
ENCODING 292
SWIDTH 684 0
DWIDTH 19 0
BBX 14 26 2 0
BITMAP
0380
06C0
06C0
0C60
0000
0000
E00C
E00C
E00C
E00C
E00C
E00C
E00C
E00C
FFFC
FFFC
E00C
E00C
E00C
E00C
E00C
E00C
E00C
E00C
E00C
E00C
ENDCHAR
STARTCHAR 0125
ENCODING 293
SWIDTH 576 0
DWIDTH 16 0
BBX 14 26 0 0
BITMAP
3800
6C00
4C00
C600
0000
3800
3800
3800
3800
3800
38C0
3BF0
3FF8
3C18
381C
381C
380C
380C
380C
380C
380C
380C
380C
380C
380C
380C
ENDCHAR
STARTCHAR 0126
ENCODING 294
SWIDTH 828 0
DWIDTH 23 0
BBX 19 20 2 0
BITMAP
180380
180380
180380
FFFFE0
FFFFE0
180380
180380
180380
1FFF80
1FFF80
180380
180380
180380
180380
180380
180380
180380
180380
180380
180380
ENDCHAR
STARTCHAR 0127
ENCODING 295
SWIDTH 648 0
DWIDTH 18 0
BBX 14 21 1 0
BITMAP
3000
FF80
FF80
FF80
3000
31C0
33F0
37F8
3C38
3818
3818
301C
301C
301C
301C
301C
301C
301C
301C
301C
301C
ENDCHAR
STARTCHAR 0128
ENCODING 296
SWIDTH 252 0
DWIDTH 7 0
BBX 8 26 0 0
BITMAP
63
FB
9E
00
00
00
38
38
38
38
38
38
38
38
38
38
38
38
38
38
38
38
38
38
38
38
ENDCHAR
STARTCHAR 0129
ENCODING 297
SWIDTH 252 0
DWIDTH 7 0
BBX 9 22 -1 0
BITMAP
3180
7900
4F00
C700
0000
0000
0000
1C00
1C00
1C00
1C00
1C00
1C00
1C00
1C00
1C00
1C00
1C00
1C00
1C00
1C00
1C00
ENDCHAR
STARTCHAR 012A
ENCODING 298
SWIDTH 252 0
DWIDTH 7 0
BBX 7 25 0 0
BITMAP
FE
FE
00
00
00
38
38
38
38
38
38
38
38
38
38
38
38
38
38
38
38
38
38
38
38
ENDCHAR
STARTCHAR 012B
ENCODING 299
SWIDTH 252 0
DWIDTH 7 0
BBX 7 21 0 0
BITMAP
FE
FE
00
00
00
00
38
38
38
38
38
38
38
38
38
38
38
38
38
38
38
ENDCHAR
STARTCHAR 012C
ENCODING 300
SWIDTH 252 0
DWIDTH 7 0
BBX 8 26 0 0
BITMAP
83
EE
7E
00
00
00
38
38
38
38
38
38
38
38
38
38
38
38
38
38
38
38
38
38
38
38
ENDCHAR
STARTCHAR 012D
ENCODING 301
SWIDTH 252 0
DWIDTH 7 0
BBX 7 22 0 0
BITMAP
82
C6
FE
38
00
00
00
38
38
38
38
38
38
38
38
38
38
38
38
38
38
38
ENDCHAR
STARTCHAR 012E
ENCODING 302
SWIDTH 252 0
DWIDTH 7 0
BBX 5 25 2 -5
BITMAP
E0
E0
E0
E0
E0
E0
E0
E0
E0
E0
E0
E0
E0
E0
E0
E0
E0
E0
E0
E0
60
40
C0
E8
78
ENDCHAR
STARTCHAR 012F
ENCODING 303
SWIDTH 252 0
DWIDTH 7 0
BBX 4 26 2 -5
BITMAP
E0
E0
E0
00
00
00
E0
E0
E0
E0
E0
E0
E0
E0
E0
E0
E0
E0
E0
E0
E0
40
C0
C0
C0
F0
ENDCHAR
STARTCHAR 0130
ENCODING 304
SWIDTH 252 0
DWIDTH 7 0
BBX 3 26 2 0
BITMAP
E0
E0
E0
00
00
00
E0
E0
E0
E0
E0
E0
E0
E0
E0
E0
E0
E0
E0
E0
E0
E0
E0
E0
E0
E0
ENDCHAR
STARTCHAR 0131
ENCODING 305
SWIDTH 252 0
DWIDTH 7 0
BBX 3 15 2 1
BITMAP
E0
E0
E0
E0
E0
E0
E0
E0
E0
E0
E0
E0
E0
E0
E0
ENDCHAR
STARTCHAR 0132
ENCODING 306
SWIDTH 540 0
DWIDTH 15 0
BBX 10 26 2 -6
BITMAP
E0C0
E0C0
E0C0
E0C0
E0C0
E0C0
E0C0
E0C0
E0C0
E0C0
E0C0
E0C0
E0C0
E0C0
E0C0
E0C0
E0C0
E0C0
E0C0
E0C0
00C0
00C0
01C0
0F80
0F80
0C00
ENDCHAR
STARTCHAR 0133
ENCODING 307
SWIDTH 504 0
DWIDTH 14 0
BBX 10 27 2 -6
BITMAP
E1C0
E1C0
E1C0
0000
0000
0000
E1C0
E1C0
E1C0
E1C0
E1C0
E1C0
E1C0
E1C0
E1C0
E1C0
E1C0
E1C0
E1C0
E1C0
E1C0
01C0
01C0
0180
0380
0780
0600
ENDCHAR
STARTCHAR 0134
ENCODING 308
SWIDTH 252 0
DWIDTH 7 0
BBX 8 32 -1 -6
BITMAP
1C
1E
33
61
00
00
1C
1C
1C
1C
1C
1C
1C
1C
1C
1C
1C
1C
1C
1C
1C
1C
1C
1C
1C
1C
1C
1C
18
F8
F0
80
ENDCHAR
STARTCHAR 0135
ENCODING 309
SWIDTH 252 0
DWIDTH 7 0
BBX 7 28 0 -6
BITMAP
38
6C
6C
C6
82
00
00
38
38
38
38
38
38
38
38
38
38
38
38
38
38
38
38
38
30
70
F0
C0
ENDCHAR
STARTCHAR 0136
ENCODING 310
SWIDTH 612 0
DWIDTH 17 0
BBX 15 27 2 -7
BITMAP
E03C
E078
E0F0
E1E0
E1C0
E380
E700
EE00
FC00
FC00
FE00
EE00
E700
E380
E1C0
E0E0
E070
E038
E03C
E01E
0000
0000
0180
0180
0380
0300
0300
ENDCHAR
STARTCHAR 0137
ENCODING 311
SWIDTH 540 0
DWIDTH 15 0
BBX 12 28 2 -7
BITMAP
E000
E000
E000
E000
E000
E000
E0F0
E1C0
E380
E700
EE00
FC00
F800
FC00
FC00
EE00
E700
E380
E1C0
E0E0
E070
0000
0000
0300
0700
0600
0600
0400
ENDCHAR
STARTCHAR 0138
ENCODING 312
SWIDTH 540 0
DWIDTH 15 0
BBX 12 15 2 0
BITMAP
E0F0
E1C0
E380
E700
EE00
FC00
F800
F800
FC00
EE00
E700
E380
E1C0
E0E0
E070
ENDCHAR
STARTCHAR 0139
ENCODING 313
SWIDTH 504 0
DWIDTH 14 0
BBX 12 26 2 0
BITMAP
1800
3000
3000
6000
0000
0000
E000
E000
E000
E000
E000
E000
E000
E000
E000
E000
E000
E000
E000
E000
E000
E000
E000
E000
FFF0
FFF0
ENDCHAR
STARTCHAR 013A
ENCODING 314
SWIDTH 252 0
DWIDTH 7 0
BBX 5 26 2 0
BITMAP
18
30
60
60
00
E0
E0
E0
E0
E0
E0
E0
E0
E0
E0
E0
E0
E0
E0
E0
E0
E0
E0
E0
E0
E0
ENDCHAR
STARTCHAR 013B
ENCODING 315
SWIDTH 504 0
DWIDTH 14 0
BBX 12 27 2 -7
BITMAP
E000
E000
E000
E000
E000
E000
E000
E000
E000
E000
E000
E000
E000
E000
E000
E000
E000
E000
FFF0
FFF0
0000
0000
0700
0600
0600
0600
0C00
ENDCHAR
STARTCHAR 013C
ENCODING 316
SWIDTH 252 0
DWIDTH 7 0
BBX 3 28 2 -7
BITMAP
E0
E0
E0
E0
E0
E0
E0
E0
E0
E0
E0
E0
E0
E0
E0
E0
E0
E0
E0
E0
E0
00
00
60
E0
C0
C0
80
ENDCHAR
STARTCHAR 013D
ENCODING 317
SWIDTH 504 0
DWIDTH 14 0
BBX 12 20 2 0
BITMAP
E380
E300
E300
E300
E600
E000
E000
E000
E000
E000
E000
E000
E000
E000
E000
E000
E000
E000
FFF0
FFF0
ENDCHAR
STARTCHAR 013E
ENCODING 318
SWIDTH 324 0
DWIDTH 9 0
BBX 7 21 2 0
BITMAP
E6
E6
E6
EC
EC
E0
E0
E0
E0
E0
E0
E0
E0
E0
E0
E0
E0
E0
E0
E0
E0
ENDCHAR
STARTCHAR 013F
ENCODING 319
SWIDTH 504 0
DWIDTH 14 0
BBX 12 20 2 0
BITMAP
E000
E000
E000
E000
E000
E000
E000
E0C0
E0C0
E0C0
E000
E000
E000
E000
E000
E000
E000
E000
FFF0
FFF0
ENDCHAR
STARTCHAR 0140
ENCODING 320
SWIDTH 324 0
DWIDTH 9 0
BBX 6 21 2 0
BITMAP
E0
E0
E0
E0
E0
E0
E0
E0
FC
FC
FC
E0
E0
E0
E0
E0
E0
E0
E0
E0
E0
ENDCHAR
STARTCHAR 0141
ENCODING 321
SWIDTH 504 0
DWIDTH 14 0
BBX 14 20 0 0
BITMAP
1800
1800
1800
1800
1800
1880
19C0
1B80
1E00
1C00
3800
7800
D800
1800
1800
1800
1800
1800
1FFC
1FFC
ENDCHAR
STARTCHAR 0142
ENCODING 322
SWIDTH 252 0
DWIDTH 7 0
BBX 7 21 0 0
BITMAP
38
38
38
38
38
38
38
3E
3E
3C
78
F8
78
38
38
38
38
38
38
38
38
ENDCHAR
STARTCHAR 0143
ENCODING 323
SWIDTH 684 0
DWIDTH 19 0
BBX 14 26 2 0
BITMAP
0180
0380
0300
0600
0000
0000
F00C
F80C
F80C
FC0C
EC0C
EE0C
E60C
E70C
E30C
E38C
E38C
E1CC
E1CC
E0CC
E0EC
E06C
E07C
E03C
E03C
E01C
ENDCHAR
STARTCHAR 0144
ENCODING 324
SWIDTH 576 0
DWIDTH 16 0
BBX 12 22 2 0
BITMAP
0380
0300
0600
0C00
0800
0000
0300
EFC0
FFE0
F060
E070
E070
E030
E030
E030
E030
E030
E030
E030
E030
E030
E030
ENDCHAR
STARTCHAR 0145
ENCODING 325
SWIDTH 684 0
DWIDTH 19 0
BBX 14 27 2 -7
BITMAP
F00C
F80C
F80C
FC0C
EC0C
EE0C
E60C
E70C
E30C
E38C
E38C
E1CC
E1CC
E0CC
E0EC
E06C
E07C
E03C
E03C
E01C
0000
0000
0180
0380
0300
0300
0200
ENDCHAR
STARTCHAR 0146
ENCODING 326
SWIDTH 576 0
DWIDTH 16 0
BBX 12 23 2 -7
BITMAP
0300
EFC0
FFE0
F060
E070
E070
E030
E030
E030
E030
E030
E030
E030
E030
E030
E030
0000
0000
0700
0600
0600
0C00
0C00
ENDCHAR
STARTCHAR 0147
ENCODING 327
SWIDTH 684 0
DWIDTH 19 0
BBX 14 26 2 0
BITMAP
0C60
04C0
0780
0380
0000
0000
F00C
F80C
F80C
FC0C
EC0C
EE0C
E60C
E70C
E30C
E38C
E38C
E1CC
E1CC
E0CC
E0EC
E06C
E07C
E03C
E03C
E01C
ENDCHAR
STARTCHAR 0148
ENCODING 328
SWIDTH 576 0
DWIDTH 16 0
BBX 12 22 2 0
BITMAP
1080
1980
0F00
0F00
0600
0000
0300
EFC0
FFE0
F060
E070
E070
E030
E030
E030
E030
E030
E030
E030
E030
E030
E030
ENDCHAR
STARTCHAR 0149
ENCODING 329
SWIDTH 756 0
DWIDTH 21 0
BBX 15 20 3 0
BITMAP
6000
6000
E000
C000
C060
9DF8
1FFC
1E0E
1C0E
1C06
1C06
1C06
1C06
1C06
1C06
1C06
1C06
1C06
1C06
1C06
ENDCHAR
STARTCHAR 014A
ENCODING 330
SWIDTH 684 0
DWIDTH 19 0
BBX 14 27 2 -6
BITMAP
01C0
E7F0
EFF8
FC38
F01C
F01C
E01C
E00C
E00C
E00C
E00C
E00C
E00C
E00C
E00C
E00C
E00C
E00C
E00C
E00C
E00C
000C
000C
001C
003C
0078
0070
ENDCHAR
STARTCHAR 014B
ENCODING 331
SWIDTH 576 0
DWIDTH 16 0
BBX 12 22 2 -6
BITMAP
0300
EFC0
FFE0
F060
E070
E070
E030
E030
E030
E030
E030
E030
E030
E030
E030
E030
0030
0070
0070
00E0
0FE0
0FC0
ENDCHAR
STARTCHAR 014C
ENCODING 332
SWIDTH 720 0
DWIDTH 20 0
BBX 17 25 1 0
BITMAP
07F800
07F800
000000
000000
01E000
0FF800
1FFE00
3C0E00
380700
700300
700380
600380
600180
E00180
E00180
E00180
E00180
600180
600380
700380
700700
380700
1C0E00
0FFC00
07F800
ENDCHAR
STARTCHAR 014D
ENCODING 333
SWIDTH 540 0
DWIDTH 15 0
BBX 13 21 1 0
BITMAP
1FC0
1FC0
0000
0000
0000
0700
1FC0
3FE0
7070
7030
6038
E038
E018
E018
E018
6038
6038
7030
3870
3FE0
1FC0
ENDCHAR
STARTCHAR 014E
ENCODING 334
SWIDTH 720 0
DWIDTH 20 0
BBX 17 26 1 0
BITMAP
061800
077000
03F000
000000
000000
01E000
0FF800
1FFE00
3C0E00
380700
700300
700380
600380
600180
E00180
E00180
E00180
E00180
600180
600380
700380
700700
380700
1C0E00
0FFC00
07F800
ENDCHAR
STARTCHAR 014F
ENCODING 335
SWIDTH 540 0
DWIDTH 15 0
BBX 13 22 1 0
BITMAP
1060
18C0
0FC0
0780
0000
0000
0700
1FC0
3FE0
7070
7030
6038
E038
E018
E018
E018
6038
6038
7030
3870
3FE0
1FC0
ENDCHAR
STARTCHAR 0150
ENCODING 336
SWIDTH 720 0
DWIDTH 20 0
BBX 17 26 1 0
BITMAP
00CC00
019800
033000
033000
000000
01E000
0FF800
1FFE00
3C0E00
380700
700300
700380
600380
600180
E00180
E00180
E00180
E00180
600180
600380
700380
700700
380700
1C0E00
0FFC00
07F800
ENDCHAR
STARTCHAR 0151
ENCODING 337
SWIDTH 540 0
DWIDTH 15 0
BBX 13 22 1 0
BITMAP
0330
0660
0660
0CC0
0CC0
0000
0700
1FC0
3FE0
7070
7030
6038
E038
E018
E018
E018
6038
6038
7030
3870
3FE0
1FC0
ENDCHAR
STARTCHAR 0152
ENCODING 338
SWIDTH 972 0
DWIDTH 27 0
BBX 24 20 1 0
BITMAP
03FFFF
0FFFFF
1E0600
380600
700600
700600
600600
600600
E007FF
E007FF
E00600
E00600
600600
700600
700600
380600
3C0600
1F8600
07FFFF
01FFFF
ENDCHAR
STARTCHAR 0153
ENCODING 339
SWIDTH 936 0
DWIDTH 26 0
BBX 23 16 1 0
BITMAP
0700E0
1FC3F8
3FEFBC
707E0E
703C06
603806
E03806
E01FFE
E01FFE
E01800
603800
603C00
703C00
387E02
3FE7FE
1FC3FC
ENDCHAR
STARTCHAR 0154
ENCODING 340
SWIDTH 648 0
DWIDTH 18 0
BBX 15 26 2 0
BITMAP
0180
0300
0600
0400
0000
0000
FFC0
FFE0
E0F0
E070
E030
E030
E030
E070
E0F0
FFE0
FF80
E1E0
E0E0
E070
E030
E038
E018
E01C
E01C
E00E
ENDCHAR
STARTCHAR 0155
ENCODING 341
SWIDTH 360 0
DWIDTH 10 0
BBX 9 22 2 0
BITMAP
0380
0300
0600
0C00
0800
0000
0300
EF00
FF00
F000
E000
E000
E000
E000
E000
E000
E000
E000
E000
E000
E000
E000
ENDCHAR
STARTCHAR 0156
ENCODING 342
SWIDTH 648 0
DWIDTH 18 0
BBX 15 27 2 -7
BITMAP
FFC0
FFE0
E0F0
E070
E030
E030
E030
E070
E0F0
FFE0
FF80
E1E0
E0E0
E070
E030
E038
E018
E01C
E01C
E00E
0000
0000
0180
0180
0300
0300
0300
ENDCHAR
STARTCHAR 0157
ENCODING 343
SWIDTH 360 0
DWIDTH 10 0
BBX 8 23 2 -7
BITMAP
03
EF
FF
F0
E0
E0
E0
E0
E0
E0
E0
E0
E0
E0
E0
E0
00
00
60
E0
C0
C0
80
ENDCHAR
STARTCHAR 0158
ENCODING 344
SWIDTH 648 0
DWIDTH 18 0
BBX 15 26 2 0
BITMAP
3080
1980
0F00
0600
0000
0000
FFC0
FFE0
E0F0
E070
E030
E030
E030
E070
E0F0
FFE0
FF80
E1E0
E0E0
E070
E030
E038
E018
E01C
E01C
E00E
ENDCHAR
STARTCHAR 0159
ENCODING 345
SWIDTH 360 0
DWIDTH 10 0
BBX 8 22 2 0
BITMAP
63
32
36
1C
0C
00
03
EF
FF
F0
E0
E0
E0
E0
E0
E0
E0
E0
E0
E0
E0
E0
ENDCHAR
STARTCHAR 015A
ENCODING 346
SWIDTH 576 0
DWIDTH 16 0
BBX 13 26 2 0
BITMAP
0180
0300
0600
0400
0000
0F80
3FE0
7DE0
E000
C000
C000
C000
E000
F000
7F00
3FC0
0FE0
00F0
0070
0038
0038
0038
0070
C0F0
FFE0
7FC0
ENDCHAR
STARTCHAR 015B
ENCODING 347
SWIDTH 468 0
DWIDTH 13 0
BBX 11 22 1 0
BITMAP
01C0
0180
0300
0600
0400
0000
0F00
3FC0
79C0
6000
E000
E000
7000
7E00
1F80
03C0
00E0
0060
0060
C0E0
FFC0
7F80
ENDCHAR
STARTCHAR 015C
ENCODING 348
SWIDTH 576 0
DWIDTH 16 0
BBX 13 26 2 0
BITMAP
0700
0F00
1980
10C0
0000
0F80
3FE0
7DE0
E000
C000
C000
C000
E000
F000
7F00
3FC0
0FE0
00F0
0070
0038
0038
0038
0070
C0F0
FFE0
7FC0
ENDCHAR
STARTCHAR 015D
ENCODING 349
SWIDTH 468 0
DWIDTH 13 0
BBX 11 22 1 0
BITMAP
0E00
0F00
1B00
1180
30C0
0000
0F00
3FC0
79C0
6000
E000
E000
7000
7E00
1F80
03C0
00E0
0060
0060
C0E0
FFC0
7F80
ENDCHAR
STARTCHAR 015E
ENCODING 350
SWIDTH 576 0
DWIDTH 16 0
BBX 13 26 2 -5
BITMAP
0F80
3FE0
7DE0
E000
C000
C000
C000
E000
F000
7F00
3FC0
0FE0
00F0
0070
0038
0038
0038
0070
C0F0
FFE0
7FC0
0200
0300
0100
1300
1F00
ENDCHAR
STARTCHAR 015F
ENCODING 351
SWIDTH 468 0
DWIDTH 13 0
BBX 11 21 1 -5
BITMAP
0F00
3FC0
79C0
6000
E000
E000
7000
7E00
1F80
03C0
00E0
0060
0060
C0E0
FFC0
7F80
0600
0300
0300
0700
1E00
ENDCHAR
STARTCHAR 0160
ENCODING 352
SWIDTH 576 0
DWIDTH 16 0
BBX 13 26 2 0
BITMAP
1080
1980
0F00
0600
0000
0F80
3FE0
7DE0
E000
C000
C000
C000
E000
F000
7F00
3FC0
0FE0
00F0
0070
0038
0038
0038
0070
C0F0
FFE0
7FC0
ENDCHAR
STARTCHAR 0161
ENCODING 353
SWIDTH 468 0
DWIDTH 13 0
BBX 11 22 1 0
BITMAP
3180
1980
0F00
0E00
0600
0000
0F00
3FC0
79C0
6000
E000
E000
7000
7E00
1F80
03C0
00E0
0060
0060
C0E0
FFC0
7F80
ENDCHAR
STARTCHAR 0162
ENCODING 354
SWIDTH 540 0
DWIDTH 15 0
BBX 15 25 0 -5
BITMAP
FFFE
FFFE
0380
0380
0380
0380
0380
0380
0380
0380
0380
0380
0380
0380
0380
0380
0380
0380
0380
0380
0180
0080
00C0
01C0
0780
ENDCHAR
STARTCHAR 0163
ENCODING 355
SWIDTH 360 0
DWIDTH 10 0
BBX 8 25 1 -5
BITMAP
70
70
70
70
70
FF
FF
70
70
70
70
70
70
70
70
70
70
30
3F
1F
04
06
02
26
3E
ENDCHAR
STARTCHAR 0164
ENCODING 356
SWIDTH 540 0
DWIDTH 15 0
BBX 15 26 0 0
BITMAP
0C60
0660
03C0
0380
0000
0000
FFFE
FFFE
0380
0380
0380
0380
0380
0380
0380
0380
0380
0380
0380
0380
0380
0380
0380
0380
0380
0380
ENDCHAR
STARTCHAR 0165
ENCODING 357
SWIDTH 360 0
DWIDTH 10 0
BBX 8 23 1 0
BITMAP
03
03
07
76
76
70
70
70
FF
FF
70
70
70
70
70
70
70
70
70
70
30
3F
1F
ENDCHAR
STARTCHAR 0166
ENCODING 358
SWIDTH 540 0
DWIDTH 15 0
BBX 15 20 0 0
BITMAP
FFFE
FFFE
0380
0380
0380
0380
0380
0380
0380
0380
1FF0
1FF0
0380
0380
0380
0380
0380
0380
0380
0380
ENDCHAR
STARTCHAR 0167
ENCODING 359
SWIDTH 360 0
DWIDTH 10 0
BBX 8 20 1 0
BITMAP
70
70
70
70
70
FF
FF
70
70
70
FF
FF
70
70
70
70
70
30
3F
1F
ENDCHAR
STARTCHAR 0168
ENCODING 360
SWIDTH 648 0
DWIDTH 18 0
BBX 14 26 2 0
BITMAP
0420
0F60
19E0
0000
0000
0000
E00C
E00C
E00C
E00C
E00C
E00C
E00C
E00C
E00C
E00C
E00C
E00C
E00C
E00C
E00C
601C
701C
7838
3FF0
1FE0
ENDCHAR
STARTCHAR 0169
ENCODING 361
SWIDTH 576 0
DWIDTH 16 0
BBX 12 22 2 0
BITMAP
18C0
3CC0
37C0
2380
0000
0000
0000
C070
C070
C070
C070
C070
C070
C070
C070
C070
C070
E070
E070
70F0
7FF0
3F70
ENDCHAR
STARTCHAR 016A
ENCODING 362
SWIDTH 648 0
DWIDTH 18 0
BBX 14 25 2 0
BITMAP
0FE0
0FE0
0000
0000
0000
E00C
E00C
E00C
E00C
E00C
E00C
E00C
E00C
E00C
E00C
E00C
E00C
E00C
E00C
E00C
601C
701C
7838
3FF0
1FE0
ENDCHAR
STARTCHAR 016B
ENCODING 363
SWIDTH 576 0
DWIDTH 16 0
BBX 12 21 2 0
BITMAP
3FC0
3FC0
0000
0000
0000
0000
C070
C070
C070
C070
C070
C070
C070
C070
C070
C070
E070
E070
70F0
7FF0
3F70
ENDCHAR
STARTCHAR 016C
ENCODING 364
SWIDTH 648 0
DWIDTH 18 0
BBX 14 26 2 0
BITMAP
1860
0EE0
0FC0
0000
0000
0000
E00C
E00C
E00C
E00C
E00C
E00C
E00C
E00C
E00C
E00C
E00C
E00C
E00C
E00C
E00C
601C
701C
7838
3FF0
1FE0
ENDCHAR
STARTCHAR 016D
ENCODING 365
SWIDTH 576 0
DWIDTH 16 0
BBX 12 22 2 0
BITMAP
30C0
3080
1F80
0F00
0000
0000
0000
C070
C070
C070
C070
C070
C070
C070
C070
C070
C070
E070
E070
70F0
7FF0
3F70
ENDCHAR
STARTCHAR 016E
ENCODING 366
SWIDTH 648 0
DWIDTH 18 0
BBX 14 26 2 0
BITMAP
0100
07C0
0CC0
0860
0860
0C40
E7CC
E38C
E00C
E00C
E00C
E00C
E00C
E00C
E00C
E00C
E00C
E00C
E00C
E00C
E00C
601C
701C
7838
3FF0
1FE0
ENDCHAR
STARTCHAR 016F
ENCODING 367
SWIDTH 576 0
DWIDTH 16 0
BBX 12 24 2 0
BITMAP
0400
1F00
1980
3080
3080
1180
1F00
0E00
0000
C070
C070
C070
C070
C070
C070
C070
C070
C070
C070
E070
E070
70F0
7FF0
3F70
ENDCHAR
STARTCHAR 0170
ENCODING 368
SWIDTH 648 0
DWIDTH 18 0
BBX 14 26 2 0
BITMAP
0330
0670
0660
0CC0
0000
0000
E00C
E00C
E00C
E00C
E00C
E00C
E00C
E00C
E00C
E00C
E00C
E00C
E00C
E00C
E00C
601C
701C
7838
3FF0
1FE0
ENDCHAR
STARTCHAR 0171
ENCODING 369
SWIDTH 576 0
DWIDTH 16 0
BBX 12 22 2 0
BITMAP
0660
0660
0CC0
0880
1980
0000
0000
C070
C070
C070
C070
C070
C070
C070
C070
C070
C070
E070
E070
70F0
7FF0
3F70
ENDCHAR
STARTCHAR 0172
ENCODING 370
SWIDTH 648 0
DWIDTH 18 0
BBX 14 25 2 -5
BITMAP
E00C
E00C
E00C
E00C
E00C
E00C
E00C
E00C
E00C
E00C
E00C
E00C
E00C
E00C
E00C
601C
701C
7838
3FF0
1FE0
0300
0600
0600
0740
03C0
ENDCHAR
STARTCHAR 0173
ENCODING 371
SWIDTH 576 0
DWIDTH 16 0
BBX 13 20 2 -4
BITMAP
C070
C070
C070
C070
C070
C070
C070
C070
C070
C070
E070
E070
70F0
7FF0
3F70
0020
0060
0060
0060
0078
ENDCHAR
STARTCHAR 0174
ENCODING 372
SWIDTH 900 0
DWIDTH 25 0
BBX 23 26 1 0
BITMAP
003800
006C00
004C00
00C600
000000
000000
E0380E
E0380E
E0680C
606C0C
606C1C
706C1C
706C1C
30C618
30C618
38C638
38C638
198330
198330
198370
1D8370
1F8370
0F01E0
0F01E0
0F01E0
0F01E0
ENDCHAR
STARTCHAR 0175
ENCODING 373
SWIDTH 756 0
DWIDTH 21 0
BBX 18 22 1 0
BITMAP
00E000
01E000
01B000
031800
021800
000000
000000
E0E0C0
E0E0C0
61E0C0
61B1C0
61B180
71B180
333180
333380
331B00
3B1B00
1E1B00
1E1F00
1E0F00
1E0E00
0C0E00
ENDCHAR
STARTCHAR 0176
ENCODING 374
SWIDTH 540 0
DWIDTH 15 0
BBX 15 26 0 0
BITMAP
0380
03C0
0660
0C20
0000
0000
E00E
700C
301C
3838
1C30
0C70
0E60
06E0
07C0
0380
0380
0380
0380
0380
0380
0380
0380
0380
0380
0380
ENDCHAR
STARTCHAR 0177
ENCODING 375
SWIDTH 540 0
DWIDTH 15 0
BBX 13 28 1 -6
BITMAP
0700
0D00
0D80
18C0
10C0
0000
0000
C038
E038
6030
7070
3060
3060
38E0
18C0
18C0
1DC0
0D80
0D80
0F80
0700
0700
0600
0600
0E00
1C00
7C00
7000
ENDCHAR
STARTCHAR 0178
ENCODING 376
SWIDTH 540 0
DWIDTH 15 0
BBX 15 25 0 0
BITMAP
0E60
0E60
0000
0000
0000
E00E
700C
301C
3838
1C30
0C70
0E60
06E0
07C0
0380
0380
0380
0380
0380
0380
0380
0380
0380
0380
0380
ENDCHAR
STARTCHAR 0179
ENCODING 377
SWIDTH 612 0
DWIDTH 17 0
BBX 15 26 1 0
BITMAP
00C0
0180
0300
0200
0000
0000
FFFE
FFFE
001C
001C
0038
0070
00E0
00E0
01C0
0380
0700
0700
0E00
1C00
1C00
3800
7000
E000
FFFE
FFFE
ENDCHAR
STARTCHAR 017A
ENCODING 378
SWIDTH 468 0
DWIDTH 13 0
BBX 11 22 1 0
BITMAP
01C0
0180
0300
0600
0400
0000
0000
FFE0
FFE0
00E0
01C0
0380
0300
0700
0E00
1C00
1800
3800
7000
E000
FFE0
FFE0
ENDCHAR
STARTCHAR 017B
ENCODING 379
SWIDTH 612 0
DWIDTH 17 0
BBX 15 26 1 0
BITMAP
0380
0380
0380
0000
0000
0000
FFFE
FFFE
001C
001C
0038
0070
00E0
00E0
01C0
0380
0700
0700
0E00
1C00
1C00
3800
7000
E000
FFFE
FFFE
ENDCHAR
STARTCHAR 017C
ENCODING 380
SWIDTH 468 0
DWIDTH 13 0
BBX 11 21 1 0
BITMAP
0E00
0E00
0E00
0000
0000
0000
FFE0
FFE0
00E0
01C0
0380
0300
0700
0E00
1C00
1800
3800
7000
E000
FFE0
FFE0
ENDCHAR
STARTCHAR 017D
ENCODING 381
SWIDTH 612 0
DWIDTH 17 0
BBX 15 26 1 0
BITMAP
0C60
0640
03C0
0380
0000
0000
FFFE
FFFE
001C
001C
0038
0070
00E0
00E0
01C0
0380
0700
0700
0E00
1C00
1C00
3800
7000
E000
FFFE
FFFE
ENDCHAR
STARTCHAR 017E
ENCODING 382
SWIDTH 468 0
DWIDTH 13 0
BBX 11 22 1 0
BITMAP
3180
1900
1B00
0E00
0600
0000
0000
FFE0
FFE0
00E0
01C0
0380
0300
0700
0E00
1C00
1800
3800
7000
E000
FFE0
FFE0
ENDCHAR
STARTCHAR 017F
ENCODING 383
SWIDTH 324 0
DWIDTH 9 0
BBX 8 21 1 0
BITMAP
1F
3F
30
30
30
30
F0
F0
30
30
30
30
30
30
30
30
30
30
30
30
30
ENDCHAR
STARTCHAR 0180
ENCODING 384
SWIDTH 576 0
DWIDTH 16 0
BBX 15 21 0 0
BITMAP
3800
3800
FF80
3800
3800
38C0
3BF0
3F78
3C1C
380C
380C
380C
380E
380E
380E
380C
380C
381C
3C18
3FF8
3BF0
ENDCHAR
STARTCHAR 0181
ENCODING 385
SWIDTH 684 0
DWIDTH 19 0
BBX 18 20 -1 0
BITMAP
7FFE00
FFFF00
C60780
C60380
C60380
060380
060380
060700
07FE00
07FE00
060700
060380
0601C0
0601C0
0601C0
0601C0
060380
060780
07FF00
07FC00
ENDCHAR
STARTCHAR 0182
ENCODING 386
SWIDTH 612 0
DWIDTH 17 0
BBX 13 20 2 0
BITMAP
FFF0
FFF0
E000
E000
E000
E000
E000
E000
FFC0
FFF0
E078
E038
E018
E018
E018
E018
E038
E078
FFF0
FFC0
ENDCHAR
STARTCHAR 0183
ENCODING 387
SWIDTH 576 0
DWIDTH 16 0
BBX 13 21 2 0
BITMAP
FFE0
FFE0
E000
E000
E000
E300
EFC0
FDE0
F070
E030
E030
E030
E038
E038
E038
E030
E030
E070
F060
FFE0
EFC0
ENDCHAR
STARTCHAR 0184
ENCODING 388
SWIDTH 612 0
DWIDTH 17 0
BBX 15 20 0 0
BITMAP
1800
3800
3800
7800
F800
3800
3800
3800
3FF0
3FFC
381E
380E
3806
3806
3806
3806
380E
381E
3FFC
3FF0
ENDCHAR
STARTCHAR 0185
ENCODING 389
SWIDTH 576 0
DWIDTH 16 0
BBX 15 21 0 0
BITMAP
1800
1800
3800
7800
7800
F9C0
3BF0
3F78
3C1C
380C
380C
380C
380E
380E
380E
380C
380C
381C
3C18
3FF8
3BF0
ENDCHAR
STARTCHAR 0186
ENCODING 390
SWIDTH 648 0
DWIDTH 18 0
BBX 15 21 1 0
BITMAP
0F80
7FE0
FFF0
C038
801C
001C
000E
000E
000E
0006
0006
0006
0006
000E
000E
000E
001C
803C
E078
7FF0
3FC0
ENDCHAR
STARTCHAR 0187
ENCODING 391
SWIDTH 648 0
DWIDTH 18 0
BBX 19 26 1 0
BITMAP
0000E0
0003E0
0003C0
000700
000600
01E600
07FE00
1FBE00
3C0600
380200
700000
700000
600000
600000
E00000
E00000
E00000
E00000
600000
600000
700000
700000
380200
1E0E00
0FFE00
07F800
ENDCHAR
STARTCHAR 0188
ENCODING 392
SWIDTH 504 0
DWIDTH 14 0
BBX 14 21 1 0
BITMAP
001C
003C
0070
0060
0060
03E0
1FE0
3EE0
7000
7000
6000
E000
E000
E000
E000
6000
6000
7000
3800
3FE0
0FE0
ENDCHAR
STARTCHAR 0189
ENCODING 393
SWIDTH 720 0
DWIDTH 20 0
BBX 18 20 0 0
BITMAP
1FF800
1FFE00
180F00
180780
180380
180180
1801C0
1801C0
FF81C0
FF81C0
1801C0
1801C0
1801C0
1801C0
180180
180380
180700
183F00
1FFC00
1FF000
ENDCHAR
STARTCHAR 018A
ENCODING 394
SWIDTH 756 0
DWIDTH 21 0
BBX 20 20 -1 0
BITMAP
7FFE00
FFFF80
C603C0
C601E0
C600E0
060070
060070
060070
060070
060030
060030
060070
060070
060070
060060
0600E0
0601C0
060FC0
07FF00
07FC00
ENDCHAR
STARTCHAR 018B
ENCODING 395
SWIDTH 612 0
DWIDTH 17 0
BBX 14 20 2 0
BITMAP
1FFC
1FFC
001C
001C
001C
001C
001C
001C
0FFC
3FFC
781C
701C
601C
E01C
E01C
601C
701C
781C
3FFC
0FFC
ENDCHAR
STARTCHAR 018C
ENCODING 396
SWIDTH 576 0
DWIDTH 16 0
BBX 13 21 1 0
BITMAP
3FF8
3FF8
0038
0038
0038
0738
1FB8
3DF8
7078
6038
6038
E038
E038
E038
E038
6038
6038
7038
3078
3FF8
1FB8
ENDCHAR
STARTCHAR 018D
ENCODING 397
SWIDTH 540 0
DWIDTH 15 0
BBX 13 21 1 -6
BITMAP
0FC0
3FE0
3870
7030
6038
6038
E018
E018
E018
6038
6038
7030
3860
3FE0
0FC0
01E0
0070
0070
30E0
3FE0
0F80
ENDCHAR
STARTCHAR 018E
ENCODING 398
SWIDTH 576 0
DWIDTH 16 0
BBX 11 20 2 0
BITMAP
FFE0
FFE0
0060
0060
0060
0060
0060
0060
FFE0
FFE0
0060
0060
0060
0060
0060
0060
0060
0060
FFE0
FFE0
ENDCHAR
STARTCHAR 018F
ENCODING 399
SWIDTH 720 0
DWIDTH 20 0
BBX 17 21 1 0
BITMAP
03E000
1FF800
3FFE00
300E00
200700
000300
000380
000380
000180
000180
FFFF80
FFFF80
7FFF80
600180
600380
700380
300700
380700
1C1E00
0FFC00
07F800
ENDCHAR
STARTCHAR 0190
ENCODING 400
SWIDTH 540 0
DWIDTH 15 0
BBX 12 21 2 0
BITMAP
0780
3FF0
7FF0
7010
6000
E000
6000
6000
7000
1F80
1F80
7800
6000
E000
E000
C000
E000
E000
7030
3FF0
1FF0
ENDCHAR
STARTCHAR 0191
ENCODING 401
SWIDTH 540 0
DWIDTH 15 0
BBX 14 26 -1 -6
BITMAP
1FFC
1FFC
1C00
1C00
1C00
1C00
1C00
1C00
1FF8
1FF8
1C00
1C00
1C00
1C00
1C00
1C00
1C00
1C00
1C00
1C00
1C00
1C00
1800
F800
F000
8000
ENDCHAR
STARTCHAR 0192
ENCODING 402
SWIDTH 324 0
DWIDTH 9 0
BBX 11 27 -2 -6
BITMAP
03E0
07E0
0600
0600
0600
0600
1FE0
1FE0
0600
0600
0600
0600
0600
0600
0600
0600
0600
0600
0600
0600
0600
0600
0600
0600
0E00
FC00
F800
ENDCHAR
STARTCHAR 0193
ENCODING 403
SWIDTH 720 0
DWIDTH 20 0
BBX 20 26 1 0
BITMAP
000070
0001F0
0003E0
000380
000300
01F300
07FF00
1FFF00
3C0300
380100
700000
700000
600000
600000
E00000
E03F00
E03F00
E03F00
600300
600300
700300
700300
380300
1E0700
0FFF00
07FC00
ENDCHAR
STARTCHAR 0194
ENCODING 404
SWIDTH 612 0
DWIDTH 17 0
BBX 16 26 1 -6
BITMAP
C007
E006
600E
700C
301C
3818
3838
1C30
1C70
0E60
0EE0
07C0
07C0
0380
0380
03C0
07C0
07C0
0EE0
0E60
0C60
0C70
0C70
0FF0
0FE0
03C0
ENDCHAR
STARTCHAR 0195
ENCODING 405
SWIDTH 900 0
DWIDTH 25 0
BBX 21 21 2 0
BITMAP
E00000
E00000
E00000
E00000
E00000
E30000
EFC1C0
FFE1E0
F06070
E07030
E07038
E03038
E03018
E03018
E03018
E03038
E03038
E03030
E038F0
E03FE0
E00F80
ENDCHAR
STARTCHAR 0196
ENCODING 406
SWIDTH 324 0
DWIDTH 9 0
BBX 7 20 2 0
BITMAP
E0
E0
E0
E0
E0
E0
E0
E0
E0
E0
E0
E0
E0
E0
60
60
70
78
3E
1E
ENDCHAR
STARTCHAR 0197
ENCODING 407
SWIDTH 252 0
DWIDTH 7 0
BBX 7 20 0 0
BITMAP
38
38
38
38
38
38
38
38
38
38
FE
FE
38
38
38
38
38
38
38
38
ENDCHAR
STARTCHAR 0198
ENCODING 408
SWIDTH 684 0
DWIDTH 19 0
BBX 17 21 2 0
BITMAP
000C00
E03F00
E07F00
E0F380
E1E180
E1C180
E38000
E70000
EE0000
FC0000
FC0000
FE0000
EE0000
E70000
E38000
E1C000
E0E000
E07000
E03800
E03C00
E01E00
ENDCHAR
STARTCHAR 0199
ENCODING 409
SWIDTH 540 0
DWIDTH 15 0
BBX 12 21 2 0
BITMAP
3E00
7E00
6000
E000
E000
E000
E0F0
E1C0
E380
E700
EE00
FC00
F800
FC00
FC00
EE00
E700
E380
E1C0
E0E0
E070
ENDCHAR
STARTCHAR 019A
ENCODING 410
SWIDTH 252 0
DWIDTH 7 0
BBX 7 21 0 0
BITMAP
38
38
38
38
38
38
38
38
38
FE
FE
38
38
38
38
38
38
38
38
38
38
ENDCHAR
STARTCHAR 019B
ENCODING 411
SWIDTH 540 0
DWIDTH 15 0
BBX 13 21 1 0
BITMAP
0C20
0FE0
0F00
3E00
6700
0300
0300
0780
0780
0F80
0FC0
0CC0
1CC0
18E0
3860
3060
3070
7030
6030
E038
C018
ENDCHAR
STARTCHAR 019C
ENCODING 412
SWIDTH 900 0
DWIDTH 25 0
BBX 21 20 2 0
BITMAP
E07038
E07038
E07038
E07038
E07038
E07038
E07038
E07038
E07038
E07038
E07038
E07038
E07038
E07038
E07038
E07038
E0F078
71B8F8
7FBFB8
3F1F38
ENDCHAR
STARTCHAR 019D
ENCODING 413
SWIDTH 684 0
DWIDTH 19 0
BBX 17 26 -1 -6
BITMAP
1E0180
1F0180
1F0180
1F8180
1D8180
1DC180
1CC180
1CE180
1C6180
1C7180
1C3180
1C3980
1C3980
1C1980
1C1D80
1C0D80
1C0F80
1C0780
1C0780
1C0380
1C0000
1C0000
180000
F80000
F00000
800000
ENDCHAR
STARTCHAR 019E
ENCODING 414
SWIDTH 576 0
DWIDTH 16 0
BBX 12 22 2 -6
BITMAP
0300
EFC0
FFE0
F060
E070
E070
E030
E030
E030
E030
E030
E030
E030
E030
E030
E030
0030
0030
0030
0030
0030
0030
ENDCHAR
STARTCHAR 019F
ENCODING 415
SWIDTH 720 0
DWIDTH 20 0
BBX 17 21 1 0
BITMAP
01E000
0FF800
1FFE00
3C0E00
380700
700300
700380
600380
600180
FFFF80
FFFF80
E00180
E00180
600180
600380
700380
700700
380700
1C0E00
0FFC00
07F800
ENDCHAR
STARTCHAR 01A0
ENCODING 416
SWIDTH 828 0
DWIDTH 23 0
BBX 18 21 1 0
BITMAP
01E040
0FF840
1F7C40
3C0FC0
380780
700300
700380
600380
E00380
E00180
E00180
E00180
E00180
E00380
600380
700380
700700
380700
1C1E00
1FFC00
07F800
ENDCHAR
STARTCHAR 01A1
ENCODING 417
SWIDTH 540 0
DWIDTH 15 0
BBX 14 17 1 0
BITMAP
000C
0704
1FC4
3FFC
7078
7038
6038
6018
E018
E018
E018
6038
6038
7030
3870
3FE0
1FC0
ENDCHAR
STARTCHAR 01A2
ENCODING 418
SWIDTH 864 0
DWIDTH 24 0
BBX 20 21 1 0
BITMAP
01E000
0FFFC0
1FFFE0
3C0670
380630
700630
700630
600630
600630
E00630
E00630
E00630
E00630
600630
600630
700630
700630
380630
1C0E30
0FFC30
07F830
ENDCHAR
STARTCHAR 01A3
ENCODING 419
SWIDTH 684 0
DWIDTH 19 0
BBX 16 22 1 -6
BITMAP
0700
1FFC
3FFE
7067
7067
6063
E063
E063
E063
E063
6063
6063
7063
3863
3FE3
1FC3
0003
0003
0003
0003
0003
0003
ENDCHAR
STARTCHAR 01A4
ENCODING 420
SWIDTH 576 0
DWIDTH 16 0
BBX 17 20 -1 0
BITMAP
7FFC00
FFFE00
C60700
C60700
C60300
060380
060380
060300
060700
061F00
07FE00
07F000
060000
060000
060000
060000
060000
060000
060000
060000
ENDCHAR
STARTCHAR 01A5
ENCODING 421
SWIDTH 576 0
DWIDTH 16 0
BBX 13 27 2 -6
BITMAP
3F00
7F00
6000
E000
E000
E700
EFC0
FDE0
F070
E030
E030
E030
E038
E038
E038
E030
E030
E070
F060
FFE0
EFC0
E000
E000
E000
E000
E000
E000
ENDCHAR
STARTCHAR 01A6
ENCODING 422
SWIDTH 648 0
DWIDTH 18 0
BBX 15 24 2 -4
BITMAP
E000
E000
E000
FF00
FFE0
E3E0
E070
E070
E030
E030
E030
E070
E0E0
FFC0
FFC0
E0E0
E070
E070
E030
E038
0018
001C
000C
000E
ENDCHAR
STARTCHAR 01A7
ENCODING 423
SWIDTH 576 0
DWIDTH 16 0
BBX 13 21 1 0
BITMAP
0F80
3FE0
3DF0
0038
0018
0018
0018
0038
0078
07F0
1FE0
3F80
7800
7000
E000
E000
E000
6000
7818
3FF8
1FF0
ENDCHAR
STARTCHAR 01A8
ENCODING 424
SWIDTH 468 0
DWIDTH 13 0
BBX 11 16 1 0
BITMAP
1E00
7F80
7BC0
00C0
00E0
00E0
01C0
0FC0
3F80
7800
E000
E000
E000
6060
7FE0
3FE0
ENDCHAR
STARTCHAR 01A9
ENCODING 425
SWIDTH 576 0
DWIDTH 16 0
BBX 12 20 2 0
BITMAP
FFF0
FFF0
7000
3800
1800
1C00
0E00
0700
0380
0380
0700
0700
0E00
1C00
1C00
3800
7000
6000
FFF0
FFF0
ENDCHAR
STARTCHAR 01AA
ENCODING 426
SWIDTH 288 0
DWIDTH 8 0
BBX 12 27 -3 -6
BITMAP
7C00
FE00
C600
FFC0
FFC0
1FC0
0700
0700
0700
0700
0700
0700
0700
0700
0700
0700
0700
0700
0700
0700
0700
0700
0700
0700
0380
03F0
00F0
ENDCHAR
STARTCHAR 01AB
ENCODING 427
SWIDTH 360 0
DWIDTH 10 0
BBX 8 26 1 -6
BITMAP
70
70
70
70
70
FF
FF
70
70
70
70
70
70
70
70
70
70
30
3F
1F
03
03
03
07
1E
1C
ENDCHAR
STARTCHAR 01AC
ENCODING 428
SWIDTH 540 0
DWIDTH 15 0
BBX 15 20 0 0
BITMAP
3FFE
7FFE
E380
C380
C380
0380
0380
0380
0380
0380
0380
0380
0380
0380
0380
0380
0380
0380
0380
0380
ENDCHAR
STARTCHAR 01AD
ENCODING 429
SWIDTH 360 0
DWIDTH 10 0
BBX 8 21 1 0
BITMAP
1F
3F
30
70
70
70
FF
FF
70
70
70
70
70
70
70
70
70
70
30
3F
1F
ENDCHAR
STARTCHAR 01AE
ENCODING 430
SWIDTH 540 0
DWIDTH 15 0
BBX 15 26 0 -6
BITMAP
FFFE
FFFE
0380
0380
0380
0380
0380
0380
0380
0380
0380
0380
0380
0380
0380
0380
0380
0380
0380
0380
0180
0180
01C0
01F8
00F8
0018
ENDCHAR
STARTCHAR 01AF
ENCODING 431
SWIDTH 792 0
DWIDTH 22 0
BBX 18 21 2 0
BITMAP
0000C0
E00C40
E00CC0
E00FC0
E00F80
E00C00
E00C00
E00C00
E00C00
E00C00
E00C00
E00C00
E00C00
E00C00
E00C00
E01C00
E01C00
701C00
783800
3FF000
1FE000
ENDCHAR
STARTCHAR 01B0
ENCODING 432
SWIDTH 576 0
DWIDTH 16 0
BBX 15 17 2 0
BITMAP
0006
0002
C076
C07E
C07C
C070
C070
C070
C070
C070
C070
C070
E070
E070
70F0
7FF0
3F70
ENDCHAR
STARTCHAR 01B1
ENCODING 433
SWIDTH 684 0
DWIDTH 19 0
BBX 17 20 1 0
BITMAP
FE3F80
FE3F80
0E3C00
1C0E00
380E00
700700
700300
600380
E00380
E00380
E00180
E00380
E00380
E00380
600380
700700
380F00
3C1E00
1FFC00
07F000
ENDCHAR
STARTCHAR 01B2
ENCODING 434
SWIDTH 648 0
DWIDTH 18 0
BBX 15 20 2 0
BITMAP
E000
E000
E070
E038
E018
E01C
E00C
E00E
E00E
E006
E006
E006
E00E
E00E
E00E
601C
601C
7078
3FF0
1FE0
ENDCHAR
STARTCHAR 01B3
ENCODING 435
SWIDTH 684 0
DWIDTH 19 0
BBX 19 21 0 0
BITMAP
000300
E00FC0
700FC0
301CE0
383860
1C3060
0C7000
0E6000
06E000
07C000
038000
038000
038000
038000
038000
038000
038000
038000
038000
038000
038000
ENDCHAR
STARTCHAR 01B4
ENCODING 436
SWIDTH 648 0
DWIDTH 18 0
BBX 17 22 1 -6
BITMAP
000400
C01F00
E03F80
603180
707180
306180
306000
38E000
18C000
18C000
1DC000
0D8000
0D8000
0F8000
070000
070000
060000
060000
0E0000
1C0000
7C0000
700000
ENDCHAR
STARTCHAR 01B5
ENCODING 437
SWIDTH 612 0
DWIDTH 17 0
BBX 15 20 1 0
BITMAP
FFFE
FFFE
001C
001C
0038
0070
00E0
00E0
3FF8
3FF8
0700
0700
0E00
1C00
1C00
3800
7000
E000
FFFE
FFFE
ENDCHAR
STARTCHAR 01B6
ENCODING 438
SWIDTH 468 0
DWIDTH 13 0
BBX 11 15 1 0
BITMAP
FFE0
FFE0
00E0
01C0
0380
0300
7FC0
7FC0
1C00
1800
3800
7000
E000
FFE0
FFE0
ENDCHAR
STARTCHAR 01B7
ENCODING 439
SWIDTH 612 0
DWIDTH 17 0
BBX 14 21 2 -1
BITMAP
FFF8
FFF8
0070
00E0
00C0
01C0
0380
0300
0700
07E0
07F0
0038
0018
001C
001C
001C
0018
8038
FDF0
FFE0
1F80
ENDCHAR
STARTCHAR 01B8
ENCODING 440
SWIDTH 612 0
DWIDTH 17 0
BBX 14 21 1 -1
BITMAP
7FFC
7FFC
3800
1800
1C00
0E00
0700
0300
0380
1F80
3F80
7000
E000
E000
E000
E000
E000
7004
7EFC
3FFC
07E0
ENDCHAR
STARTCHAR 01B9
ENCODING 441
SWIDTH 540 0
DWIDTH 15 0
BBX 12 21 1 -6
BITMAP
7FF0
7FF0
3800
1800
1C00
0E00
0700
0300
0380
1F80
3F80
7000
6000
E000
E000
E000
E000
7000
7C70
3FF0
0FE0
ENDCHAR
STARTCHAR 01BA
ENCODING 442
SWIDTH 468 0
DWIDTH 13 0
BBX 11 21 1 -6
BITMAP
FFE0
FFE0
00E0
01C0
0380
0300
0700
0E00
1FC0
03E0
0060
0060
00E0
1FC0
3F00
7000
6000
6000
7860
3FE0
0F80
ENDCHAR
STARTCHAR 01BB
ENCODING 443
SWIDTH 576 0
DWIDTH 16 0
BBX 12 21 2 0
BITMAP
1E00
FF80
FFC0
C0E0
0060
0060
0060
0060
00E0
00C0
01C0
7FE0
7FE0
0E00
0E00
1C00
3800
7000
E000
FFF0
FFF0
ENDCHAR
STARTCHAR 01BC
ENCODING 444
SWIDTH 612 0
DWIDTH 17 0
BBX 15 21 1 -1
BITMAP
7FF8
7FF8
7000
7000
7000
7000
7000
7000
7F80
7FF0
7FF8
001C
000C
000E
000E
E00E
E00C
701C
7EF8
3FF0
07C0
ENDCHAR
STARTCHAR 01BD
ENCODING 445
SWIDTH 540 0
DWIDTH 15 0
BBX 12 21 1 -6
BITMAP
7FE0
7FE0
7000
7000
7000
7000
7000
7000
7C00
7FC0
7FE0
00E0
0070
0030
0030
0030
0030
8070
F3E0
FFC0
3F00
ENDCHAR
STARTCHAR 01BE
ENCODING 446
SWIDTH 468 0
DWIDTH 13 0
BBX 10 20 1 0
BITMAP
1C00
1C00
1C00
1C00
FF80
FF80
1C00
1C00
1E00
1F80
0380
01C0
00C0
00C0
00C0
00C0
01C0
81C0
FF80
FF00
ENDCHAR
STARTCHAR 01BF
ENCODING 447
SWIDTH 576 0
DWIDTH 16 0
BBX 13 22 2 -6
BITMAP
0380
EFE0
FFF0
F870
F038
E038
E038
E030
E030
E060
E0E0
E1C0
E380
E700
FE00
FC00
F000
E000
E000
E000
E000
E000
ENDCHAR
STARTCHAR 01C0
ENCODING 448
SWIDTH 252 0
DWIDTH 7 0
BBX 3 26 2 -6
BITMAP
E0
E0
E0
E0
E0
E0
E0
E0
E0
E0
E0
E0
E0
E0
E0
E0
E0
E0
E0
E0
E0
E0
E0
E0
E0
E0
ENDCHAR
STARTCHAR 01C1
ENCODING 449
SWIDTH 432 0
DWIDTH 12 0
BBX 8 26 2 -6
BITMAP
E7
E7
E7
E7
E7
E7
E7
E7
E7
E7
E7
E7
E7
E7
E7
E7
E7
E7
E7
E7
E7
E7
E7
E7
E7
E7
ENDCHAR
STARTCHAR 01C2
ENCODING 450
SWIDTH 432 0
DWIDTH 12 0
BBX 11 26 0 -6
BITMAP
0600
0600
0600
0600
0600
0600
0600
0600
FFE0
FFE0
0600
0600
0600
0600
FFE0
FFE0
0600
0600
0600
0600
0600
0600
0600
0600
0600
0600
ENDCHAR
STARTCHAR 01C3
ENCODING 451
SWIDTH 252 0
DWIDTH 7 0
BBX 3 20 2 0
BITMAP
E0
E0
E0
E0
E0
E0
E0
E0
E0
60
60
60
60
00
00
00
00
E0
E0
E0
ENDCHAR
STARTCHAR 01C4
ENCODING 452
SWIDTH 1296 0
DWIDTH 36 0
BBX 32 26 2 0
BITMAP
00000630
00000360
000001E0
000001C0
00000000
00000000
FFE07FFF
FFF87FFF
E03C000E
E01E001C
E00E001C
E0060038
E0070070
E0070070
E00700E0
E00701C0
E0070380
E0070380
E0070700
E0070E00
E00E0C00
E00E1C00
E01C3800
E0F87000
FFF07FFF
FFC07FFF
ENDCHAR
STARTCHAR 01C5
ENCODING 453
SWIDTH 1188 0
DWIDTH 33 0
BBX 29 22 2 0
BITMAP
00000840
00000CC0
FFE00780
FFF80780
E03C0300
E01E0000
E00E0000
E0063FF8
E0073FF8
E0070070
E0070060
E00700E0
E00701C0
E0070380
E0070700
E0070600
E00E0E00
E00E1C00
E01C3800
E0F83000
FFF07FF8
FFC07FF8
ENDCHAR
STARTCHAR 01C6
ENCODING 454
SWIDTH 1044 0
DWIDTH 29 0
BBX 26 22 1 0
BITMAP
00006300
00383600
00383600
00381C00
00381C00
00380000
07380000
1FB9FFC0
3DF9FFC0
707801C0
60380380
60380700
E0380E00
E0380C00
E0381C00
E0383800
60387000
60386000
7038E000
3079C000
3FF9FFC0
1FB9FFC0
ENDCHAR
STARTCHAR 01C7
ENCODING 455
SWIDTH 756 0
DWIDTH 21 0
BBX 17 26 2 -6
BITMAP
E00180
E00180
E00180
E00180
E00180
E00180
E00180
E00180
E00180
E00180
E00180
E00180
E00180
E00180
E00180
E00180
E00180
E00180
FFF180
FFF180
000180
000380
000380
001F00
001F00
001800
ENDCHAR
STARTCHAR 01C8
ENCODING 456
SWIDTH 720 0
DWIDTH 20 0
BBX 16 27 2 -6
BITMAP
0003
E003
E003
E000
E000
E000
E003
E003
E003
E003
E003
E003
E003
E003
E003
E003
E003
E003
E003
FFF3
FFF3
0003
0003
0003
0007
001F
001C
ENDCHAR
STARTCHAR 01C9
ENCODING 457
SWIDTH 432 0
DWIDTH 12 0
BBX 7 27 2 -6
BITMAP
E6
E6
E6
E0
E0
E0
E6
E6
E6
E6
E6
E6
E6
E6
E6
E6
E6
E6
E6
E6
E6
06
06
06
0E
3C
38
ENDCHAR
STARTCHAR 01CA
ENCODING 458
SWIDTH 828 0
DWIDTH 23 0
BBX 20 26 2 -6
BITMAP
F00C70
F80C70
F80C70
FC0C70
EC0C70
EE0C70
E60C70
E70C70
E30C70
E38C70
E38C70
E1CC70
E1CC70
E0CC70
E0EC70
E06C70
E07C70
E03C70
E03C70
E01C70
000070
000070
0000E0
0003E0
0003C0
000200
ENDCHAR
STARTCHAR 01CB
ENCODING 459
SWIDTH 828 0
DWIDTH 23 0
BBX 19 27 2 -6
BITMAP
000060
F00C60
F80C60
F80C00
FC0C00
EC0C00
EE0C60
E60C60
E70C60
E30C60
E38C60
E38C60
E1CC60
E1CC60
E0CC60
E0EC60
E06C60
E07C60
E03C60
E03C60
E01C60
000060
000060
000060
0000E0
0003C0
000380
ENDCHAR
STARTCHAR 01CC
ENCODING 460
SWIDTH 720 0
DWIDTH 20 0
BBX 16 27 2 -6
BITMAP
0003
0003
0003
0000
0000
0300
EFC3
FFE3
F063
E073
E073
E033
E033
E033
E033
E033
E033
E033
E033
E033
E033
0003
0003
0003
0007
001F
001C
ENDCHAR
STARTCHAR 01CD
ENCODING 461
SWIDTH 612 0
DWIDTH 17 0
BBX 17 26 0 0
BITMAP
063000
032000
01E000
01C000
000000
000000
01C000
01E000
03E000
036000
037000
073000
063000
0E3800
0E1800
0C1800
1C1C00
1C0C00
1FFC00
3FFE00
3FFE00
300600
700700
700300
600380
E00380
ENDCHAR
STARTCHAR 01CE
ENCODING 462
SWIDTH 540 0
DWIDTH 15 0
BBX 11 22 2 0
BITMAP
3180
1300
1B00
0E00
0C00
0000
0C00
7F80
7FC0
00E0
0060
0060
0FE0
7FE0
F060
C060
C060
C0E0
C0E0
E1E0
FF60
7E60
ENDCHAR
STARTCHAR 01CF
ENCODING 463
SWIDTH 252 0
DWIDTH 7 0
BBX 7 26 0 0
BITMAP
C6
66
3C
38
00
00
38
38
38
38
38
38
38
38
38
38
38
38
38
38
38
38
38
38
38
38
ENDCHAR
STARTCHAR 01D0
ENCODING 464
SWIDTH 252 0
DWIDTH 7 0
BBX 7 22 0 0
BITMAP
C6
6C
6C
38
38
00
00
38
38
38
38
38
38
38
38
38
38
38
38
38
38
38
ENDCHAR
STARTCHAR 01D1
ENCODING 465
SWIDTH 720 0
DWIDTH 20 0
BBX 17 26 1 0
BITMAP
061000
033000
01E000
00C000
000000
01E000
0FF800
1FFE00
3C0E00
380700
700300
700380
600380
600180
E00180
E00180
E00180
E00180
600180
600380
700380
700700
380700
1C0E00
0FFC00
07F800
ENDCHAR
STARTCHAR 01D2
ENCODING 466
SWIDTH 540 0
DWIDTH 15 0
BBX 13 22 1 0
BITMAP
18C0
0CC0
0580
0700
0300
0000
0700
1FC0
3FE0
7070
7030
6038
E038
E018
E018
E018
6038
6038
7030
3870
3FE0
1FC0
ENDCHAR
STARTCHAR 01D3
ENCODING 467
SWIDTH 648 0
DWIDTH 18 0
BBX 14 26 2 0
BITMAP
0C60
04C0
0780
0380
0000
0000
E00C
E00C
E00C
E00C
E00C
E00C
E00C
E00C
E00C
E00C
E00C
E00C
E00C
E00C
E00C
601C
701C
7838
3FF0
1FE0
ENDCHAR
STARTCHAR 01D4
ENCODING 468
SWIDTH 576 0
DWIDTH 16 0
BBX 12 22 2 0
BITMAP
3180
1980
0B00
0E00
0600
0000
0000
C070
C070
C070
C070
C070
C070
C070
C070
C070
C070
E070
E070
70F0
7FF0
3F70
ENDCHAR
STARTCHAR 01D5
ENCODING 469
SWIDTH 648 0
DWIDTH 18 0
BBX 14 29 2 0
BITMAP
0FE0
0FE0
0000
0000
0CE0
0CE0
0000
0000
0000
E00C
E00C
E00C
E00C
E00C
E00C
E00C
E00C
E00C
E00C
E00C
E00C
E00C
E00C
E00C
601C
701C
7838
3FF0
1FE0
ENDCHAR
STARTCHAR 01D6
ENCODING 470
SWIDTH 576 0
DWIDTH 16 0
BBX 12 25 2 0
BITMAP
3FC0
3FC0
0000
0000
3980
3980
3980
0000
0000
0000
C070
C070
C070
C070
C070
C070
C070
C070
C070
C070
E070
E070
70F0
7FF0
3F70
ENDCHAR
STARTCHAR 01D7
ENCODING 471
SWIDTH 648 0
DWIDTH 18 0
BBX 14 29 2 0
BITMAP
00E0
00C0
0180
0300
0CE0
0CE0
0000
0000
0000
E00C
E00C
E00C
E00C
E00C
E00C
E00C
E00C
E00C
E00C
E00C
E00C
E00C
E00C
E00C
601C
701C
7838
3FF0
1FE0
ENDCHAR
STARTCHAR 01D8
ENCODING 472
SWIDTH 576 0
DWIDTH 16 0
BBX 12 25 2 0
BITMAP
0180
0300
0300
0600
3980
3980
0000
0000
0000
0000
C070
C070
C070
C070
C070
C070
C070
C070
C070
C070
E070
E070
70F0
7FF0
3F70
ENDCHAR
STARTCHAR 01D9
ENCODING 473
SWIDTH 648 0
DWIDTH 18 0
BBX 14 29 2 0
BITMAP
0C60
0CC0
0780
0380
0CE0
0CE0
0000
0000
0000
E00C
E00C
E00C
E00C
E00C
E00C
E00C
E00C
E00C
E00C
E00C
E00C
E00C
E00C
E00C
601C
701C
7838
3FF0
1FE0
ENDCHAR
STARTCHAR 01DA
ENCODING 474
SWIDTH 576 0
DWIDTH 16 0
BBX 12 25 2 0
BITMAP
3080
1980
0F00
0600
39C0
39C0
0000
0000
0000
0000
C070
C070
C070
C070
C070
C070
C070
C070
C070
C070
E070
E070
70F0
7FF0
3F70
ENDCHAR
STARTCHAR 01DB
ENCODING 475
SWIDTH 648 0
DWIDTH 18 0
BBX 14 29 2 0
BITMAP
0C00
0600
0600
0300
0CE0
0CE0
0000
0000
0000
E00C
E00C
E00C
E00C
E00C
E00C
E00C
E00C
E00C
E00C
E00C
E00C
E00C
E00C
E00C
601C
701C
7838
3FF0
1FE0
ENDCHAR
STARTCHAR 01DC
ENCODING 476
SWIDTH 576 0
DWIDTH 16 0
BBX 12 25 2 0
BITMAP
3800
1800
0C00
0600
3980
3980
0000
0000
0000
0000
C070
C070
C070
C070
C070
C070
C070
C070
C070
C070
E070
E070
70F0
7FF0
3F70
ENDCHAR
STARTCHAR 01DD
ENCODING 477
SWIDTH 576 0
DWIDTH 16 0
BBX 13 16 1 0
BITMAP
0F00
7FC0
7FE0
4070
0038
0038
0018
0018
FFF8
FFF8
E018
6038
6030
7070
3FE0
1FC0
ENDCHAR
STARTCHAR 01DE
ENCODING 478
SWIDTH 612 0
DWIDTH 17 0
BBX 17 29 0 0
BITMAP
07F000
07F000
000000
000000
063000
063000
000000
000000
000000
01C000
01E000
03E000
036000
037000
073000
063000
0E3800
0E1800
0C1800
1C1C00
1C0C00
1FFC00
3FFE00
3FFE00
300600
700700
700300
600380
E00380
ENDCHAR
STARTCHAR 01DF
ENCODING 479
SWIDTH 540 0
DWIDTH 15 0
BBX 11 25 2 0
BITMAP
3F80
3F80
0000
0000
3380
3380
3380
0000
0000
0C00
7F80
7FC0
00E0
0060
0060
0FE0
7FE0
F060
C060
C060
C0E0
C0E0
E1E0
FF60
7E60
ENDCHAR
STARTCHAR 01E0
ENCODING 480
SWIDTH 612 0
DWIDTH 17 0
BBX 17 29 0 0
BITMAP
07F000
07F000
000000
01C000
01C000
01C000
000000
000000
000000
01C000
01E000
03E000
036000
037000
073000
063000
0E3800
0E1800
0C1800
1C1C00
1C0C00
1FFC00
3FFE00
3FFE00
300600
700700
700300
600380
E00380
ENDCHAR
STARTCHAR 01E1
ENCODING 481
SWIDTH 540 0
DWIDTH 15 0
BBX 11 25 2 0
BITMAP
3F80
3F80
0000
0E00
0E00
0E00
0000
0000
0000
0C00
7F80
7FC0
00E0
0060
0060
0FE0
7FE0
F060
C060
C060
C0E0
C0E0
E1E0
FF60
7E60
ENDCHAR
STARTCHAR 01E2
ENCODING 482
SWIDTH 900 0
DWIDTH 25 0
BBX 23 25 0 0
BITMAP
000FE0
000FE0
000000
000000
000000
01FFFE
01FFFE
019C00
039C00
031C00
031C00
071C00
061C00
0E1FFC
0E1FFC
0C1C00
1C1C00
1FFC00
1FFC00
3FFC00
301C00
701C00
701C00
601FFE
E01FFE
ENDCHAR
STARTCHAR 01E3
ENCODING 483
SWIDTH 900 0
DWIDTH 25 0
BBX 21 21 2 0
BITMAP
01FC00
01FC00
000000
000000
000000
0E0380
7F8FE0
7FFEF0
00F838
007018
006018
0FE018
7FFFF8
F07FF8
C06000
C06000
C0F000
C0F000
E1F808
FF9FF8
7F0FF0
ENDCHAR
STARTCHAR 01E4
ENCODING 484
SWIDTH 720 0
DWIDTH 20 0
BBX 18 21 1 0
BITMAP
01F000
07FE00
1FFF00
3C0300
380100
700000
700000
600000
600000
E00000
E03F00
E03F00
E03F00
600300
601FC0
701FC0
700300
380300
1E0700
0FFF00
07FC00
ENDCHAR
STARTCHAR 01E5
ENCODING 485
SWIDTH 576 0
DWIDTH 16 0
BBX 15 22 1 -6
BITMAP
0700
1FB8
3DF8
7078
6038
6038
E038
E038
E038
E038
6038
6038
7078
38F8
3FF8
0F38
0038
3FFE
0070
30E0
3FE0
0F00
ENDCHAR
STARTCHAR 01E6
ENCODING 486
SWIDTH 720 0
DWIDTH 20 0
BBX 16 26 1 0
BITMAP
0318
0130
01E0
00E0
0000
01F0
07FE
1FFF
3C03
3801
7000
7000
6000
6000
E000
E03F
E03F
E03F
6003
6003
7003
7003
3803
1E07
0FFF
07FC
ENDCHAR
STARTCHAR 01E7
ENCODING 487
SWIDTH 576 0
DWIDTH 16 0
BBX 13 28 1 -6
BITMAP
18C0
1980
0D00
0700
0600
0000
0700
1FB8
3DF8
7078
6038
6038
E038
E038
E038
E038
6038
6038
7078
38F8
3FF8
0F38
0038
0030
0070
30E0
3FE0
0F00
ENDCHAR
STARTCHAR 01E8
ENCODING 488
SWIDTH 612 0
DWIDTH 17 0
BBX 15 26 2 0
BITMAP
18C0
0980
0F00
0700
0000
0000
E03C
E078
E0F0
E1E0
E1C0
E380
E700
EE00
FC00
FC00
FE00
EE00
E700
E380
E1C0
E0E0
E070
E038
E03C
E01E
ENDCHAR
STARTCHAR 01E9
ENCODING 489
SWIDTH 540 0
DWIDTH 15 0
BBX 14 26 0 0
BITMAP
C600
6C00
6C00
3800
0000
3800
3800
3800
3800
3800
3800
383C
3870
38E0
39C0
3B80
3F00
3E00
3F00
3F00
3B80
39C0
38E0
3870
3838
381C
ENDCHAR
STARTCHAR 01EA
ENCODING 490
SWIDTH 720 0
DWIDTH 20 0
BBX 17 26 1 -5
BITMAP
01E000
0FF800
1FFE00
3C0E00
380700
700300
700380
600380
600180
E00180
E00180
E00180
E00180
600180
600380
700380
700700
380700
1C0E00
0FFC00
07F800
008000
018000
018000
018000
01E000
ENDCHAR
STARTCHAR 01EB
ENCODING 491
SWIDTH 540 0
DWIDTH 15 0
BBX 13 21 1 -5
BITMAP
0700
1FC0
3FE0
7070
7030
6038
E038
E018
E018
E018
6038
6038
7030
3870
3FE0
1FC0
0200
0600
0400
0600
0780
ENDCHAR
STARTCHAR 01EC
ENCODING 492
SWIDTH 720 0
DWIDTH 20 0
BBX 17 30 1 -5
BITMAP
07F800
07F800
000000
000000
01E000
0FF800
1FFE00
3C0E00
380700
700300
700380
600380
600180
E00180
E00180
E00180
E00180
600180
600380
700380
700700
380700
1C0E00
0FFC00
07F800
008000
018000
018000
018000
01E000
ENDCHAR
STARTCHAR 01ED
ENCODING 493
SWIDTH 540 0
DWIDTH 15 0
BBX 13 26 1 -5
BITMAP
1FC0
1FC0
0000
0000
0000
0700
1FC0
3FE0
7070
7030
6038
E038
E018
E018
E018
6038
6038
7030
3870
3FE0
1FC0
0200
0600
0400
0600
0780
ENDCHAR
STARTCHAR 01EE
ENCODING 494
SWIDTH 612 0
DWIDTH 17 0
BBX 14 27 2 -1
BITMAP
18C0
0C80
0780
0700
0000
0000
FFF8
FFF8
0070
00E0
00C0
01C0
0380
0300
0700
07E0
07F0
0038
0018
001C
001C
001C
0018
8038
FDF0
FFE0
1F80
ENDCHAR
STARTCHAR 01EF
ENCODING 495
SWIDTH 540 0
DWIDTH 15 0
BBX 12 28 1 -6
BITMAP
3180
1900
1B00
0E00
0600
0000
0000
FFE0
FFE0
00E0
01C0
0380
0300
0700
0E00
1C00
1F80
1FE0
00E0
0070
0030
0030
0030
0070
0070
F3E0
FFC0
3F00
ENDCHAR
STARTCHAR 01F0
ENCODING 496
SWIDTH 252 0
DWIDTH 7 0
BBX 7 28 0 -6
BITMAP
C6
64
6C
38
18
00
00
38
38
38
38
38
38
38
38
38
38
38
38
38
38
38
38
38
30
70
F0
C0
ENDCHAR
STARTCHAR 01F1
ENCODING 497
SWIDTH 1296 0
DWIDTH 36 0
BBX 32 20 2 0
BITMAP
FFE07FFF
FFF87FFF
E03C000E
E01E001C
E00E001C
E0060038
E0070070
E0070070
E00700E0
E00701C0
E0070380
E0070380
E0070700
E0070E00
E00E0C00
E00E1C00
E01C3800
E0F87000
FFF07FFF
FFC07FFF
ENDCHAR
STARTCHAR 01F2
ENCODING 498
SWIDTH 1188 0
DWIDTH 33 0
BBX 29 20 2 0
BITMAP
FFE00000
FFF80000
E03C0000
E01E0000
E00E0000
E0063FF8
E0073FF8
E0070070
E0070060
E00700E0
E00701C0
E0070380
E0070700
E0070600
E00E0E00
E00E1C00
E01C3800
E0F83000
FFF07FF8
FFC07FF8
ENDCHAR
STARTCHAR 01F3
ENCODING 499
SWIDTH 1044 0
DWIDTH 29 0
BBX 26 21 1 0
BITMAP
00380000
00380000
00380000
00380000
00380000
07380000
1FB9FFC0
3DF9FFC0
707801C0
60380380
60380700
E0380E00
E0380C00
E0381C00
E0383800
60387000
60386000
7038E000
3079C000
3FF9FFC0
1FB9FFC0
ENDCHAR
STARTCHAR 01F4
ENCODING 500
SWIDTH 720 0
DWIDTH 20 0
BBX 16 26 1 0
BITMAP
0060
0060
00C0
0180
0000
01F0
07FE
1FFF
3C03
3801
7000
7000
6000
6000
E000
E03F
E03F
E03F
6003
6003
7003
7003
3803
1E07
0FFF
07FC
ENDCHAR
STARTCHAR 01F5
ENCODING 501
SWIDTH 576 0
DWIDTH 16 0
BBX 13 28 1 -6
BITMAP
0180
0300
0700
0600
0C00
0000
0700
1FB8
3DF8
7078
6038
6038
E038
E038
E038
E038
6038
6038
7078
38F8
3FF8
0F38
0038
0030
0070
30E0
3FE0
0F00
ENDCHAR
STARTCHAR 01F6
ENCODING 502
SWIDTH 1008 0
DWIDTH 28 0
BBX 24 20 2 0
BITMAP
E00C00
E00C00
E00C00
E00C00
E00C00
E00C07
E00C07
E00C07
FFFC07
FFFC07
E00C07
E00C07
E00C07
E00C07
E00C07
E00E07
E00E07
E0070E
E007FE
E003FC
ENDCHAR
STARTCHAR 01F7
ENCODING 503
SWIDTH 612 0
DWIDTH 17 0
BBX 14 27 2 -6
BITMAP
01E0
E7F0
FFF8
FC38
F01C
F01C
E01C
E01C
E018
E038
E070
E070
E0E0
E3C0
E780
EF00
FC00
F800
F000
E000
E000
E000
E000
E000
E000
E000
E000
ENDCHAR
STARTCHAR 01F8
ENCODING 504
SWIDTH 684 0
DWIDTH 19 0
BBX 14 26 2 0
BITMAP
0600
0300
0180
0180
0000
0000
F00C
F80C
F80C
FC0C
EC0C
EE0C
E60C
E70C
E30C
E38C
E38C
E1CC
E1CC
E0CC
E0EC
E06C
E07C
E03C
E03C
E01C
ENDCHAR
STARTCHAR 01F9
ENCODING 505
SWIDTH 576 0
DWIDTH 16 0
BBX 12 22 2 0
BITMAP
0E00
0600
0300
0180
0180
0000
0300
EFC0
FFE0
F060
E070
E070
E030
E030
E030
E030
E030
E030
E030
E030
E030
E030
ENDCHAR
STARTCHAR 01FA
ENCODING 506
SWIDTH 612 0
DWIDTH 17 0
BBX 17 26 0 0
BITMAP
01C300
03E700
063600
063C00
063000
033000
03E000
01E000
03E000
036000
077000
073000
063000
0E3800
0E1800
0C1800
1C1C00
1C0C00
1FFC00
3FFE00
3FFE00
300600
700700
700300
600380
E00380
ENDCHAR
STARTCHAR 01FB
ENCODING 507
SWIDTH 540 0
DWIDTH 15 0
BBX 13 26 2 0
BITMAP
0018
0430
1F60
3360
3180
2180
3100
1F00
0E00
0000
0C00
7F80
7FC0
00E0
0060
0060
0FE0
7FE0
F060
C060
C060
C0E0
C0E0
E1E0
FF60
7E60
ENDCHAR
STARTCHAR 01FC
ENCODING 508
SWIDTH 900 0
DWIDTH 25 0
BBX 23 26 0 0
BITMAP
000300
000700
000600
000C00
000000
000000
01FFFE
01FFFE
019C00
039C00
031C00
031C00
071C00
061C00
0E1FFC
0E1FFC
0C1C00
1C1C00
1FFC00
1FFC00
3FFC00
301C00
701C00
701C00
601FFE
E01FFE
ENDCHAR
STARTCHAR 01FD
ENCODING 509
SWIDTH 900 0
DWIDTH 25 0
BBX 21 22 2 0
BITMAP
003000
006000
00E000
00C000
018000
000000
0E0380
7F8FE0
7FFEF0
00F838
007018
006018
0FE018
7FFFF8
F07FF8
C06000
C06000
C0F000
C0F000
E1F808
FF9FF8
7F0FF0
ENDCHAR
STARTCHAR 01FE
ENCODING 510
SWIDTH 720 0
DWIDTH 20 0
BBX 17 27 1 -1
BITMAP
006000
00C000
01C000
018000
000000
01E080
0FF980
1FFF00
3C0F00
380700
700F00
701B80
603B80
603180
E06180
E0C180
E1C180
E18180
630180
660380
7C0380
7C0700
380700
3C0E00
6FFC00
E7F800
400000
ENDCHAR
STARTCHAR 01FF
ENCODING 511
SWIDTH 540 0
DWIDTH 15 0
BBX 14 23 1 -1
BITMAP
0180
0300
0700
0600
0C00
0000
070C
1FD8
3FF0
7070
7070
60F8
E198
E318
E318
E618
6C38
7838
7830
3870
7FE0
DFC0
C000
ENDCHAR
STARTCHAR 0200
ENCODING 512
SWIDTH 612 0
DWIDTH 17 0
BBX 17 26 0 0
BITMAP
0CC000
066000
033000
031000
000000
000000
01C000
01E000
03E000
036000
037000
073000
063000
0E3800
0E1800
0C1800
1C1C00
1C0C00
1FFC00
3FFE00
3FFE00
300600
700700
700300
600380
E00380
ENDCHAR
STARTCHAR 0201
ENCODING 513
SWIDTH 540 0
DWIDTH 15 0
BBX 11 22 2 0
BITMAP
3300
3300
1980
1980
0CC0
0000
0C00
7F80
7FC0
00E0
0060
0060
0FE0
7FE0
F060
C060
C060
C0E0
C0E0
E1E0
FF60
7E60
ENDCHAR
STARTCHAR 0202
ENCODING 514
SWIDTH 612 0
DWIDTH 17 0
BBX 17 25 0 0
BITMAP
01E000
07F000
063000
000000
000000
01C000
01E000
03E000
036000
037000
073000
063000
0E3800
0E1800
0C1800
1C1C00
1C0C00
1FFC00
3FFE00
3FFE00
300600
700700
700300
600380
E00380
ENDCHAR
STARTCHAR 0203
ENCODING 515
SWIDTH 540 0
DWIDTH 15 0
BBX 11 22 2 0
BITMAP
1F00
3F80
3180
2080
0000
0000
0C00
7F80
7FC0
00E0
0060
0060
0FE0
7FE0
F060
C060
C060
C0E0
C0E0
E1E0
FF60
7E60
ENDCHAR
STARTCHAR 0204
ENCODING 516
SWIDTH 576 0
DWIDTH 16 0
BBX 12 26 2 0
BITMAP
7700
3300
1980
0CC0
0000
0000
FFF0
FFF0
E000
E000
E000
E000
E000
E000
FFF0
FFF0
E000
E000
E000
E000
E000
E000
E000
E000
FFF0
FFF0
ENDCHAR
STARTCHAR 0205
ENCODING 517
SWIDTH 576 0
DWIDTH 16 0
BBX 13 22 1 0
BITMAP
1980
0CC0
0CC0
0660
0660
0000
0380
1FE0
3FF0
3030
7038
6018
6018
FFF8
FFF8
E000
6000
6000
7000
3818
1FF8
0FF0
ENDCHAR
STARTCHAR 0206
ENCODING 518
SWIDTH 576 0
DWIDTH 16 0
BBX 12 25 2 0
BITMAP
0F00
1FC0
18C0
0000
0000
FFF0
FFF0
E000
E000
E000
E000
E000
E000
FFF0
FFF0
E000
E000
E000
E000
E000
E000
E000
E000
FFF0
FFF0
ENDCHAR
STARTCHAR 0207
ENCODING 519
SWIDTH 576 0
DWIDTH 16 0
BBX 13 22 1 0
BITMAP
0780
0FC0
0C60
1820
0000
0000
0380
1FE0
3FF0
3030
7038
6018
6018
FFF8
FFF8
E000
6000
6000
7000
3818
1FF8
0FF0
ENDCHAR
STARTCHAR 0208
ENCODING 520
SWIDTH 252 0
DWIDTH 7 0
BBX 9 26 -1 0
BITMAP
CE00
6600
3300
1180
0000
0000
1C00
1C00
1C00
1C00
1C00
1C00
1C00
1C00
1C00
1C00
1C00
1C00
1C00
1C00
1C00
1C00
1C00
1C00
1C00
1C00
ENDCHAR
STARTCHAR 0209
ENCODING 521
SWIDTH 252 0
DWIDTH 7 0
BBX 8 22 0 0
BITMAP
CC
CC
66
22
33
00
00
38
38
38
38
38
38
38
38
38
38
38
38
38
38
38
ENDCHAR
STARTCHAR 020A
ENCODING 522
SWIDTH 252 0
DWIDTH 7 0
BBX 8 25 0 0
BITMAP
3C
7E
C3
00
00
38
38
38
38
38
38
38
38
38
38
38
38
38
38
38
38
38
38
38
38
ENDCHAR
STARTCHAR 020B
ENCODING 523
SWIDTH 252 0
DWIDTH 7 0
BBX 7 22 0 0
BITMAP
7C
FE
C6
82
00
00
00
38
38
38
38
38
38
38
38
38
38
38
38
38
38
38
ENDCHAR
STARTCHAR 020C
ENCODING 524
SWIDTH 720 0
DWIDTH 20 0
BBX 17 26 1 0
BITMAP
0CE000
066000
033000
011800
000000
01E000
0FF800
1FFE00
3C0E00
380700
700300
700380
600380
600180
E00180
E00180
E00180
E00180
600180
600380
700380
700700
380700
1C0E00
0FFC00
07F800
ENDCHAR
STARTCHAR 020D
ENCODING 525
SWIDTH 540 0
DWIDTH 15 0
BBX 13 22 1 0
BITMAP
1980
1980
0CC0
0CC0
0660
0000
0700
1FC0
3FE0
7070
7030
6038
E038
E018
E018
E018
6038
6038
7030
3870
3FE0
1FC0
ENDCHAR
STARTCHAR 020E
ENCODING 526
SWIDTH 720 0
DWIDTH 20 0
BBX 17 25 1 0
BITMAP
01E000
03F000
061000
000000
01E000
0FF800
1FFE00
3C0E00
380700
700300
700380
600380
600180
E00180
E00180
E00180
E00180
600180
600380
700380
700700
380700
1C0E00
0FFC00
07F800
ENDCHAR
STARTCHAR 020F
ENCODING 527
SWIDTH 540 0
DWIDTH 15 0
BBX 13 22 1 0
BITMAP
0780
0FC0
1860
1860
0000
0000
0700
1FC0
3FE0
7070
7030
6038
E038
E018
E018
E018
6038
6038
7030
3870
3FE0
1FC0
ENDCHAR
STARTCHAR 0210
ENCODING 528
SWIDTH 648 0
DWIDTH 18 0
BBX 15 26 2 0
BITMAP
6600
3300
3300
1980
0000
0000
FFC0
FFE0
E0F0
E070
E030
E030
E030
E070
E0F0
FFE0
FF80
E1E0
E0E0
E070
E030
E038
E018
E01C
E01C
E00E
ENDCHAR
STARTCHAR 0211
ENCODING 529
SWIDTH 360 0
DWIDTH 10 0
BBX 8 22 2 0
BITMAP
CC
66
66
33
13
00
03
EF
FF
F0
E0
E0
E0
E0
E0
E0
E0
E0
E0
E0
E0
E0
ENDCHAR
STARTCHAR 0212
ENCODING 530
SWIDTH 648 0
DWIDTH 18 0
BBX 15 25 2 0
BITMAP
0F00
1F80
30C0
0000
0000
FFC0
FFE0
E0F0
E070
E030
E030
E030
E070
E0F0
FFE0
FF80
E1E0
E0E0
E070
E030
E038
E018
E01C
E01C
E00E
ENDCHAR
STARTCHAR 0213
ENCODING 531
SWIDTH 360 0
DWIDTH 10 0
BBX 9 22 2 0
BITMAP
1E00
3F00
6100
4180
0000
0000
0300
EF00
FF00
F000
E000
E000
E000
E000
E000
E000
E000
E000
E000
E000
E000
E000
ENDCHAR
STARTCHAR 0214
ENCODING 532
SWIDTH 648 0
DWIDTH 18 0
BBX 14 26 2 0
BITMAP
1980
1CC0
0CC0
0660
0000
0000
E00C
E00C
E00C
E00C
E00C
E00C
E00C
E00C
E00C
E00C
E00C
E00C
E00C
E00C
E00C
601C
701C
7838
3FF0
1FE0
ENDCHAR
STARTCHAR 0215
ENCODING 533
SWIDTH 576 0
DWIDTH 16 0
BBX 12 22 2 0
BITMAP
3300
1980
1980
0CC0
0440
0000
0000
C070
C070
C070
C070
C070
C070
C070
C070
C070
C070
E070
E070
70F0
7FF0
3F70
ENDCHAR
STARTCHAR 0216
ENCODING 534
SWIDTH 648 0
DWIDTH 18 0
BBX 14 25 2 0
BITMAP
0780
0FC0
1860
0000
0000
E00C
E00C
E00C
E00C
E00C
E00C
E00C
E00C
E00C
E00C
E00C
E00C
E00C
E00C
E00C
601C
701C
7838
3FF0
1FE0
ENDCHAR
STARTCHAR 0217
ENCODING 535
SWIDTH 576 0
DWIDTH 16 0
BBX 12 22 2 0
BITMAP
0F00
1F80
18C0
3040
0000
0000
0000
C070
C070
C070
C070
C070
C070
C070
C070
C070
C070
E070
E070
70F0
7FF0
3F70
ENDCHAR
STARTCHAR 0218
ENCODING 536
SWIDTH 576 0
DWIDTH 16 0
BBX 13 28 2 -7
BITMAP
0F80
3FE0
7DE0
E000
C000
C000
C000
E000
F000
7F00
3FC0
0FE0
00F0
0070
0038
0038
0038
0070
C0F0
FFE0
7FC0
0000
0000
0600
0600
0E00
0C00
0C00
ENDCHAR
STARTCHAR 0219
ENCODING 537
SWIDTH 468 0
DWIDTH 13 0
BBX 11 23 1 -7
BITMAP
0F00
3FC0
79C0
6000
E000
E000
7000
7E00
1F80
03C0
00E0
0060
0060
C0E0
FFC0
7F80
0000
0000
0700
0600
0E00
0C00
0C00
ENDCHAR
STARTCHAR 021A
ENCODING 538
SWIDTH 540 0
DWIDTH 15 0
BBX 15 27 0 -7
BITMAP
FFFE
FFFE
0380
0380
0380
0380
0380
0380
0380
0380
0380
0380
0380
0380
0380
0380
0380
0380
0380
0380
0000
0000
0380
0380
0300
0300
0200
ENDCHAR
STARTCHAR 021B
ENCODING 539
SWIDTH 360 0
DWIDTH 10 0
BBX 8 27 1 -7
BITMAP
70
70
70
70
70
FF
FF
70
70
70
70
70
70
70
70
70
70
30
3F
1F
00
00
0E
0E
0C
0C
18
ENDCHAR
STARTCHAR 021C
ENCODING 540
SWIDTH 576 0
DWIDTH 16 0
BBX 12 27 2 -6
BITMAP
0F00
3FC0
FFE0
E0E0
8060
0070
0070
0060
00E0
00C0
01C0
0780
1FC0
3FE0
2070
0070
0030
0070
0070
0060
00E0
01C0
0780
1F00
FC00
F000
8000
ENDCHAR
STARTCHAR 021D
ENCODING 541
SWIDTH 468 0
DWIDTH 13 0
BBX 11 22 1 -6
BITMAP
0C00
3F80
F1C0
C0C0
00C0
00C0
00C0
0180
0380
0F00
3F80
30C0
00E0
0060
00E0
00C0
01C0
0380
0F00
3C00
F000
C000
ENDCHAR
STARTCHAR 021E
ENCODING 542
SWIDTH 684 0
DWIDTH 19 0
BBX 14 26 2 0
BITMAP
0C60
06C0
06C0
0380
0000
0000
E00C
E00C
E00C
E00C
E00C
E00C
E00C
E00C
FFFC
FFFC
E00C
E00C
E00C
E00C
E00C
E00C
E00C
E00C
E00C
E00C
ENDCHAR
STARTCHAR 021F
ENCODING 543
SWIDTH 576 0
DWIDTH 16 0
BBX 14 26 0 0
BITMAP
C600
6C00
3C00
3800
0000
3800
3800
3800
3800
3800
38C0
3BF0
3FF8
3C18
381C
381C
380C
380C
380C
380C
380C
380C
380C
380C
380C
380C
ENDCHAR
STARTCHAR 0220
ENCODING 544
SWIDTH 684 0
DWIDTH 19 0
BBX 14 27 2 -6
BITMAP
03C0
E7F0
EFF8
FC38
F01C
F01C
E01C
E00C
E00C
E00C
E00C
E00C
E00C
E00C
E00C
E00C
E00C
E00C
E00C
E00C
E00C
000C
000C
000C
000C
000C
000C
ENDCHAR
STARTCHAR 0221
ENCODING 545
SWIDTH 756 0
DWIDTH 21 0
BBX 19 23 1 -2
BITMAP
003800
003800
003800
003800
003800
073800
1FB800
3DF800
707800
603800
603800
E03800
E03800
E03800
E03980
603FC0
603EE0
703EE0
307CE0
3FDFC0
1F9F80
003800
003000
ENDCHAR
STARTCHAR 0222
ENCODING 546
SWIDTH 648 0
DWIDTH 18 0
BBX 15 21 1 0
BITMAP
00C0
00F8
021C
3E0C
780E
700E
600E
700C
381C
1FF0
0FF0
3C7C
700C
600E
E006
E006
E00E
700E
781C
3FFC
1FF0
ENDCHAR
STARTCHAR 0223
ENCODING 547
SWIDTH 540 0
DWIDTH 15 0
BBX 13 18 1 0
BITMAP
3030
6030
6030
6030
7030
3870
1FE0
1FC0
3CF0
7030
6038
E038
E038
E038
6038
7070
3FF0
1FC0
ENDCHAR
STARTCHAR 0224
ENCODING 548
SWIDTH 612 0
DWIDTH 17 0
BBX 15 26 1 -6
BITMAP
FFFE
FFFE
001C
001C
0038
0070
00E0
00E0
01C0
0380
0700
0700
0E00
1C00
1C00
3800
7000
E000
FFFE
FFFE
0006
0006
0006
000E
00FC
00F8
ENDCHAR
STARTCHAR 0225
ENCODING 549
SWIDTH 468 0
DWIDTH 13 0
BBX 11 21 1 -6
BITMAP
FFE0
FFE0
00E0
01C0
0380
0300
0700
0E00
1C00
1800
3800
7000
E000
FFE0
FFE0
0060
0060
0060
00E0
0FC0
0F80
ENDCHAR
STARTCHAR 0226
ENCODING 550
SWIDTH 612 0
DWIDTH 17 0
BBX 17 26 0 0
BITMAP
01C000
01C000
01C000
000000
000000
000000
01C000
01E000
03E000
036000
037000
073000
063000
0E3800
0E1800
0C1800
1C1C00
1C0C00
1FFC00
3FFE00
3FFE00
300600
700700
700300
600380
E00380
ENDCHAR
STARTCHAR 0227
ENCODING 551
SWIDTH 540 0
DWIDTH 15 0
BBX 11 21 2 0
BITMAP
0C00
0C00
0C00
0000
0000
0C00
7F80
7FC0
00E0
0060
0060
0FE0
7FE0
F060
C060
C060
C0E0
C0E0
E1E0
FF60
7E60
ENDCHAR
STARTCHAR 0228
ENCODING 552
SWIDTH 576 0
DWIDTH 16 0
BBX 12 25 2 -5
BITMAP
FFF0
FFF0
E000
E000
E000
E000
E000
E000
FFF0
FFF0
E000
E000
E000
E000
E000
E000
E000
E000
FFF0
FFF0
0300
0100
0180
0380
0F00
ENDCHAR
STARTCHAR 0229
ENCODING 553
SWIDTH 576 0
DWIDTH 16 0
BBX 13 21 1 -5
BITMAP
0380
1FE0
3FF0
3030
7038
6018
6018
FFF8
FFF8
E000
6000
6000
7000
3818
1FF8
0FF0
0100
0180
0180
0980
0F80
ENDCHAR
STARTCHAR 022A
ENCODING 554
SWIDTH 720 0
DWIDTH 20 0
BBX 17 29 1 0
BITMAP
07F800
07F800
000000
000000
073000
073000
000000
000000
01E000
0FF800
1FFE00
3C0E00
380700
700300
700380
600380
600180
E00180
E00180
E00180
E00180
600180
600380
700380
700700
380700
1C0E00
0FFC00
07F800
ENDCHAR
STARTCHAR 022B
ENCODING 555
SWIDTH 540 0
DWIDTH 15 0
BBX 13 25 1 0
BITMAP
1FC0
1FC0
0000
0000
1CC0
1CC0
1CC0
0000
0000
0700
1FC0
3FE0
7070
7030
6038
E038
E018
E018
E018
6038
6038
7030
3870
3FE0
1FC0
ENDCHAR
STARTCHAR 022C
ENCODING 556
SWIDTH 720 0
DWIDTH 20 0
BBX 17 29 1 0
BITMAP
07F800
07F800
000000
031800
07D800
067000
000000
000000
01E000
0FF800
1FFE00
3C0E00
380700
700300
700380
600380
600180
E00180
E00180
E00180
E00180
600180
600380
700380
700700
380700
1C0E00
0FFC00
07F800
ENDCHAR
STARTCHAR 022D
ENCODING 557
SWIDTH 540 0
DWIDTH 15 0
BBX 13 24 1 0
BITMAP
1FC0
1FC0
0000
0C60
1F60
13C0
0000
0000
0700
1FC0
3FE0
7070
7030
6038
E038
E018
E018
E018
6038
6038
7030
3870
3FE0
1FC0
ENDCHAR
STARTCHAR 022E
ENCODING 558
SWIDTH 720 0
DWIDTH 20 0
BBX 17 26 1 0
BITMAP
00C000
00C000
00C000
000000
000000
01E000
0FF800
1FFE00
3C0E00
380700
700300
700380
600380
600180
E00180
E00180
E00180
E00180
600180
600380
700380
700700
380700
1C0E00
0FFC00
07F800
ENDCHAR
STARTCHAR 022F
ENCODING 559
SWIDTH 540 0
DWIDTH 15 0
BBX 13 21 1 0
BITMAP
0300
0300
0300
0000
0000
0700
1FC0
3FE0
7070
7030
6038
E038
E018
E018
E018
6038
6038
7030
3870
3FE0
1FC0
ENDCHAR
STARTCHAR 0230
ENCODING 560
SWIDTH 720 0
DWIDTH 20 0
BBX 17 29 1 0
BITMAP
07F800
07F800
000000
00C000
00C000
00C000
000000
000000
01E000
0FF800
1FFE00
3C0E00
380700
700300
700380
600380
600180
E00180
E00180
E00180
E00180
600180
600380
700380
700700
380700
1C0E00
0FFC00
07F800
ENDCHAR
STARTCHAR 0231
ENCODING 561
SWIDTH 540 0
DWIDTH 15 0
BBX 13 25 1 0
BITMAP
1FC0
1FC0
0000
0000
0300
0300
0300
0000
0000
0700
1FC0
3FE0
7070
7030
6038
E038
E018
E018
E018
6038
6038
7030
3870
3FE0
1FC0
ENDCHAR
STARTCHAR 0232
ENCODING 562
SWIDTH 540 0
DWIDTH 15 0
BBX 15 25 0 0
BITMAP
0FE0
0FE0
0000
0000
0000
E00E
700C
301C
3838
1C30
0C70
0E60
06E0
07C0
0380
0380
0380
0380
0380
0380
0380
0380
0380
0380
0380
ENDCHAR
STARTCHAR 0233
ENCODING 563
SWIDTH 540 0
DWIDTH 15 0
BBX 13 27 1 -6
BITMAP
1FC0
1FC0
0000
0000
0000
0000
C038
E038
6030
7070
3060
3060
38E0
18C0
18C0
1DC0
0D80
0D80
0F80
0700
0700
0600
0600
0E00
1C00
7C00
7000
ENDCHAR
STARTCHAR 0234
ENCODING 564
SWIDTH 432 0
DWIDTH 12 0
BBX 9 23 2 -2
BITMAP
E000
E000
E000
E000
E000
E000
E000
E000
E000
E000
E000
E000
E000
E000
E600
FF00
FB80
FB80
F300
7F00
7E00
E000
C000
ENDCHAR
STARTCHAR 0235
ENCODING 565
SWIDTH 756 0
DWIDTH 21 0
BBX 18 18 2 -2
BITMAP
030000
EFC000
FFE000
F06000
E07000
E07000
E03000
E03000
E03000
E03380
E037C0
E03FC0
E03CC0
E039C0
E03F80
E03F80
003000
007000
ENDCHAR
STARTCHAR 0236
ENCODING 566
SWIDTH 432 0
DWIDTH 12 0
BBX 10 22 1 -2
BITMAP
7000
7000
7000
7000
7000
FF00
FF00
7000
7000
7000
7000
7000
7000
7300
7F80
7DC0
7DC0
7980
3F80
3F00
7000
6000
ENDCHAR
STARTCHAR 0237
ENCODING 567
SWIDTH 252 0
DWIDTH 7 0
BBX 5 21 0 -6
BITMAP
38
38
38
38
38
38
38
38
38
38
38
38
38
38
38
38
38
30
70
F0
C0
ENDCHAR
STARTCHAR 0238
ENCODING 568
SWIDTH 900 0
DWIDTH 25 0
BBX 23 21 1 0
BITMAP
003800
003800
003800
003800
003800
0738C0
1FBBF0
3DFF78
707C1C
60380C
60380C
E0380E
E0380E
E0380E
E0380E
60380E
60380C
703C0C
307C1C
3FFFF8
1FBBF0
ENDCHAR
STARTCHAR 0239
ENCODING 569
SWIDTH 900 0
DWIDTH 25 0
BBX 23 22 1 -6
BITMAP
0700C0
1FBBF0
3DFF78
707C1C
60380C
60380C
E0380E
E0380E
E0380E
E0380E
60380E
60380C
703C0C
307C1C
3FFFF8
1FBBF0
003800
003800
003800
003800
003800
003800
ENDCHAR
STARTCHAR 023A
ENCODING 570
SWIDTH 612 0
DWIDTH 17 0
BBX 17 22 0 -1
BITMAP
000180
01C180
01E300
03E600
036E00
037C00
073800
063000
0E7800
0E7800
0CD800
1D9C00
1F0C00
1FFC00
3FFE00
3FFE00
380700
780700
700300
600380
E00380
400000
ENDCHAR
STARTCHAR 023B
ENCODING 571
SWIDTH 648 0
DWIDTH 18 0
BBX 17 22 0 -1
BITMAP
00F080
03FF80
0FDF00
1E0700
1C0700
380C00
381800
303000
307000
706000
70C000
718000
738000
330000
360000
3C0000
1C0000
1C0100
3F0700
67FF00
E3FC00
400000
ENDCHAR
STARTCHAR 023C
ENCODING 572
SWIDTH 504 0
DWIDTH 14 0
BBX 14 17 0 0
BITMAP
01CC
0FF8
1F70
3830
3860
30C0
7180
7180
7300
7600
3C00
3C00
3800
3C00
7FF0
67F0
C000
ENDCHAR
STARTCHAR 023D
ENCODING 573
SWIDTH 504 0
DWIDTH 14 0
BBX 14 20 0 0
BITMAP
3800
3800
3800
3800
3800
3800
3800
3800
FE00
FE00
3800
3800
3800
3800
3800
3800
3800
3800
3FFC
3FFC
ENDCHAR
STARTCHAR 023E
ENCODING 574
SWIDTH 540 0
DWIDTH 15 0
BBX 17 22 -1 -1
BITMAP
000180
7FFF80
7FFF00
01C600
01CE00
01CC00
01D800
01F000
01F000
01E000
01C000
01C000
03C000
03C000
07C000
0DC000
1DC000
19C000
31C000
61C000
C1C000
400000
ENDCHAR
STARTCHAR 023F
ENCODING 575
SWIDTH 468 0
DWIDTH 13 0
BBX 12 23 1 -7
BITMAP
0F00
3FC0
79C0
6000
E000
E000
7000
7E00
1F80
03C0
00E0
0060
0060
C0E0
FFC0
7F80
0E00
0700
0380
03C0
01E0
00F0
0030
ENDCHAR
STARTCHAR 0240
ENCODING 576
SWIDTH 468 0
DWIDTH 13 0
BBX 12 22 1 -7
BITMAP
FFE0
FFE0
00E0
01C0
0380
0300
0700
0E00
1C00
1800
3800
7000
E000
F000
F800
1C00
0E00
0700
0780
03C0
01F0
0070
ENDCHAR
STARTCHAR 0241
ENCODING 577
SWIDTH 540 0
DWIDTH 15 0
BBX 13 20 1 0
BITMAP
FFE0
FFF0
8078
0038
0018
0018
0018
0038
0038
01F0
0FE0
0F80
0E00
0E00
0E00
0E00
0E00
0E00
0E00
0E00
ENDCHAR
STARTCHAR 0242
ENCODING 578
SWIDTH 432 0
DWIDTH 12 0
BBX 10 16 1 0
BITMAP
3800
FF00
FF80
01C0
01C0
00C0
00C0
01C0
01C0
03C0
1F80
1F00
1800
1800
1800
1800
ENDCHAR
STARTCHAR 0243
ENCODING 579
SWIDTH 612 0
DWIDTH 17 0
BBX 16 20 0 0
BITMAP
3FF8
3FFC
381C
380E
380E
380E
380C
381C
3FF8
3FF8
381C
380E
3806
FF86
FF87
3806
380E
381E
3FFC
3FF0
ENDCHAR
STARTCHAR 0244
ENCODING 580
SWIDTH 648 0
DWIDTH 18 0
BBX 18 20 0 0
BITMAP
380300
380300
380300
380300
380300
380300
380300
380300
FFFFC0
FFFFC0
380300
380300
380300
380300
380300
180700
1C0700
1E0E00
0FFC00
07F800
ENDCHAR
STARTCHAR 0245
ENCODING 581
SWIDTH 612 0
DWIDTH 17 0
BBX 17 20 0 0
BITMAP
01C000
01E000
03E000
036000
037000
073000
063000
0E3800
0E1800
0C1800
1C1C00
1C0C00
180C00
380E00
380600
300600
700700
700300
600380
E00380
ENDCHAR
STARTCHAR 0246
ENCODING 582
SWIDTH 576 0
DWIDTH 16 0
BBX 12 26 2 -3
BITMAP
0030
0060
0060
FFF0
FFF0
E0C0
E0C0
E1C0
E180
E180
E380
FFF0
FFF0
E300
E600
E600
E600
EC00
EC00
EC00
FC00
FFF0
FFF0
3800
3000
3000
ENDCHAR
STARTCHAR 0247
ENCODING 583
SWIDTH 576 0
DWIDTH 16 0
BBX 13 21 1 -3
BITMAP
0060
0060
03E0
1FE0
3EF0
31B0
71B8
6198
6318
FFF8
FFF8
E600
6600
6C00
7C00
3C18
1FF8
1FF0
3800
3000
3000
ENDCHAR
STARTCHAR 0248
ENCODING 584
SWIDTH 252 0
DWIDTH 7 0
BBX 8 26 -1 -6
BITMAP
1C
1C
1C
1C
1C
1C
1C
1C
1C
7F
7F
1C
1C
1C
1C
1C
1C
1C
1C
1C
1C
1C
18
F8
F0
80
ENDCHAR
STARTCHAR 0249
ENCODING 585
SWIDTH 252 0
DWIDTH 7 0
BBX 7 27 0 -6
BITMAP
38
38
38
00
00
00
38
38
38
38
38
38
38
FE
FE
38
38
38
38
38
38
38
38
30
70
F0
C0
ENDCHAR
STARTCHAR 024A
ENCODING 586
SWIDTH 720 0
DWIDTH 20 0
BBX 20 27 1 -6
BITMAP
03C000
0FF300
1F7B00
381F00
380F00
700700
700700
600700
600300
E00300
E00300
E00300
E00300
600300
600700
700700
700700
380F00
1C1B00
1FFB00
07E300
000300
000380
000380
0001F0
0000F0
000030
ENDCHAR
STARTCHAR 024B
ENCODING 587
SWIDTH 576 0
DWIDTH 16 0
BBX 16 22 1 -6
BITMAP
0700
1FB8
3DF8
7078
6038
6038
E038
E038
E038
E038
6038
6038
7038
3078
3FF8
1FB8
0038
0038
0018
001C
001F
0007
ENDCHAR
STARTCHAR 024C
ENCODING 588
SWIDTH 648 0
DWIDTH 18 0
BBX 17 20 0 0
BITMAP
3FF000
3FF800
383C00
381C00
380C00
380C00
380C00
381C00
383C00
FFF800
FFE000
387800
383800
381C00
380C00
380E00
380600
380700
380700
380380
ENDCHAR
STARTCHAR 024D
ENCODING 589
SWIDTH 360 0
DWIDTH 10 0
BBX 10 16 0 0
BITMAP
00C0
3BC0
3FC0
3C00
3800
3800
3800
3800
FE00
FE00
3800
3800
3800
3800
3800
3800
ENDCHAR
STARTCHAR 024E
ENCODING 590
SWIDTH 540 0
DWIDTH 15 0
BBX 16 20 0 0
BITMAP
E00E
700C
301C
FFFF
FFFF
0C70
0E60
06E0
07C0
0380
0380
0380
0380
0380
0380
0380
0380
0380
0380
0380
ENDCHAR
STARTCHAR 024F
ENCODING 591
SWIDTH 540 0
DWIDTH 15 0
BBX 15 21 0 -6
BITMAP
601C
701C
3018
3838
1830
1830
FFFE
FFFE
0C60
0EE0
06C0
06C0
07C0
0380
0380
0300
0300
0700
0E00
3E00
3800
ENDCHAR
STARTCHAR 0250
ENCODING 592
SWIDTH 540 0
DWIDTH 15 0
BBX 12 16 2 0
BITMAP
0300
CFC0
DDE0
F070
E070
E070
E070
C060
FFE0
FFC0
C000
C000
E000
7020
7FE0
1FC0
ENDCHAR
STARTCHAR 0251
ENCODING 593
SWIDTH 576 0
DWIDTH 16 0
BBX 13 16 1 0
BITMAP
0700
1FB8
3DF8
7078
6038
6038
E038
E038
E038
E038
6038
6038
7038
3078
3FF8
1FB8
ENDCHAR
STARTCHAR 0252
ENCODING 594
SWIDTH 576 0
DWIDTH 16 0
BBX 13 16 2 0
BITMAP
0700
EFC0
FDE0
F070
E030
E030
E030
E038
E038
E038
E030
E030
E070
F060
FFE0
EFC0
ENDCHAR
STARTCHAR 0253
ENCODING 595
SWIDTH 576 0
DWIDTH 16 0
BBX 13 21 2 0
BITMAP
3F00
7F00
6000
E000
E000
E700
EFC0
FDE0
F070
E030
E030
E030
E038
E038
E038
E030
E030
E070
F060
FFE0
EFC0
ENDCHAR
STARTCHAR 0254
ENCODING 596
SWIDTH 504 0
DWIDTH 14 0
BBX 10 16 2 0
BITMAP
3800
FF00
EF80
0380
01C0
00C0
00C0
00C0
00C0
00C0
00C0
00C0
01C0
0380
FF00
FE00
ENDCHAR
STARTCHAR 0255
ENCODING 597
SWIDTH 504 0
DWIDTH 14 0
BBX 11 18 1 -2
BITMAP
0380
1FE0
3EE0
7000
7000
6000
E000
E000
E000
E000
6000
67E0
7EE0
3C60
3FE0
1FE0
1800
1800
ENDCHAR
STARTCHAR 0256
ENCODING 598
SWIDTH 576 0
DWIDTH 16 0
BBX 16 27 1 -6
BITMAP
0038
0038
0038
0038
0038
0738
1FB8
3DF8
7078
6038
6038
E038
E038
E038
E038
6038
6038
7038
3078
3FF8
1FB8
0038
0038
0018
001C
001F
0007
ENDCHAR
STARTCHAR 0257
ENCODING 599
SWIDTH 648 0
DWIDTH 18 0
BBX 17 21 1 0
BITMAP
000F80
001F80
001800
001800
003800
073800
1FB800
3DF800
707800
603800
603800
E03800
E03800
E03800
E03800
603800
603800
703800
307800
3FF800
1FB800
ENDCHAR
STARTCHAR 0258
ENCODING 600
SWIDTH 576 0
DWIDTH 16 0
BBX 13 16 1 0
BITMAP
0700
1FC0
3DE0
7070
6030
6038
E018
FFF8
FFF8
0018
0018
0038
0030
4070
7FE0
3FC0
ENDCHAR
STARTCHAR 0259
ENCODING 601
SWIDTH 576 0
DWIDTH 16 0
BBX 13 16 1 0
BITMAP
0F00
7FC0
7FE0
4070
0038
0038
0018
0018
FFF8
FFF8
E018
6038
6030
7070
3FE0
1FC0
ENDCHAR
STARTCHAR 025A
ENCODING 602
SWIDTH 756 0
DWIDTH 21 0
BBX 19 16 2 0
BITMAP
1E0000
FF8000
FFC700
80FF00
007F00
00F300
03F300
0733E0
1E31E0
383000
F07000
C07000
C06000
E0E000
7FC000
3F8000
ENDCHAR
STARTCHAR 025B
ENCODING 603
SWIDTH 504 0
DWIDTH 14 0
BBX 10 16 2 0
BITMAP
0E00
7F80
FB80
E000
C000
C000
7000
3E00
7E00
E000
C000
C000
C000
E040
7FC0
3FC0
ENDCHAR
STARTCHAR 025C
ENCODING 604
SWIDTH 468 0
DWIDTH 13 0
BBX 10 16 2 0
BITMAP
3C00
FF00
FF80
0180
01C0
0180
0380
3E00
3F00
0180
01C0
00C0
01C0
01C0
FF80
FF00
ENDCHAR
STARTCHAR 025D
ENCODING 605
SWIDTH 720 0
DWIDTH 20 0
BBX 17 16 2 0
BITMAP
3C0000
FF0000
FF9E00
01BE00
01FE00
01CE00
038600
3E0780
3F0380
018000
01C000
00C000
01C000
01C000
FF8000
FF0000
ENDCHAR
STARTCHAR 025E
ENCODING 606
SWIDTH 612 0
DWIDTH 17 0
BBX 14 16 1 0
BITMAP
03C0
1FF0
3FF8
701C
701C
6018
E038
E3E0
E3F8
E018
600C
600C
700C
381C
3FF8
0FF0
ENDCHAR
STARTCHAR 025F
ENCODING 607
SWIDTH 252 0
DWIDTH 7 0
BBX 7 21 0 -6
BITMAP
38
38
38
38
38
38
38
FE
FE
38
38
38
38
38
38
38
38
30
70
F0
C0
ENDCHAR
STARTCHAR 0260
ENCODING 608
SWIDTH 648 0
DWIDTH 18 0
BBX 17 27 1 -6
BITMAP
000F80
001F80
001800
001800
003800
073800
1FB800
3DF800
707800
603800
603800
E03800
E03800
E03800
E03800
603800
603800
707800
38F800
3FF800
0F3800
003800
003000
007000
30E000
3FE000
0F0000
ENDCHAR
STARTCHAR 0261
ENCODING 609
SWIDTH 576 0
DWIDTH 16 0
BBX 13 21 1 -6
BITMAP
1FF8
3FF8
7038
6038
6038
E038
E038
E038
E038
6038
6038
7078
38F8
3FF8
0F38
0038
0030
0070
30E0
3FE0
0F00
ENDCHAR
STARTCHAR 0262
ENCODING 610
SWIDTH 576 0
DWIDTH 16 0
BBX 13 16 1 0
BITMAP
0380
1FF0
3EF0
7010
7000
6000
E000
E000
E078
E078
6018
6018
7018
3818
3FF8
0FF0
ENDCHAR
STARTCHAR 0263
ENCODING 611
SWIDTH 540 0
DWIDTH 15 0
BBX 11 21 2 -6
BITMAP
C060
C060
E0E0
60C0
71C0
3180
3B80
1B00
1F00
0E00
0E00
0E00
1F00
1B00
3B80
3180
3180
3180
3B80
3F80
1E00
ENDCHAR
STARTCHAR 0264
ENCODING 612
SWIDTH 540 0
DWIDTH 15 0
BBX 11 15 2 0
BITMAP
C060
E0E0
71C0
3180
3B80
1F00
0E00
0E00
1F00
1B00
3980
3180
3180
3F80
1F00
ENDCHAR
STARTCHAR 0265
ENCODING 613
SWIDTH 576 0
DWIDTH 16 0
BBX 12 21 2 -6
BITMAP
C070
C070
C070
C070
C070
C070
C070
C070
C070
C070
E070
E070
70F0
7FF0
3F70
0070
0070
0070
0070
0070
0070
ENDCHAR
STARTCHAR 0266
ENCODING 614
SWIDTH 576 0
DWIDTH 16 0
BBX 12 21 2 0
BITMAP
3F00
7F00
6000
E000
E000
E300
EFC0
FFE0
F060
E070
E070
E030
E030
E030
E030
E030
E030
E030
E030
E030
E030
ENDCHAR
STARTCHAR 0267
ENCODING 615
SWIDTH 576 0
DWIDTH 16 0
BBX 12 27 2 -6
BITMAP
3F00
7F00
6000
E000
E000
E300
EFC0
FFE0
F060
E070
E070
E030
E030
E030
E030
E030
E030
E030
E030
E030
E030
0030
0070
0070
00E0
0FE0
0FC0
ENDCHAR
STARTCHAR 0268
ENCODING 616
SWIDTH 252 0
DWIDTH 7 0
BBX 7 21 0 0
BITMAP
38
38
38
00
00
00
38
38
38
38
38
38
38
FE
FE
38
38
38
38
38
38
ENDCHAR
STARTCHAR 0269
ENCODING 617
SWIDTH 324 0
DWIDTH 9 0
BBX 6 15 2 0
BITMAP
C0
C0
C0
C0
C0
C0
C0
C0
C0
C0
C0
E0
E0
7C
3C
ENDCHAR
STARTCHAR 026A
ENCODING 618
SWIDTH 324 0
DWIDTH 9 0
BBX 7 15 1 0
BITMAP
FE
FE
18
18
18
18
18
18
18
18
18
18
18
FE
FE
ENDCHAR
STARTCHAR 026B
ENCODING 619
SWIDTH 360 0
DWIDTH 10 0
BBX 8 21 1 0
BITMAP
18
18
18
18
18
18
18
18
18
7B
DB
DE
18
18
18
18
18
18
18
18
18
ENDCHAR
STARTCHAR 026C
ENCODING 620
SWIDTH 432 0
DWIDTH 12 0
BBX 9 21 1 0
BITMAP
0C00
0C00
0C00
0C00
0C00
0C00
0C00
7C00
FC00
CC00
FF80
FF80
0C00
0C00
0C00
0C00
0C00
0C00
0C00
0C00
0C00
ENDCHAR
STARTCHAR 026D
ENCODING 621
SWIDTH 252 0
DWIDTH 7 0
BBX 5 27 2 -6
BITMAP
E0
E0
E0
E0
E0
E0
E0
E0
E0
E0
E0
E0
E0
E0
E0
E0
E0
E0
E0
E0
E0
E0
E0
60
70
78
18
ENDCHAR
STARTCHAR 026E
ENCODING 622
SWIDTH 648 0
DWIDTH 18 0
BBX 14 27 2 -6
BITMAP
E000
E000
E000
E000
E000
E000
FFF8
FFF8
E038
E070
E060
E0E0
E1C0
E380
E300
E7F0
E7F8
E03C
E01C
E00C
E00C
000C
000C
201C
3CF8
3FF0
0FC0
ENDCHAR
STARTCHAR 026F
ENCODING 623
SWIDTH 900 0
DWIDTH 25 0
BBX 20 15 2 0
BITMAP
E06030
E06030
E06030
E06030
E06030
E06030
E06030
E06030
E06030
E06030
E07030
60F070
70B8F0
7FBFF0
3F1F30
ENDCHAR
STARTCHAR 0270
ENCODING 624
SWIDTH 900 0
DWIDTH 25 0
BBX 20 21 2 -6
BITMAP
E06030
E06030
E06030
E06030
E06030
E06030
E06030
E06030
E06030
E06030
E07030
60F070
70B8F0
7FBFF0
3F1F30
000030
000030
000030
000030
000030
000030
ENDCHAR
STARTCHAR 0271
ENCODING 625
SWIDTH 900 0
DWIDTH 25 0
BBX 20 22 2 -6
BITMAP
030180
EFC7E0
FFEFF0
F0F870
E07030
E07030
E07030
E06030
E06030
E06030
E06030
E06030
E06030
E06030
E06030
E06030
000030
000030
000030
000070
0007E0
0007C0
ENDCHAR
STARTCHAR 0272
ENCODING 626
SWIDTH 576 0
DWIDTH 16 0
BBX 14 22 0 -6
BITMAP
00C0
3BF0
3FF8
3C18
381C
380C
380C
380C
380C
380C
380C
380C
380C
380C
380C
380C
3800
3800
3000
7000
F000
C000
ENDCHAR
STARTCHAR 0273
ENCODING 627
SWIDTH 576 0
DWIDTH 16 0
BBX 15 22 2 -6
BITMAP
0300
EFC0
FFE0
F060
E070
E070
E030
E030
E030
E030
E030
E030
E030
E030
E030
E030
0030
0030
0030
0038
001E
000E
ENDCHAR
STARTCHAR 0274
ENCODING 628
SWIDTH 576 0
DWIDTH 16 0
BBX 12 15 2 0
BITMAP
F070
F070
F870
F870
FC70
EC70
EE70
E670
E770
E370
E3F0
E1F0
E1F0
E0F0
E0F0
ENDCHAR
STARTCHAR 0275
ENCODING 629
SWIDTH 540 0
DWIDTH 15 0
BBX 13 16 1 0
BITMAP
0700
1FC0
3DE0
7070
7030
6038
E038
FFF8
FFF8
E018
6038
6038
7030
3870
3FE0
1FC0
ENDCHAR
STARTCHAR 0276
ENCODING 630
SWIDTH 792 0
DWIDTH 22 0
BBX 18 15 1 0
BITMAP
0FFFC0
1F7FC0
386000
706000
606000
606000
E07FC0
E07FC0
E06000
606000
606000
706000
386000
1FFFC0
07FFC0
ENDCHAR
STARTCHAR 0277
ENCODING 631
SWIDTH 648 0
DWIDTH 18 0
BBX 15 16 2 -1
BITMAP
0780
1FE0
3EF0
7038
601C
E01C
E00C
C30C
C30C
C30C
C30E
C30C
E38C
E79C
7EFC
3CF8
ENDCHAR
STARTCHAR 0278
ENCODING 632
SWIDTH 612 0
DWIDTH 17 0
BBX 14 27 1 -6
BITMAP
0300
0300
0300
0300
0300
07C0
1FF0
3FF8
7338
731C
631C
E30C
E30C
E30C
E30C
630C
631C
7318
3B38
3FF0
1FE0
0300
0300
0300
0300
0300
0300
ENDCHAR
STARTCHAR 0279
ENCODING 633
SWIDTH 360 0
DWIDTH 10 0
BBX 8 15 0 0
BITMAP
03
03
03
03
03
03
03
03
03
03
07
07
0F
FB
F3
ENDCHAR
STARTCHAR 027A
ENCODING 634
SWIDTH 360 0
DWIDTH 10 0
BBX 8 21 0 0
BITMAP
03
03
03
03
03
03
03
03
03
03
03
03
03
03
03
03
07
07
0F
FB
F3
ENDCHAR
STARTCHAR 027B
ENCODING 635
SWIDTH 360 0
DWIDTH 10 0
BBX 11 21 0 -6
BITMAP
0300
0300
0300
0300
0300
0300
0300
0300
0300
0300
0700
0700
0F00
FB00
F300
0300
0300
0300
0380
01E0
00E0
ENDCHAR
STARTCHAR 027C
ENCODING 636
SWIDTH 360 0
DWIDTH 10 0
BBX 8 22 2 -6
BITMAP
03
EF
FF
F0
E0
E0
E0
E0
E0
E0
E0
E0
E0
E0
E0
E0
E0
E0
E0
E0
E0
E0
ENDCHAR
STARTCHAR 027D
ENCODING 637
SWIDTH 360 0
DWIDTH 10 0
BBX 8 22 2 -6
BITMAP
03
EF
FF
F0
E0
E0
E0
E0
E0
E0
E0
E0
E0
E0
E0
E0
E0
E0
E0
70
7F
1F
ENDCHAR
STARTCHAR 027E
ENCODING 638
SWIDTH 468 0
DWIDTH 13 0
BBX 9 16 2 0
BITMAP
0780
1F80
3C00
3000
3000
3000
3000
3000
3000
3000
3000
3000
3000
3000
FC00
FC00
ENDCHAR
STARTCHAR 027F
ENCODING 639
SWIDTH 468 0
DWIDTH 13 0
BBX 10 16 1 0
BITMAP
F800
FE00
0E00
0700
0700
0300
0300
0300
0300
0300
0300
0300
0300
0300
1FC0
1FC0
ENDCHAR
STARTCHAR 0280
ENCODING 640
SWIDTH 540 0
DWIDTH 15 0
BBX 12 15 2 0
BITMAP
FF80
FFC0
E1C0
E0C0
E0C0
E0C0
FFC0
FF00
FF80
E1C0
E0C0
E0E0
E060
E070
E030
ENDCHAR
STARTCHAR 0281
ENCODING 641
SWIDTH 540 0
DWIDTH 15 0
BBX 12 15 2 0
BITMAP
E030
E070
E060
E0E0
E0C0
E180
FF00
FF80
E3C0
E0C0
E0C0
E0C0
E1C0
FF80
FF00
ENDCHAR
STARTCHAR 0282
ENCODING 642
SWIDTH 468 0
DWIDTH 13 0
BBX 11 22 1 -6
BITMAP
0F00
3FC0
79C0
6000
E000
E000
7000
7E00
1F80
03C0
00E0
0060
0060
C0E0
FFC0
FF80
E000
E000
6000
7000
7F00
1F00
ENDCHAR
STARTCHAR 0283
ENCODING 643
SWIDTH 288 0
DWIDTH 8 0
BBX 9 27 0 -6
BITMAP
0F80
1F80
1800
3800
3800
3800
3800
3800
3800
3800
3800
3800
3800
3800
3800
3800
3800
3800
3800
3800
3800
3800
3800
3000
7000
F000
C000
ENDCHAR
STARTCHAR 0284
ENCODING 644
SWIDTH 288 0
DWIDTH 8 0
BBX 9 27 0 -6
BITMAP
0F80
1F80
1800
3800
3800
3800
F800
F800
3800
3800
3800
3800
3800
FE00
FE00
3800
3800
3800
3800
3800
3800
3800
3800
3000
7000
F000
C000
ENDCHAR
STARTCHAR 0285
ENCODING 645
SWIDTH 432 0
DWIDTH 12 0
BBX 9 21 1 -6
BITMAP
F800
FC00
0C00
0C00
0C00
0C00
0C00
0C00
0C00
0C00
0C00
0C00
0C00
0C00
0C00
0C00
0C00
0E00
0E00
0780
0380
ENDCHAR
STARTCHAR 0286
ENCODING 646
SWIDTH 288 0
DWIDTH 8 0
BBX 12 27 -3 -6
BITMAP
01F0
03F0
0300
0700
0700
0700
0700
0700
0700
0700
0700
0700
0700
0700
0700
0700
0700
0700
0700
0700
0700
7FC0
FFC0
C600
CE00
FE00
7800
ENDCHAR
STARTCHAR 0287
ENCODING 647
SWIDTH 360 0
DWIDTH 10 0
BBX 8 19 1 -4
BITMAP
F8
FC
0C
0E
0E
0E
0E
0E
0E
0E
0E
0E
0E
FF
FF
0E
0E
0E
0E
ENDCHAR
STARTCHAR 0288
ENCODING 648
SWIDTH 360 0
DWIDTH 10 0
BBX 8 26 1 -6
BITMAP
70
70
70
70
70
FF
FF
70
70
70
70
70
70
70
70
70
70
70
70
70
70
70
30
38
3F
0F
ENDCHAR
STARTCHAR 0289
ENCODING 649
SWIDTH 576 0
DWIDTH 16 0
BBX 16 15 0 0
BITMAP
301C
301C
301C
301C
301C
301C
301C
FFFF
FFFF
301C
381C
381C
1C3C
1FFC
0FDC
ENDCHAR
STARTCHAR 028A
ENCODING 650
SWIDTH 576 0
DWIDTH 16 0
BBX 13 15 1 0
BITMAP
FCF8
FCF8
1CE0
3870
7030
7038
6018
6018
6018
6018
6038
7030
3870
3FE0
0FC0
ENDCHAR
STARTCHAR 028B
ENCODING 651
SWIDTH 540 0
DWIDTH 15 0
BBX 12 15 2 0
BITMAP
E380
E3C0
E0E0
E060
E060
E070
E070
E070
E070
E070
E060
60E0
61C0
7F80
3F00
ENDCHAR
STARTCHAR 028C
ENCODING 652
SWIDTH 540 0
DWIDTH 15 0
BBX 13 15 1 0
BITMAP
0700
0F80
0D80
0D80
1DC0
18C0
18C0
38E0
3060
3060
7070
6030
6030
E038
C018
ENDCHAR
STARTCHAR 028D
ENCODING 653
SWIDTH 756 0
DWIDTH 21 0
BBX 18 15 1 0
BITMAP
1E0E00
1E0E00
1E0F00
1E1B00
1E1B00
3B1B00
331B80
333180
333180
71B180
61B180
61E1C0
61E0C0
E0E0C0
C0E0C0
ENDCHAR
STARTCHAR 028E
ENCODING 654
SWIDTH 540 0
DWIDTH 15 0
BBX 13 21 1 0
BITMAP
00F0
01F0
0380
0300
0300
0700
0700
0700
0F80
0D80
1D80
1DC0
18C0
38C0
30E0
3060
7070
6070
6030
E038
C018
ENDCHAR
STARTCHAR 028F
ENCODING 655
SWIDTH 540 0
DWIDTH 15 0
BBX 11 15 2 0
BITMAP
C060
E0E0
70C0
71C0
3B80
1B00
1F00
0E00
0E00
0E00
0E00
0E00
0E00
0E00
0E00
ENDCHAR
STARTCHAR 0290
ENCODING 656
SWIDTH 468 0
DWIDTH 13 0
BBX 14 21 1 -6
BITMAP
FFE0
FFE0
00E0
01C0
0380
0300
0700
0E00
1C00
1800
3800
7000
E000
FFE0
FFE0
0060
0060
0060
0070
003C
001C
ENDCHAR
STARTCHAR 0291
ENCODING 657
SWIDTH 468 0
DWIDTH 13 0
BBX 11 17 1 -2
BITMAP
FFE0
FFE0
00E0
01C0
0380
0300
0700
0E00
1C00
19C0
3BE0
7660
E660
FFE0
FFC0
0C00
0C00
ENDCHAR
STARTCHAR 0292
ENCODING 658
SWIDTH 540 0
DWIDTH 15 0
BBX 12 21 1 -6
BITMAP
FFE0
FFE0
00E0
01C0
0380
0300
0700
0E00
1C00
1F80
1FE0
00E0
0070
0030
0030
0030
0070
0070
F3E0
FFC0
3F00
ENDCHAR
STARTCHAR 0293
ENCODING 659
SWIDTH 540 0
DWIDTH 15 0
BBX 13 21 1 -6
BITMAP
FFE0
FFE0
00E0
01C0
0380
0300
0700
0E00
1C00
1F80
1FE0
00E0
0070
0030
0030
3F30
7FF0
60F0
73F0
7FD8
3F18
ENDCHAR
STARTCHAR 0294
ENCODING 660
SWIDTH 468 0
DWIDTH 13 0
BBX 10 21 1 0
BITMAP
7E00
FF80
83C0
01C0
00C0
00C0
00C0
00C0
01C0
03C0
1F80
1E00
1C00
1C00
1C00
1C00
1C00
1C00
1C00
1C00
1C00
ENDCHAR
STARTCHAR 0295
ENCODING 661
SWIDTH 468 0
DWIDTH 13 0
BBX 10 21 1 0
BITMAP
1FC0
3FC0
7040
6000
E000
E000
C000
E000
E000
7000
3E00
1E00
0600
0600
0600
0600
0600
0600
0600
0600
0600
ENDCHAR
STARTCHAR 0296
ENCODING 662
SWIDTH 468 0
DWIDTH 13 0
BBX 10 21 1 0
BITMAP
1C00
1C00
1C00
1C00
1C00
1C00
1C00
1C00
1C00
1F00
1F80
01C0
00C0
00C0
00C0
00C0
00C0
01C0
C380
FF80
7E00
ENDCHAR
STARTCHAR 0297
ENCODING 663
SWIDTH 468 0
DWIDTH 13 0
BBX 10 27 1 -6
BITMAP
1FC0
3FC0
7040
E000
E000
C000
C000
C000
C000
C000
C000
C000
C000
C000
C000
C000
C000
C000
C000
C000
C000
E000
E000
6000
7840
3FC0
0F80
ENDCHAR
STARTCHAR 0298
ENCODING 664
SWIDTH 720 0
DWIDTH 20 0
BBX 17 21 1 0
BITMAP
01E000
0FF800
1FFE00
3C0E00
380700
700300
700380
600380
600180
E08180
E0C180
E0C180
E00180
600180
600380
700380
700700
380700
1C0E00
0FFC00
07F800
ENDCHAR
STARTCHAR 0299
ENCODING 665
SWIDTH 540 0
DWIDTH 15 0
BBX 11 15 2 0
BITMAP
FF80
FFC0
E0E0
E0E0
E0E0
E1C0
FF80
FFC0
E0E0
E060
E060
E060
E0E0
FFC0
FF80
ENDCHAR
STARTCHAR 029A
ENCODING 666
SWIDTH 612 0
DWIDTH 17 0
BBX 14 16 1 0
BITMAP
0F00
3FE0
7FF0
6038
6018
601C
701C
1F0C
3F0C
700C
E01C
E01C
E018
7038
7FF0
3FE0
ENDCHAR
STARTCHAR 029B
ENCODING 667
SWIDTH 648 0
DWIDTH 18 0
BBX 17 21 1 0
BITMAP
001F80
001F80
003800
003000
003000
03B000
1FF000
3EF000
701000
700000
600000
E00000
E00000
E07800
E07800
601800
601800
701800
381800
3FF800
0FF000
ENDCHAR
STARTCHAR 029C
ENCODING 668
SWIDTH 576 0
DWIDTH 16 0
BBX 12 15 2 0
BITMAP
E030
E030
E030
E030
E030
E030
FFF0
FFF0
E030
E030
E030
E030
E030
E030
E030
ENDCHAR
STARTCHAR 029D
ENCODING 669
SWIDTH 252 0
DWIDTH 7 0
BBX 10 27 -3 -6
BITMAP
0700
0700
0700
0000
0000
0000
0700
0700
0700
0700
0700
0700
0700
0700
0700
0700
0700
0700
0700
0700
0700
7FC0
FFC0
C600
CE00
FE00
7800
ENDCHAR
STARTCHAR 029E
ENCODING 670
SWIDTH 612 0
DWIDTH 17 0
BBX 12 21 3 -6
BITMAP
E070
7070
3870
1C70
0E70
0770
03F0
01F0
03F0
0770
0E70
1C70
3870
7070
E070
0070
0070
0070
0070
0070
0070
ENDCHAR
STARTCHAR 029F
ENCODING 671
SWIDTH 468 0
DWIDTH 13 0
BBX 10 15 2 0
BITMAP
E000
E000
E000
E000
E000
E000
E000
E000
E000
E000
E000
E000
E000
FFC0
FFC0
ENDCHAR
STARTCHAR 02A0
ENCODING 672
SWIDTH 648 0
DWIDTH 18 0
BBX 18 27 1 -6
BITMAP
000FC0
001FC0
001800
001800
003800
073800
1FB800
3DF800
707800
603800
603800
E03800
E03800
E03800
E03800
603800
603800
703800
307800
3FF800
1FB800
003800
003800
003800
003800
003800
003800
ENDCHAR
STARTCHAR 02A1
ENCODING 673
SWIDTH 468 0
DWIDTH 13 0
BBX 10 21 1 0
BITMAP
7E00
FF80
83C0
01C0
00C0
00C0
00C0
00C0
01C0
03C0
1F80
1E00
1C00
1C00
1C00
FF80
FF80
1C00
1C00
1C00
1C00
ENDCHAR
STARTCHAR 02A2
ENCODING 674
SWIDTH 468 0
DWIDTH 13 0
BBX 10 21 1 0
BITMAP
1FC0
3FC0
7040
6000
E000
E000
C000
E000
E000
7000
3E00
1E00
0600
0600
0600
3FC0
3FC0
0600
0600
0600
0600
ENDCHAR
STARTCHAR 02A3
ENCODING 675
SWIDTH 936 0
DWIDTH 26 0
BBX 23 21 1 0
BITMAP
003800
003800
003800
003800
003800
073800
1FBFFE
3DFFFE
70780E
60381C
60381C
E03838
E03870
E038E0
E038C0
6039C0
603B80
703F00
307E00
3FFFFE
1FBFFE
ENDCHAR
STARTCHAR 02A4
ENCODING 676
SWIDTH 972 0
DWIDTH 27 0
BBX 25 27 1 -6
BITMAP
00380000
00380000
00380000
00380000
00380000
07380000
1FBFFE00
3DFFFE00
70780E00
60380C00
60381C00
E0383800
E0387000
E038E000
E038E000
6038FC00
6038FE00
70380700
30780700
3FF80300
1FB80380
00000380
00000300
00080700
000F3E00
000FFC00
0003F800
ENDCHAR
STARTCHAR 02A5
ENCODING 677
SWIDTH 936 0
DWIDTH 26 0
BBX 23 23 1 -2
BITMAP
003800
003800
003800
003800
003800
073800
1FBFFE
3DFFFE
70780E
60381C
603818
E03838
E03870
E038E0
E038C0
6039DC
603BBE
703F76
307E66
3FFFFE
1FBFFC
000060
000060
ENDCHAR
STARTCHAR 02A6
ENCODING 678
SWIDTH 756 0
DWIDTH 21 0
BBX 19 20 1 0
BITMAP
700000
700000
700000
700000
700F00
FF3FC0
FF7BC0
70E000
70C000
70E000
707000
707E00
703F80
7003C0
7000E0
7000E0
7000E0
3001C0
3FFFC0
1FFF80
ENDCHAR
STARTCHAR 02A7
ENCODING 679
SWIDTH 540 0
DWIDTH 15 0
BBX 15 27 1 -6
BITMAP
003E
707E
70E0
70E0
70E0
70E0
FFE0
FFE0
70E0
70E0
70E0
70E0
70E0
70E0
70E0
70E0
70E0
70E0
30E0
3FE0
1FE0
00E0
00E0
00C0
01C0
07C0
0700
ENDCHAR
STARTCHAR 02A8
ENCODING 680
SWIDTH 720 0
DWIDTH 20 0
BBX 17 22 1 -2
BITMAP
700000
700000
700000
700000
700E00
FF7F80
FFFB80
71C000
71C000
718000
738000
738000
738000
738000
738000
719F00
71FB80
30F180
3FFF80
1FFF80
006000
006000
ENDCHAR
STARTCHAR 02A9
ENCODING 681
SWIDTH 756 0
DWIDTH 21 0
BBX 19 27 1 -6
BITMAP
1F0000
3F0000
300000
300000
300000
300600
FFDFC0
FFFFC0
30E0E0
30E060
30C060
30C060
30C060
30C060
30C060
30C060
30C060
30C060
30C060
30C060
30C060
000060
000060
000060
0000E0
000FC0
000F80
ENDCHAR
STARTCHAR 02AA
ENCODING 682
SWIDTH 648 0
DWIDTH 18 0
BBX 15 21 2 0
BITMAP
E000
E000
E000
E000
E000
E0E0
E7FC
E7BC
EE00
EC00
EC00
EF00
E7E0
E3F8
E07C
E00C
E00E
E00C
E01C
FFFC
FFF0
ENDCHAR
STARTCHAR 02AB
ENCODING 683
SWIDTH 576 0
DWIDTH 16 0
BBX 13 21 2 0
BITMAP
E000
E000
E000
E000
E000
E000
FFF8
FFF8
E038
E070
E060
E0E0
E1C0
E380
E300
E700
EE00
FC00
F800
FFF8
FFF8
ENDCHAR
STARTCHAR 02AC
ENCODING 684
SWIDTH 468 0
DWIDTH 13 0
BBX 11 18 1 0
BITMAP
8420
8E60
CA60
4A40
5B40
71C0
71C0
3180
3180
0000
8E20
CA60
CA60
4A40
5B40
71C0
71C0
3180
ENDCHAR
STARTCHAR 02AD
ENCODING 685
SWIDTH 468 0
DWIDTH 13 0
BBX 11 16 1 2
BITMAP
FFE0
FFE0
8020
8020
8020
8020
0000
0000
0000
0000
FFE0
FFE0
8020
8020
8020
8020
ENDCHAR
STARTCHAR 02AE
ENCODING 686
SWIDTH 612 0
DWIDTH 17 0
BBX 14 27 0 -6
BITMAP
F000
F000
3800
1800
1800
1800
180C
180C
180C
180C
180C
180C
180C
180C
180C
180C
180C
1C1C
1C3C
0FEC
07CC
000C
000C
000C
000C
000C
000C
ENDCHAR
STARTCHAR 02AF
ENCODING 687
SWIDTH 612 0
DWIDTH 17 0
BBX 17 27 0 -6
BITMAP
F00000
F00000
380000
180000
180000
180000
180C00
180C00
180C00
180C00
180C00
180C00
180C00
180C00
180C00
180C00
180C00
1C1C00
1C3C00
0FEC00
07CC00
000C00
000C00
000E00
000600
000780
000380
ENDCHAR
STARTCHAR 02B0
ENCODING 688
SWIDTH 360 0
DWIDTH 10 0
BBX 8 12 1 9
BITMAP
C0
C0
C0
DC
E6
C3
C3
C3
C3
C3
C3
C3
ENDCHAR
STARTCHAR 02B1
ENCODING 689
SWIDTH 360 0
DWIDTH 10 0
BBX 8 12 1 9
BITMAP
78
40
C0
DC
E6
C3
C3
C3
C3
C3
C3
C3
ENDCHAR
STARTCHAR 02B2
ENCODING 690
SWIDTH 144 0
DWIDTH 4 0
BBX 3 15 0 6
BITMAP
20
20
00
20
20
20
20
20
20
20
20
20
60
60
C0
ENDCHAR
STARTCHAR 02B3
ENCODING 691
SWIDTH 252 0
DWIDTH 7 0
BBX 6 9 1 9
BITMAP
DC
F4
C0
C0
C0
C0
C0
C0
C0
ENDCHAR
STARTCHAR 02B4
ENCODING 692
SWIDTH 252 0
DWIDTH 7 0
BBX 5 9 1 9
BITMAP
08
08
08
08
08
18
18
38
E8
ENDCHAR
STARTCHAR 02B5
ENCODING 693
SWIDTH 252 0
DWIDTH 7 0
BBX 7 12 1 6
BITMAP
08
08
08
08
08
18
18
38
E8
08
08
0E
ENDCHAR
STARTCHAR 02B6
ENCODING 694
SWIDTH 360 0
DWIDTH 10 0
BBX 8 9 0 9
BITMAP
C3
C2
C6
CC
FC
C6
C6
CE
F8
ENDCHAR
STARTCHAR 02B7
ENCODING 695
SWIDTH 468 0
DWIDTH 13 0
BBX 11 9 1 9
BITMAP
8420
8E20
CA60
4A40
4A40
5BC0
71C0
3180
3180
ENDCHAR
STARTCHAR 02B8
ENCODING 696
SWIDTH 324 0
DWIDTH 9 0
BBX 8 12 1 6
BITMAP
83
82
C2
46
64
2C
28
38
18
10
30
E0
ENDCHAR
STARTCHAR 02B9
ENCODING 697
SWIDTH 252 0
DWIDTH 7 0
BBX 3 6 2 16
BITMAP
60
60
E0
C0
C0
C0
ENDCHAR
STARTCHAR 02BA
ENCODING 698
SWIDTH 432 0
DWIDTH 12 0
BBX 8 6 2 16
BITMAP
67
66
E6
C6
C6
C6
ENDCHAR
STARTCHAR 02BB
ENCODING 699
SWIDTH 288 0
DWIDTH 8 0
BBX 4 6 2 14
BITMAP
30
60
60
E0
E0
E0
ENDCHAR
STARTCHAR 02BC
ENCODING 700
SWIDTH 288 0
DWIDTH 8 0
BBX 4 6 2 14
BITMAP
70
70
60
60
40
C0
ENDCHAR
STARTCHAR 02BD
ENCODING 701
SWIDTH 288 0
DWIDTH 8 0
BBX 4 7 2 17
BITMAP
E0
E0
E0
60
60
30
30
ENDCHAR
STARTCHAR 02BE
ENCODING 702
SWIDTH 288 0
DWIDTH 8 0
BBX 4 7 1 14
BITMAP
E0
60
30
30
30
60
C0
ENDCHAR
STARTCHAR 02BF
ENCODING 703
SWIDTH 288 0
DWIDTH 8 0
BBX 4 7 1 14
BITMAP
30
60
40
C0
40
70
30
ENDCHAR
STARTCHAR 02C0
ENCODING 704
SWIDTH 324 0
DWIDTH 9 0
BBX 7 12 1 9
BITMAP
F8
8C
06
06
06
0C
38
30
30
30
30
30
ENDCHAR
STARTCHAR 02C1
ENCODING 705
SWIDTH 324 0
DWIDTH 9 0
BBX 7 12 1 9
BITMAP
3E
62
40
C0
40
60
38
18
18
18
18
18
ENDCHAR
STARTCHAR 02C2
ENCODING 706
SWIDTH 468 0
DWIDTH 13 0
BBX 6 8 3 15
BITMAP
04
1C
78
E0
E0
78
1C
04
ENDCHAR
STARTCHAR 02C3
ENCODING 707
SWIDTH 468 0
DWIDTH 13 0
BBX 6 8 3 15
BITMAP
C0
F0
3C
0C
0C
38
F0
C0
ENDCHAR
STARTCHAR 02C4
ENCODING 708
SWIDTH 468 0
DWIDTH 13 0
BBX 7 6 3 16
BITMAP
38
38
6C
4C
C4
86
ENDCHAR
STARTCHAR 02C5
ENCODING 709
SWIDTH 468 0
DWIDTH 13 0
BBX 7 6 3 16
BITMAP
C6
C4
4C
68
38
38
ENDCHAR
STARTCHAR 02C6
ENCODING 710
SWIDTH 468 0
DWIDTH 13 0
BBX 7 5 3 17
BITMAP
38
78
6C
C6
86
ENDCHAR
STARTCHAR 02C7
ENCODING 711
SWIDTH 468 0
DWIDTH 13 0
BBX 7 5 3 17
BITMAP
C6
CC
6C
38
30
ENDCHAR
STARTCHAR 02C8
ENCODING 712
SWIDTH 252 0
DWIDTH 7 0
BBX 1 7 3 14
BITMAP
80
80
80
80
80
80
80
ENDCHAR
STARTCHAR 02C9
ENCODING 713
SWIDTH 468 0
DWIDTH 13 0
BBX 7 2 3 19
BITMAP
FE
FE
ENDCHAR
STARTCHAR 02CA
ENCODING 714
SWIDTH 468 0
DWIDTH 13 0
BBX 5 5 5 17
BITMAP
38
30
60
C0
C0
ENDCHAR
STARTCHAR 02CB
ENCODING 715
SWIDTH 468 0
DWIDTH 13 0
BBX 5 5 3 17
BITMAP
C0
60
60
30
18
ENDCHAR
STARTCHAR 02CC
ENCODING 716
SWIDTH 252 0
DWIDTH 7 0
BBX 1 7 3 -4
BITMAP
80
80
80
80
80
80
80
ENDCHAR
STARTCHAR 02CD
ENCODING 717
SWIDTH 468 0
DWIDTH 13 0
BBX 7 2 3 -4
BITMAP
FE
FE
ENDCHAR
STARTCHAR 02CE
ENCODING 718
SWIDTH 468 0
DWIDTH 13 0
BBX 6 6 2 -7
BITMAP
E0
60
30
38
18
0C
ENDCHAR
STARTCHAR 02CF
ENCODING 719
SWIDTH 468 0
DWIDTH 13 0
BBX 5 6 5 -7
BITMAP
18
38
30
60
C0
C0
ENDCHAR
STARTCHAR 02D0
ENCODING 720
SWIDTH 288 0
DWIDTH 8 0
BBX 4 14 2 0
BITMAP
E0
E0
40
40
00
00
00
00
00
00
40
60
E0
F0
ENDCHAR
STARTCHAR 02D1
ENCODING 721
SWIDTH 288 0
DWIDTH 8 0
BBX 3 4 2 10
BITMAP
E0
E0
40
40
ENDCHAR
STARTCHAR 02D2
ENCODING 722
SWIDTH 288 0
DWIDTH 8 0
BBX 4 7 1 7
BITMAP
E0
60
30
30
30
60
C0
ENDCHAR
STARTCHAR 02D3
ENCODING 723
SWIDTH 288 0
DWIDTH 8 0
BBX 4 7 1 7
BITMAP
30
60
40
C0
40
70
30
ENDCHAR
STARTCHAR 02D4
ENCODING 724
SWIDTH 468 0
DWIDTH 13 0
BBX 5 7 4 6
BITMAP
60
60
60
60
60
F8
F8
ENDCHAR
STARTCHAR 02D5
ENCODING 725
SWIDTH 468 0
DWIDTH 13 0
BBX 5 7 4 6
BITMAP
F8
F8
E0
60
60
60
60
ENDCHAR
STARTCHAR 02D6
ENCODING 726
SWIDTH 360 0
DWIDTH 10 0
BBX 8 9 1 3
BITMAP
18
18
18
FF
FF
18
18
18
18
ENDCHAR
STARTCHAR 02D7
ENCODING 727
SWIDTH 288 0
DWIDTH 8 0
BBX 6 2 1 7
BITMAP
FC
FC
ENDCHAR
STARTCHAR 02D8
ENCODING 728
SWIDTH 468 0
DWIDTH 13 0
BBX 8 4 2 18
BITMAP
C1
63
7E
3C
ENDCHAR
STARTCHAR 02D9
ENCODING 729
SWIDTH 468 0
DWIDTH 13 0
BBX 3 3 5 18
BITMAP
E0
E0
E0
ENDCHAR
STARTCHAR 02DA
ENCODING 730
SWIDTH 468 0
DWIDTH 13 0
BBX 7 8 3 17
BITMAP
10
7C
CC
C6
86
C4
7C
38
ENDCHAR
STARTCHAR 02DB
ENCODING 731
SWIDTH 468 0
DWIDTH 13 0
BBX 5 5 4 -5
BITMAP
60
C0
C0
C8
F8
ENDCHAR
STARTCHAR 02DC
ENCODING 732
SWIDTH 468 0
DWIDTH 13 0
BBX 8 4 2 18
BITMAP
31
79
CF
C6
ENDCHAR
STARTCHAR 02DD
ENCODING 733
SWIDTH 468 0
DWIDTH 13 0
BBX 8 5 3 17
BITMAP
33
66
66
4C
CC
ENDCHAR
STARTCHAR 02DE
ENCODING 734
SWIDTH 288 0
DWIDTH 8 0
BBX 8 7 0 7
BITMAP
3C
7C
FC
9C
0C
0F
07
ENDCHAR
STARTCHAR 02DF
ENCODING 735
SWIDTH 468 0
DWIDTH 13 0
BBX 6 5 3 17
BITMAP
EC
38
38
7C
CC
ENDCHAR
STARTCHAR 02E0
ENCODING 736
SWIDTH 396 0
DWIDTH 11 0
BBX 7 12 2 6
BITMAP
82
C6
6C
38
30
38
68
4C
44
C4
C6
7C
ENDCHAR
STARTCHAR 02E1
ENCODING 737
SWIDTH 144 0
DWIDTH 4 0
BBX 2 12 1 9
BITMAP
C0
C0
C0
C0
C0
C0
C0
C0
C0
C0
C0
C0
ENDCHAR
STARTCHAR 02E2
ENCODING 738
SWIDTH 324 0
DWIDTH 9 0
BBX 7 9 1 9
BITMAP
7E
42
40
60
3C
06
02
CE
7C
ENDCHAR
STARTCHAR 02E3
ENCODING 739
SWIDTH 396 0
DWIDTH 11 0
BBX 8 9 2 9
BITMAP
C3
46
6C
38
18
38
6C
C6
83
ENDCHAR
STARTCHAR 02E4
ENCODING 740
SWIDTH 324 0
DWIDTH 9 0
BBX 7 12 1 9
BITMAP
3E
62
40
C0
40
60
38
18
18
18
18
18
ENDCHAR
STARTCHAR 02E5
ENCODING 741
SWIDTH 432 0
DWIDTH 12 0
BBX 7 19 3 0
BITMAP
FE
FE
06
06
06
06
06
06
06
06
06
06
06
06
06
06
06
06
06
ENDCHAR
STARTCHAR 02E6
ENCODING 742
SWIDTH 432 0
DWIDTH 12 0
BBX 7 19 3 0
BITMAP
06
06
06
06
06
FE
06
06
06
06
06
06
06
06
06
06
06
06
06
ENDCHAR
STARTCHAR 02E7
ENCODING 743
SWIDTH 432 0
DWIDTH 12 0
BBX 7 19 3 0
BITMAP
06
06
06
06
06
06
06
06
06
FE
FE
06
06
06
06
06
06
06
06
ENDCHAR
STARTCHAR 02E8
ENCODING 744
SWIDTH 432 0
DWIDTH 12 0
BBX 7 19 3 0
BITMAP
06
06
06
06
06
06
06
06
06
06
06
06
06
FE
FE
06
06
06
06
ENDCHAR
STARTCHAR 02E9
ENCODING 745
SWIDTH 432 0
DWIDTH 12 0
BBX 7 19 3 0
BITMAP
06
06
06
06
06
06
06
06
06
06
06
06
06
06
06
06
06
FE
FE
ENDCHAR
STARTCHAR 02EC
ENCODING 748
SWIDTH 468 0
DWIDTH 13 0
BBX 7 6 3 -7
BITMAP
C6
C4
4C
68
38
38
ENDCHAR
STARTCHAR 02ED
ENCODING 749
SWIDTH 468 0
DWIDTH 13 0
BBX 7 6 3 17
BITMAP
FE
FE
00
00
FE
FE
ENDCHAR
STARTCHAR 02EE
ENCODING 750
SWIDTH 468 0
DWIDTH 13 0
BBX 9 6 2 14
BITMAP
7380
7380
6380
6300
6300
C600
ENDCHAR
STARTCHAR 02F3
ENCODING 755
SWIDTH 468 0
DWIDTH 13 0
BBX 7 8 3 -7
BITMAP
10
7C
CC
C6
86
C4
7C
38
ENDCHAR
STARTCHAR 02F7
ENCODING 759
SWIDTH 468 0
DWIDTH 13 0
BBX 8 3 2 -5
BITMAP
71
DB
CF
ENDCHAR
STARTCHAR 0300
ENCODING 768
SWIDTH 0 0
DWIDTH 0 0
BBX 5 5 -10 16
BITMAP
E0
60
30
18
18
ENDCHAR
STARTCHAR 0301
ENCODING 769
SWIDTH 0 0
DWIDTH 0 0
BBX 5 5 -8 16
BITMAP
18
30
70
60
C0
ENDCHAR
STARTCHAR 0302
ENCODING 770
SWIDTH 0 0
DWIDTH 0 0
BBX 8 5 -10 16
BITMAP
38
3C
6C
C6
C3
ENDCHAR
STARTCHAR 0303
ENCODING 771
SWIDTH 0 0
DWIDTH 0 0
BBX 8 4 -10 18
BITMAP
63
F3
9E
8E
ENDCHAR
STARTCHAR 0304
ENCODING 772
SWIDTH 0 0
DWIDTH 0 0
BBX 7 2 -10 19
BITMAP
FE
FE
ENDCHAR
STARTCHAR 0305
ENCODING 773
SWIDTH 0 0
DWIDTH 0 0
BBX 13 2 -13 19
BITMAP
FFF8
FFF8
ENDCHAR
STARTCHAR 0306
ENCODING 774
SWIDTH 0 0
DWIDTH 0 0
BBX 7 4 -10 18
BITMAP
82
C6
FE
3C
ENDCHAR
STARTCHAR 0307
ENCODING 775
SWIDTH 0 0
DWIDTH 0 0
BBX 2 3 -7 16
BITMAP
C0
C0
C0
ENDCHAR
STARTCHAR 0308
ENCODING 776
SWIDTH 0 0
DWIDTH 0 0
BBX 7 3 -10 16
BITMAP
E6
E6
E6
ENDCHAR
STARTCHAR 0309
ENCODING 777
SWIDTH 0 0
DWIDTH 0 0
BBX 6 6 -9 17
BITMAP
30
DC
0C
18
30
30
ENDCHAR
STARTCHAR 030A
ENCODING 778
SWIDTH 0 0
DWIDTH 0 0
BBX 7 8 -10 17
BITMAP
10
7C
66
C6
C2
46
7C
38
ENDCHAR
STARTCHAR 030B
ENCODING 779
SWIDTH 0 0
DWIDTH 0 0
BBX 8 5 -9 17
BITMAP
67
66
CC
CC
98
ENDCHAR
STARTCHAR 030C
ENCODING 780
SWIDTH 0 0
DWIDTH 0 0
BBX 7 5 -10 16
BITMAP
C6
66
2C
38
18
ENDCHAR
STARTCHAR 030D
ENCODING 781
SWIDTH 0 0
DWIDTH 0 0
BBX 2 6 -7 17
BITMAP
C0
C0
C0
C0
C0
C0
ENDCHAR
STARTCHAR 030E
ENCODING 782
SWIDTH 0 0
DWIDTH 0 0
BBX 7 6 -10 17
BITMAP
C6
C6
C6
C6
C6
C6
ENDCHAR
STARTCHAR 030F
ENCODING 783
SWIDTH 0 0
DWIDTH 0 0
BBX 8 5 -11 17
BITMAP
CC
66
66
33
33
ENDCHAR
STARTCHAR 0310
ENCODING 784
SWIDTH 0 0
DWIDTH 0 0
BBX 7 7 -10 18
BITMAP
18
18
18
82
C6
FE
3C
ENDCHAR
STARTCHAR 0311
ENCODING 785
SWIDTH 0 0
DWIDTH 0 0
BBX 7 4 -10 18
BITMAP
3C
FE
C6
82
ENDCHAR
STARTCHAR 0312
ENCODING 786
SWIDTH 0 0
DWIDTH 0 0
BBX 4 4 -6 14
BITMAP
30
60
60
E0
ENDCHAR
STARTCHAR 0313
ENCODING 787
SWIDTH 0 0
DWIDTH 0 0
BBX 3 7 -8 17
BITMAP
E0
E0
E0
E0
20
60
E0
ENDCHAR
STARTCHAR 0314
ENCODING 788
SWIDTH 0 0
DWIDTH 0 0
BBX 3 7 -8 17
BITMAP
E0
E0
E0
E0
C0
60
60
ENDCHAR
STARTCHAR 0315
ENCODING 789
SWIDTH 0 0
DWIDTH 0 0
BBX 3 5 -2 16
BITMAP
60
60
60
60
C0
ENDCHAR
STARTCHAR 0316
ENCODING 790
SWIDTH 0 0
DWIDTH 0 0
BBX 5 5 -10 -8
BITMAP
E0
60
30
18
18
ENDCHAR
STARTCHAR 0317
ENCODING 791
SWIDTH 0 0
DWIDTH 0 0
BBX 5 5 -8 -8
BITMAP
18
30
70
60
C0
ENDCHAR
STARTCHAR 0318
ENCODING 792
SWIDTH 0 0
DWIDTH 0 0
BBX 3 6 -9 -7
BITMAP
20
20
E0
E0
20
20
ENDCHAR
STARTCHAR 0319
ENCODING 793
SWIDTH 0 0
DWIDTH 0 0
BBX 3 6 -7 -7
BITMAP
80
80
E0
E0
80
80
ENDCHAR
STARTCHAR 031A
ENCODING 794
SWIDTH 0 0
DWIDTH 0 0
BBX 6 7 -5 19
BITMAP
FC
FC
0C
0C
0C
0C
0C
ENDCHAR
STARTCHAR 031B
ENCODING 795
SWIDTH 0 0
DWIDTH 0 0
BBX 5 5 -3 12
BITMAP
10
18
98
F0
70
ENDCHAR
STARTCHAR 031C
ENCODING 796
SWIDTH 0 0
DWIDTH 0 0
BBX 3 6 -8 -7
BITMAP
60
E0
C0
C0
60
20
ENDCHAR
STARTCHAR 031D
ENCODING 797
SWIDTH 0 0
DWIDTH 0 0
BBX 6 5 -9 -7
BITMAP
30
30
30
FC
FC
ENDCHAR
STARTCHAR 031E
ENCODING 798
SWIDTH 0 0
DWIDTH 0 0
BBX 6 5 -9 -7
BITMAP
FC
FC
30
30
30
ENDCHAR
STARTCHAR 031F
ENCODING 799
SWIDTH 0 0
DWIDTH 0 0
BBX 5 6 -9 -7
BITMAP
20
20
F8
F8
20
20
ENDCHAR
STARTCHAR 0320
ENCODING 800
SWIDTH 0 0
DWIDTH 0 0
BBX 6 2 -9 -5
BITMAP
FC
FC
ENDCHAR
STARTCHAR 0321
ENCODING 801
SWIDTH 0 0
DWIDTH 0 0
BBX 7 8 -8 -6
BITMAP
06
06
06
06
06
0E
FC
F8
ENDCHAR
STARTCHAR 0322
ENCODING 802
SWIDTH 0 0
DWIDTH 0 0
BBX 7 8 -8 -6
BITMAP
C0
C0
C0
C0
E0
E0
7E
3E
ENDCHAR
STARTCHAR 0323
ENCODING 803
SWIDTH 0 0
DWIDTH 0 0
BBX 2 3 -7 -5
BITMAP
C0
C0
C0
ENDCHAR
STARTCHAR 0324
ENCODING 804
SWIDTH 0 0
DWIDTH 0 0
BBX 7 3 -10 -6
BITMAP
E6
E6
E6
ENDCHAR
STARTCHAR 0325
ENCODING 805
SWIDTH 0 0
DWIDTH 0 0
BBX 5 6 -9 -7
BITMAP
70
F8
C8
C8
78
30
ENDCHAR
STARTCHAR 0326
ENCODING 806
SWIDTH 0 0
DWIDTH 0 0
BBX 3 5 -8 -7
BITMAP
60
60
E0
C0
C0
ENDCHAR
STARTCHAR 0327
ENCODING 807
SWIDTH 0 0
DWIDTH 0 0
BBX 5 5 -9 -5
BITMAP
10
18
18
98
F8
ENDCHAR
STARTCHAR 0328
ENCODING 808
SWIDTH 0 0
DWIDTH 0 0
BBX 4 5 -8 -5
BITMAP
C0
80
80
C0
F0
ENDCHAR
STARTCHAR 0329
ENCODING 809
SWIDTH 0 0
DWIDTH 0 0
BBX 2 6 -7 -7
BITMAP
C0
C0
C0
C0
C0
C0
ENDCHAR
STARTCHAR 032A
ENCODING 810
SWIDTH 0 0
DWIDTH 0 0
BBX 7 5 -10 -6
BITMAP
FE
FE
C6
C6
C6
ENDCHAR
STARTCHAR 032B
ENCODING 811
SWIDTH 0 0
DWIDTH 0 0
BBX 10 4 -11 -6
BITMAP
88C0
8CC0
FF80
7780
ENDCHAR
STARTCHAR 032C
ENCODING 812
SWIDTH 0 0
DWIDTH 0 0
BBX 7 5 -10 -7
BITMAP
C6
66
2C
38
18
ENDCHAR
STARTCHAR 032D
ENCODING 813
SWIDTH 0 0
DWIDTH 0 0
BBX 7 5 -10 -7
BITMAP
38
3C
6C
C6
C2
ENDCHAR
STARTCHAR 032E
ENCODING 814
SWIDTH 0 0
DWIDTH 0 0
BBX 7 4 -10 -6
BITMAP
82
C6
FE
3C
ENDCHAR
STARTCHAR 032F
ENCODING 815
SWIDTH 0 0
DWIDTH 0 0
BBX 7 4 -10 -6
BITMAP
18
7E
C6
82
ENDCHAR
STARTCHAR 0330
ENCODING 816
SWIDTH 0 0
DWIDTH 0 0
BBX 8 4 -10 -6
BITMAP
63
F3
9E
8E
ENDCHAR
STARTCHAR 0331
ENCODING 817
SWIDTH 0 0
DWIDTH 0 0
BBX 7 2 -10 -4
BITMAP
FE
FE
ENDCHAR
STARTCHAR 0332
ENCODING 818
SWIDTH 0 0
DWIDTH 0 0
BBX 13 2 -13 -7
BITMAP
FFF8
FFF8
ENDCHAR
STARTCHAR 0333
ENCODING 819
SWIDTH 0 0
DWIDTH 0 0
BBX 13 6 -13 -7
BITMAP
FFF8
FFF8
0000
0000
FFF8
FFF8
ENDCHAR
STARTCHAR 0334
ENCODING 820
SWIDTH 0 0
DWIDTH 0 0
BBX 13 4 -14 7
BITMAP
1800
FE18
FFF8
81F0
ENDCHAR
STARTCHAR 0335
ENCODING 821
SWIDTH 0 0
DWIDTH 0 0
BBX 7 2 -8 6
BITMAP
FE
FE
ENDCHAR
STARTCHAR 0336
ENCODING 822
SWIDTH 0 0
DWIDTH 0 0
BBX 16 2 -16 6
BITMAP
FFFF
FFFF
ENDCHAR
STARTCHAR 0337
ENCODING 823
SWIDTH 0 0
DWIDTH 0 0
BBX 13 17 -14 0
BITMAP
0018
0030
0030
0060
00C0
0180
0180
0300
0600
0600
0C00
1800
3000
3000
6000
C000
8000
ENDCHAR
STARTCHAR 0338
ENCODING 824
SWIDTH 0 0
DWIDTH 0 0
BBX 16 22 -18 -1
BITMAP
0001
0003
0006
000E
000C
0018
0030
0070
0060
00C0
0180
0380
0300
0600
0C00
1C00
1800
3000
6000
C000
C000
8000
ENDCHAR
STARTCHAR 0339
ENCODING 825
SWIDTH 0 0
DWIDTH 0 0
BBX 2 6 -7 -7
BITMAP
80
C0
40
40
C0
80
ENDCHAR
STARTCHAR 033A
ENCODING 826
SWIDTH 0 0
DWIDTH 0 0
BBX 7 5 -10 -6
BITMAP
C6
C6
C6
FE
FE
ENDCHAR
STARTCHAR 033B
ENCODING 827
SWIDTH 0 0
DWIDTH 0 0
BBX 6 6 -9 -7
BITMAP
FC
8C
8C
8C
FC
FC
ENDCHAR
STARTCHAR 033C
ENCODING 828
SWIDTH 0 0
DWIDTH 0 0
BBX 10 4 -11 -6
BITMAP
2300
FF80
DC80
8CC0
ENDCHAR
STARTCHAR 033D
ENCODING 829
SWIDTH 0 0
DWIDTH 0 0
BBX 5 6 -9 17
BITMAP
C8
78
70
78
D8
08
ENDCHAR
STARTCHAR 033E
ENCODING 830
SWIDTH 0 0
DWIDTH 0 0
BBX 3 7 -6 17
BITMAP
60
E0
80
C0
60
60
E0
ENDCHAR
STARTCHAR 033F
ENCODING 831
SWIDTH 0 0
DWIDTH 0 0
BBX 13 6 -13 15
BITMAP
FFF8
FFF8
0000
0000
FFF8
FFF8
ENDCHAR
STARTCHAR 0340
ENCODING 832
SWIDTH 0 0
DWIDTH 0 0
BBX 5 5 -10 17
BITMAP
E0
60
30
18
18
ENDCHAR
STARTCHAR 0341
ENCODING 833
SWIDTH 0 0
DWIDTH 0 0
BBX 5 5 -8 17
BITMAP
18
30
70
60
C0
ENDCHAR
STARTCHAR 0342
ENCODING 834
SWIDTH 0 0
DWIDTH 0 0
BBX 8 4 -10 18
BITMAP
63
F3
9E
8E
ENDCHAR
STARTCHAR 0343
ENCODING 835
SWIDTH 0 0
DWIDTH 0 0
BBX 3 7 -8 17
BITMAP
E0
E0
E0
E0
20
60
E0
ENDCHAR
STARTCHAR 0344
ENCODING 836
SWIDTH 0 0
DWIDTH 0 0
BBX 8 9 -10 18
BITMAP
07
0E
0C
18
30
00
E7
E7
E7
ENDCHAR
STARTCHAR 0345
ENCODING 837
SWIDTH 0 0
DWIDTH 0 0
BBX 3 5 -7 -6
BITMAP
C0
C0
C0
C0
E0
ENDCHAR
STARTCHAR 0346
ENCODING 838
SWIDTH 0 0
DWIDTH 0 0
BBX 7 4 -10 18
BITMAP
FE
FE
C2
C2
ENDCHAR
STARTCHAR 0347
ENCODING 839
SWIDTH 0 0
DWIDTH 0 0
BBX 5 5 -9 -6
BITMAP
F8
F8
00
00
F8
ENDCHAR
STARTCHAR 0348
ENCODING 840
SWIDTH 0 0
DWIDTH 0 0
BBX 6 6 -9 -7
BITMAP
CC
CC
CC
CC
CC
CC
ENDCHAR
STARTCHAR 0349
ENCODING 841
SWIDTH 0 0
DWIDTH 0 0
BBX 5 6 -9 -7
BITMAP
F8
F8
08
08
08
08
ENDCHAR
STARTCHAR 034A
ENCODING 842
SWIDTH 0 0
DWIDTH 0 0
BBX 8 5 -10 17
BITMAP
6B
FB
9E
BE
20
ENDCHAR
STARTCHAR 034B
ENCODING 843
SWIDTH 0 0
DWIDTH 0 0
BBX 8 8 -10 16
BITMAP
0C
0C
00
F3
DE
84
60
60
ENDCHAR
STARTCHAR 034C
ENCODING 844
SWIDTH 0 0
DWIDTH 0 0
BBX 8 6 -10 17
BITMAP
73
FF
8E
63
FB
9E
ENDCHAR
STARTCHAR 034D
ENCODING 845
SWIDTH 0 0
DWIDTH 0 0
BBX 10 5 -11 -6
BITMAP
6100
4180
FFC0
C080
6100
ENDCHAR
STARTCHAR 034E
ENCODING 846
SWIDTH 0 0
DWIDTH 0 0
BBX 5 6 -9 -7
BITMAP
20
70
F8
A8
20
20
ENDCHAR
STARTCHAR 034F
ENCODING 847
SWIDTH 0 0
DWIDTH 0 0
BBX 0 0 0 0
BITMAP
ENDCHAR
STARTCHAR 0351
ENCODING 849
SWIDTH 0 0
DWIDTH 0 0
BBX 3 7 -8 18
BITMAP
60
C0
C0
C0
C0
60
20
ENDCHAR
STARTCHAR 0352
ENCODING 850
SWIDTH 0 0
DWIDTH 0 0
BBX 7 6 -10 16
BITMAP
3C
FE
C6
9A
18
18
ENDCHAR
STARTCHAR 0353
ENCODING 851
SWIDTH 0 0
DWIDTH 0 0
BBX 5 6 -9 -7
BITMAP
C8
78
70
78
D8
08
ENDCHAR
STARTCHAR 0357
ENCODING 855
SWIDTH 0 0
DWIDTH 0 0
BBX 3 7 -8 18
BITMAP
C0
60
20
20
60
E0
C0
ENDCHAR
STARTCHAR 0358
ENCODING 856
SWIDTH 0 0
DWIDTH 0 0
BBX 3 3 -3 18
BITMAP
E0
E0
E0
ENDCHAR
STARTCHAR 035A
ENCODING 858
SWIDTH 0 0
DWIDTH 0 0
BBX 9 6 -11 -7
BITMAP
7700
FF80
C880
CC80
7F80
3700
ENDCHAR
STARTCHAR 035C
ENCODING 860
SWIDTH 0 0
DWIDTH 0 0
BBX 22 5 -11 -7
BITMAP
C0000C
F0003C
3FEFF0
0FFFC0
007800
ENDCHAR
STARTCHAR 035D
ENCODING 861
SWIDTH 0 0
DWIDTH 0 0
BBX 22 5 -11 22
BITMAP
C0000C
F0003C
3FEFF0
0FFFC0
007800
ENDCHAR
STARTCHAR 035E
ENCODING 862
SWIDTH 0 0
DWIDTH 0 0
BBX 22 2 -11 24
BITMAP
FFFFFC
FFFFFC
ENDCHAR
STARTCHAR 035F
ENCODING 863
SWIDTH 0 0
DWIDTH 0 0
BBX 22 2 -11 -4
BITMAP
FFFFFC
FFFFFC
ENDCHAR
STARTCHAR 0360
ENCODING 864
SWIDTH 0 0
DWIDTH 0 0
BBX 18 4 -9 21
BITMAP
3F00C0
7FE1C0
E0FF80
C03E00
ENDCHAR
STARTCHAR 0361
ENCODING 865
SWIDTH 0 0
DWIDTH 0 0
BBX 22 5 -11 21
BITMAP
01FE00
1FFFE0
7E01F8
E0001C
800004
ENDCHAR
STARTCHAR 0362
ENCODING 866
SWIDTH 0 0
DWIDTH 0 0
BBX 22 5 -11 -6
BITMAP
000018
000008
FFFFFC
00000C
000018
ENDCHAR
STARTCHAR 0370
ENCODING 880
SWIDTH 576 0
DWIDTH 16 0
BBX 12 20 2 0
BITMAP
E000
E000
E000
E000
E000
E000
E000
E000
FFF0
FFF0
E000
E000
E000
E000
E000
E000
E000
E000
E000
E000
ENDCHAR
STARTCHAR 0371
ENCODING 881
SWIDTH 504 0
DWIDTH 14 0
BBX 10 15 2 0
BITMAP
E000
E000
E000
E000
E000
E000
FFC0
FFC0
E000
E000
E000
E000
E000
E000
E000
ENDCHAR
STARTCHAR 0372
ENCODING 882
SWIDTH 792 0
DWIDTH 22 0
BBX 17 20 2 0
BITMAP
FFFF80
FFFF80
E0C180
E0C180
E0C180
E0C180
E0C180
E0C180
E0C180
E0C180
00C000
00C000
00C000
00C000
00C000
00C000
00C000
00C000
00C000
00C000
ENDCHAR
STARTCHAR 0373
ENCODING 883
SWIDTH 576 0
DWIDTH 16 0
BBX 12 20 2 0
BITMAP
FFF0
FFF0
E630
E630
E630
E630
E630
E630
E630
E630
0600
0600
0600
0600
0600
0600
0600
0600
0600
0600
ENDCHAR
STARTCHAR 0374
ENCODING 884
SWIDTH 252 0
DWIDTH 7 0
BBX 3 6 2 16
BITMAP
60
60
E0
C0
C0
C0
ENDCHAR
STARTCHAR 0375
ENCODING 885
SWIDTH 252 0
DWIDTH 7 0
BBX 3 7 2 -6
BITMAP
60
60
60
60
E0
C0
C0
ENDCHAR
STARTCHAR 0376
ENCODING 886
SWIDTH 684 0
DWIDTH 19 0
BBX 14 20 2 0
BITMAP
E01C
E03C
E03C
E07C
E06C
E0EC
E0CC
E1CC
E18C
E38C
E30C
E70C
E60C
EE0C
EC0C
FC0C
FC0C
F80C
F80C
F00C
ENDCHAR
STARTCHAR 0377
ENCODING 887
SWIDTH 576 0
DWIDTH 16 0
BBX 12 15 2 0
BITMAP
E070
E0F0
E0F0
E1B0
E1B0
E330
E730
E630
EE30
EC30
FC30
F830
F830
F030
E030
ENDCHAR
STARTCHAR 037A
ENCODING 890
SWIDTH 468 0
DWIDTH 13 0
BBX 3 5 5 -6
BITMAP
C0
C0
C0
C0
60
ENDCHAR
STARTCHAR 037B
ENCODING 891
SWIDTH 504 0
DWIDTH 14 0
BBX 10 16 2 0
BITMAP
3800
FF00
EF80
0380
01C0
00C0
00C0
00C0
00C0
00C0
00C0
00C0
01C0
0380
FF00
FE00
ENDCHAR
STARTCHAR 037C
ENCODING 892
SWIDTH 504 0
DWIDTH 14 0
BBX 11 16 1 0
BITMAP
0380
1FE0
3EE0
7000
7000
6000
E000
E300
E300
E300
6000
6000
7000
3800
3FE0
0FE0
ENDCHAR
STARTCHAR 037D
ENCODING 893
SWIDTH 504 0
DWIDTH 14 0
BBX 10 16 2 0
BITMAP
3800
FF00
EF80
0380
01C0
00C0
00C0
38C0
38C0
38C0
00C0
00C0
01C0
0380
FF00
FE00
ENDCHAR
STARTCHAR 037E
ENCODING 894
SWIDTH 288 0
DWIDTH 8 0
BBX 4 17 2 -3
BITMAP
70
70
70
00
00
00
00
00
00
00
00
70
70
60
60
C0
C0
ENDCHAR
STARTCHAR 037F
ENCODING 895
SWIDTH 252 0
DWIDTH 7 0
BBX 6 26 -1 -6
BITMAP
1C
1C
1C
1C
1C
1C
1C
1C
1C
1C
1C
1C
1C
1C
1C
1C
1C
1C
1C
1C
1C
1C
18
F8
F0
80
ENDCHAR
STARTCHAR 0384
ENCODING 900
SWIDTH 468 0
DWIDTH 13 0
BBX 5 5 5 17
BITMAP
38
30
60
C0
C0
ENDCHAR
STARTCHAR 0385
ENCODING 901
SWIDTH 468 0
DWIDTH 13 0
BBX 7 9 3 18
BITMAP
0E
0C
18
30
30
00
CE
CE
CE
ENDCHAR
STARTCHAR 0386
ENCODING 902
SWIDTH 612 0
DWIDTH 17 0
BBX 17 22 0 0
BITMAP
0C0000
180000
39C000
31E000
63E000
036000
037000
073000
063000
0E3800
0E1800
0C1800
1C1C00
1C0C00
1FFC00
3FFE00
3FFE00
300600
700700
700300
600380
E00380
ENDCHAR
STARTCHAR 0387
ENCODING 903
SWIDTH 288 0
DWIDTH 8 0
BBX 2 3 3 8
BITMAP
C0
C0
C0
ENDCHAR
STARTCHAR 0388
ENCODING 904
SWIDTH 684 0
DWIDTH 19 0
BBX 17 22 0 0
BITMAP
180000
300000
67FF80
67FF80
C70000
070000
070000
070000
070000
070000
07FF80
07FF80
070000
070000
070000
070000
070000
070000
070000
070000
07FF80
07FF80
ENDCHAR
STARTCHAR 0389
ENCODING 905
SWIDTH 792 0
DWIDTH 22 0
BBX 19 22 0 0
BITMAP
180000
300000
770060
670060
C70060
070060
070060
070060
070060
070060
07FFE0
07FFE0
070060
070060
070060
070060
070060
070060
070060
070060
070060
070060
ENDCHAR
STARTCHAR 038A
ENCODING 906
SWIDTH 360 0
DWIDTH 10 0
BBX 8 22 0 0
BITMAP
18
30
67
67
C7
07
07
07
07
07
07
07
07
07
07
07
07
07
07
07
07
07
ENDCHAR
STARTCHAR 038C
ENCODING 908
SWIDTH 720 0
DWIDTH 20 0
BBX 19 22 0 0
BITMAP
180000
30F800
73FE00
67DF00
CE0380
1C01C0
1C01C0
3800C0
3800E0
3800E0
3800E0
3800E0
3800E0
3800E0
3800E0
3800E0
1801C0
1C01C0
0E0380
0F0780
07FF00
01FC00
ENDCHAR
STARTCHAR 038E
ENCODING 910
SWIDTH 756 0
DWIDTH 21 0
BBX 20 22 0 0
BITMAP
380000
300000
630070
E38070
C1C0E0
00C0C0
00E1C0
006380
007380
003F00
001E00
001E00
000C00
000C00
000C00
000C00
000C00
000C00
000C00
000C00
000C00
000C00
ENDCHAR
STARTCHAR 038F
ENCODING 911
SWIDTH 756 0
DWIDTH 21 0
BBX 19 22 0 0
BITMAP
380000
307000
63FE00
C7FF00
CE0780
1C0380
1801C0
3800C0
3800E0
3000E0
3000E0
3000E0
3000E0
3800E0
3800C0
1801C0
1C0180
0E0380
070700
078E00
3F8FE0
3F8FE0
ENDCHAR
STARTCHAR 0390
ENCODING 912
SWIDTH 324 0
DWIDTH 9 0
BBX 8 27 0 0
BITMAP
06
0C
1C
18
30
00
E6
E6
E6
00
00
00
38
38
38
38
38
38
38
38
38
38
38
38
18
1F
0F
ENDCHAR
STARTCHAR 0391
ENCODING 913
SWIDTH 612 0
DWIDTH 17 0
BBX 17 20 0 0
BITMAP
01C000
01E000
03E000
036000
037000
073000
063000
0E3800
0E1800
0C1800
1C1C00
1C0C00
1FFC00
3FFE00
3FFE00
300600
700700
700300
600380
E00380
ENDCHAR
STARTCHAR 0392
ENCODING 914
SWIDTH 612 0
DWIDTH 17 0
BBX 14 20 2 0
BITMAP
FFE0
FFF0
E070
E038
E038
E038
E030
E070
FFE0
FFE0
E070
E038
E018
E018
E01C
E018
E038
E078
FFF0
FFC0
ENDCHAR
STARTCHAR 0393
ENCODING 915
SWIDTH 504 0
DWIDTH 14 0
BBX 12 20 2 0
BITMAP
FFF0
FFF0
E000
E000
E000
E000
E000
E000
E000
E000
E000
E000
E000
E000
E000
E000
E000
E000
E000
E000
ENDCHAR
STARTCHAR 0394
ENCODING 916
SWIDTH 612 0
DWIDTH 17 0
BBX 17 20 0 0
BITMAP
01C000
01E000
03E000
036000
037000
073000
063000
0E3800
0E1800
0C1800
1C1C00
1C0C00
180C00
380E00
380600
300600
700700
700300
7FFF80
FFFF80
ENDCHAR
STARTCHAR 0395
ENCODING 917
SWIDTH 576 0
DWIDTH 16 0
BBX 12 20 2 0
BITMAP
FFF0
FFF0
E000
E000
E000
E000
E000
E000
FFF0
FFF0
E000
E000
E000
E000
E000
E000
E000
E000
FFF0
FFF0
ENDCHAR
STARTCHAR 0396
ENCODING 918
SWIDTH 612 0
DWIDTH 17 0
BBX 15 20 1 0
BITMAP
FFFE
FFFE
001C
001C
0038
0070
00E0
00E0
01C0
0380
0700
0700
0E00
1C00
1C00
3800
7000
E000
FFFE
FFFE
ENDCHAR
STARTCHAR 0397
ENCODING 919
SWIDTH 684 0
DWIDTH 19 0
BBX 14 20 2 0
BITMAP
E00C
E00C
E00C
E00C
E00C
E00C
E00C
E00C
FFFC
FFFC
E00C
E00C
E00C
E00C
E00C
E00C
E00C
E00C
E00C
E00C
ENDCHAR
STARTCHAR 0398
ENCODING 920
SWIDTH 720 0
DWIDTH 20 0
BBX 17 21 1 0
BITMAP
01E000
0FF800
1FFE00
3C0E00
380700
700300
700380
600380
600180
E7F980
E7F980
E00180
E00180
600180
600380
700380
700700
380700
1C1E00
0FFC00
07F800
ENDCHAR
STARTCHAR 0399
ENCODING 921
SWIDTH 252 0
DWIDTH 7 0
BBX 3 20 2 0
BITMAP
E0
E0
E0
E0
E0
E0
E0
E0
E0
E0
E0
E0
E0
E0
E0
E0
E0
E0
E0
E0
ENDCHAR
STARTCHAR 039A
ENCODING 922
SWIDTH 612 0
DWIDTH 17 0
BBX 15 20 2 0
BITMAP
E03C
E078
E0F0
E1E0
E1C0
E380
E700
EE00
FC00
FC00
FE00
EE00
E700
E380
E1C0
E0E0
E070
E038
E03C
E01E
ENDCHAR
STARTCHAR 039B
ENCODING 923
SWIDTH 612 0
DWIDTH 17 0
BBX 17 20 0 0
BITMAP
01C000
01E000
03E000
036000
037000
073000
063000
0E3800
0E1800
0C1800
1C1C00
1C0C00
180C00
380E00
380600
300600
700700
700300
600380
E00380
ENDCHAR
STARTCHAR 039C
ENCODING 924
SWIDTH 792 0
DWIDTH 22 0
BBX 17 20 2 0
BITMAP
F80780
F80780
F80780
FC0D80
EC0D80
EC0D80
EE1980
E61980
E61980
E73180
E33180
E33180
E3E180
E1E180
E1E180
E1C180
E00180
E00180
E00180
E00180
ENDCHAR
STARTCHAR 039D
ENCODING 925
SWIDTH 684 0
DWIDTH 19 0
BBX 14 20 2 0
BITMAP
F00C
F80C
F80C
FC0C
EC0C
EE0C
E60C
E70C
E30C
E38C
E38C
E1CC
E1CC
E0CC
E0EC
E06C
E07C
E03C
E03C
E01C
ENDCHAR
STARTCHAR 039E
ENCODING 926
SWIDTH 576 0
DWIDTH 16 0
BBX 12 20 2 0
BITMAP
FFF0
FFF0
0000
0000
0000
0000
0000
0000
3FE0
3FE0
0000
0000
0000
0000
0000
0000
0000
0000
FFF0
FFF0
ENDCHAR
STARTCHAR 039F
ENCODING 927
SWIDTH 720 0
DWIDTH 20 0
BBX 17 21 1 0
BITMAP
01E000
0FF800
1FFE00
3C0E00
380700
700300
700380
600380
600180
E00180
E00180
E00180
E00180
600180
600380
700380
700700
380700
1C0E00
0FFC00
07F800
ENDCHAR
STARTCHAR 03A0
ENCODING 928
SWIDTH 684 0
DWIDTH 19 0
BBX 14 20 2 0
BITMAP
FFFC
FFFC
E00C
E00C
E00C
E00C
E00C
E00C
E00C
E00C
E00C
E00C
E00C
E00C
E00C
E00C
E00C
E00C
E00C
E00C
ENDCHAR
STARTCHAR 03A1
ENCODING 929
SWIDTH 540 0
DWIDTH 15 0
BBX 12 20 2 0
BITMAP
FFC0
FFE0
E0F0
E070
E030
E030
E030
E070
E070
E3E0
FFC0
FF00
E000
E000
E000
E000
E000
E000
E000
E000
ENDCHAR
STARTCHAR 03A3
ENCODING 931
SWIDTH 576 0
DWIDTH 16 0
BBX 12 20 2 0
BITMAP
FFF0
FFF0
7000
3800
1800
1C00
0E00
0700
0380
0380
0700
0700
0E00
1C00
1C00
3800
7000
6000
FFF0
FFF0
ENDCHAR
STARTCHAR 03A4
ENCODING 932
SWIDTH 540 0
DWIDTH 15 0
BBX 15 20 0 0
BITMAP
FFFE
FFFE
0380
0380
0380
0380
0380
0380
0380
0380
0380
0380
0380
0380
0380
0380
0380
0380
0380
0380
ENDCHAR
STARTCHAR 03A5
ENCODING 933
SWIDTH 540 0
DWIDTH 15 0
BBX 15 20 0 0
BITMAP
E00E
700C
301C
3838
1C30
0C70
0E60
06E0
07C0
0380
0380
0380
0380
0380
0380
0380
0380
0380
0380
0380
ENDCHAR
STARTCHAR 03A6
ENCODING 934
SWIDTH 720 0
DWIDTH 20 0
BBX 17 20 1 0
BITMAP
00C000
00C000
07F800
1FFE00
3CCF00
78C700
70C380
60C380
E0C180
E0C180
E0C180
60C180
70C380
70C380
38C700
1EFE00
0FFC00
03F000
00C000
00C000
ENDCHAR
STARTCHAR 03A7
ENCODING 935
SWIDTH 612 0
DWIDTH 17 0
BBX 15 20 1 0
BITMAP
700E
301C
3818
1C38
0C70
0E70
06E0
07C0
03C0
0380
07C0
07C0
0EE0
0C70
1C30
3838
3818
701C
600E
E006
ENDCHAR
STARTCHAR 03A8
ENCODING 936
SWIDTH 720 0
DWIDTH 20 0
BBX 17 20 1 0
BITMAP
E0C180
E0C180
E0C180
E0C180
E0C180
E0C180
E0C180
60C180
60C380
70C380
70C380
38C700
3CCE00
1FFE00
0FFC00
03F000
00C000
00C000
00C000
00C000
ENDCHAR
STARTCHAR 03A9
ENCODING 937
SWIDTH 684 0
DWIDTH 19 0
BBX 17 21 1 0
BITMAP
01C000
0FF800
1FFC00
3C0E00
780700
700700
600380
E00380
E00380
E00180
E00380
E00380
E00380
600380
700300
700700
380E00
1C1C00
0E3800
FE3F80
FE3F80
ENDCHAR
STARTCHAR 03AA
ENCODING 938
SWIDTH 252 0
DWIDTH 7 0
BBX 7 25 0 0
BITMAP
E6
E6
00
00
00
38
38
38
38
38
38
38
38
38
38
38
38
38
38
38
38
38
38
38
38
ENDCHAR
STARTCHAR 03AB
ENCODING 939
SWIDTH 540 0
DWIDTH 15 0
BBX 15 25 0 0
BITMAP
0E60
0E60
0000
0000
0000
E00E
700C
301C
3838
1C30
0C70
0E60
06E0
07C0
0380
0380
0380
0380
0380
0380
0380
0380
0380
0380
0380
ENDCHAR
STARTCHAR 03AC
ENCODING 940
SWIDTH 612 0
DWIDTH 17 0
BBX 14 22 1 0
BITMAP
00C0
0180
0380
0300
0600
0000
0600
1F8C
3FD8
70D8
6078
6070
E070
E070
E070
E060
6070
6070
70F0
70F8
3F9C
1F8C
ENDCHAR
STARTCHAR 03AD
ENCODING 941
SWIDTH 504 0
DWIDTH 14 0
BBX 10 22 2 0
BITMAP
0380
0300
0600
0C00
0C00
0000
0E00
7F80
FB80
E000
C000
C000
7000
3E00
7E00
E000
C000
C000
C000
E040
7FC0
3FC0
ENDCHAR
STARTCHAR 03AE
ENCODING 942
SWIDTH 576 0
DWIDTH 16 0
BBX 12 28 2 -6
BITMAP
00C0
0180
0380
0300
0600
0000
0300
EFC0
FFE0
F060
E070
E070
E030
E030
E030
E030
E030
E030
E030
E030
E030
E030
0030
0030
0030
0030
0030
0030
ENDCHAR
STARTCHAR 03AF
ENCODING 943
SWIDTH 324 0
DWIDTH 9 0
BBX 6 22 2 0
BITMAP
1C
38
30
60
C0
00
00
C0
C0
C0
C0
C0
C0
C0
C0
C0
C0
C0
E0
E0
7C
3C
ENDCHAR
STARTCHAR 03B0
ENCODING 944
SWIDTH 540 0
DWIDTH 15 0
BBX 11 27 2 0
BITMAP
0300
0600
0E00
0C00
1800
0000
6300
6300
6300
0000
0000
0000
C1C0
C0C0
C0E0
C060
C060
C060
C060
C060
C0E0
C0E0
C0C0
C1C0
E180
7F80
3F00
ENDCHAR
STARTCHAR 03B1
ENCODING 945
SWIDTH 612 0
DWIDTH 17 0
BBX 14 16 1 0
BITMAP
0600
1F8C
3FD8
70D8
6078
6070
E070
E070
E070
E060
6070
6070
70F0
70F8
3F9C
1F8C
ENDCHAR
STARTCHAR 03B2
ENCODING 946
SWIDTH 576 0
DWIDTH 16 0
BBX 12 27 2 -6
BITMAP
3F80
7FC0
70E0
6060
E060
E060
E0E0
E0E0
E1C0
EF80
EFC0
E1E0
E070
E030
E030
E030
E030
E070
F070
FFE0
FFC0
E000
E000
E000
E000
E000
E000
ENDCHAR
STARTCHAR 03B3
ENCODING 947
SWIDTH 540 0
DWIDTH 15 0
BBX 14 21 0 -6
BITMAP
E01C
F01C
3818
1838
1830
1C30
0C70
0C60
0C60
06E0
06C0
07C0
03C0
0380
0380
0380
0380
0380
0380
0380
0380
ENDCHAR
STARTCHAR 03B4
ENCODING 948
SWIDTH 540 0
DWIDTH 15 0
BBX 13 21 1 0
BITMAP
07C0
1FE0
3C60
3000
3000
3C00
1F80
1FE0
30F0
7030
6038
6038
E018
E018
E018
6038
6038
7030
3870
3FE0
1FC0
ENDCHAR
STARTCHAR 03B5
ENCODING 949
SWIDTH 504 0
DWIDTH 14 0
BBX 10 16 2 0
BITMAP
0E00
7F80
FB80
E000
C000
C000
7000
3E00
7E00
E000
C000
C000
C000
E040
7FC0
3FC0
ENDCHAR
STARTCHAR 03B6
ENCODING 950
SWIDTH 504 0
DWIDTH 14 0
BBX 12 27 1 -6
BITMAP
7FF0
7FF0
01E0
0380
0700
0E00
1C00
3800
7000
7000
6000
E000
E000
E000
E000
E000
6000
7000
7800
3F80
0FE0
00E0
0060
0060
0060
00E0
0080
ENDCHAR
STARTCHAR 03B7
ENCODING 951
SWIDTH 576 0
DWIDTH 16 0
BBX 12 22 2 -6
BITMAP
0300
EFC0
FFE0
F060
E070
E070
E030
E030
E030
E030
E030
E030
E030
E030
E030
E030
0030
0030
0030
0030
0030
0030
ENDCHAR
STARTCHAR 03B8
ENCODING 952
SWIDTH 540 0
DWIDTH 15 0
BBX 13 21 1 1
BITMAP
0FC0
1FE0
3860
3070
7030
6038
6038
6038
E018
FFF8
FFF8
E018
E018
6038
6038
6030
7030
3070
3860
1FE0
0F80
ENDCHAR
STARTCHAR 03B9
ENCODING 953
SWIDTH 324 0
DWIDTH 9 0
BBX 6 15 2 0
BITMAP
C0
C0
C0
C0
C0
C0
C0
C0
C0
C0
C0
E0
E0
7C
3C
ENDCHAR
STARTCHAR 03BA
ENCODING 954
SWIDTH 540 0
DWIDTH 15 0
BBX 12 15 2 0
BITMAP
E0E0
E1C0
E380
E700
EE00
FC00
FE00
F600
E700
E380
E180
E1C0
E0E0
E0E0
E070
ENDCHAR
STARTCHAR 03BB
ENCODING 955
SWIDTH 540 0
DWIDTH 15 0
BBX 13 21 1 0
BITMAP
3C00
3E00
0E00
0600
0700
0300
0300
0780
0780
0F80
0FC0
0CC0
1CC0
18E0
3860
3060
3070
7030
6030
E038
C018
ENDCHAR
STARTCHAR 03BC
ENCODING 956
SWIDTH 576 0
DWIDTH 16 0
BBX 13 21 2 -6
BITMAP
C070
C070
C070
C070
C070
C070
C070
C070
C070
C070
E070
E070
F0F0
DFB8
DFB8
C000
C000
C000
C000
C000
C000
ENDCHAR
STARTCHAR 03BD
ENCODING 957
SWIDTH 504 0
DWIDTH 14 0
BBX 12 15 1 0
BITMAP
E0C0
E060
6060
6070
7030
3030
3070
3870
3860
18E0
19C0
1D80
1F80
0F00
0E00
ENDCHAR
STARTCHAR 03BE
ENCODING 958
SWIDTH 504 0
DWIDTH 14 0
BBX 12 27 1 -6
BITMAP
7FE0
7FE0
1E00
3800
7000
6000
6000
7000
3C00
1FC0
1FC0
3C00
7000
6000
E000
E000
E000
6000
7000
3F80
1FE0
00E0
0070
0070
0060
00E0
00C0
ENDCHAR
STARTCHAR 03BF
ENCODING 959
SWIDTH 540 0
DWIDTH 15 0
BBX 13 16 1 0
BITMAP
0700
1FC0
3FE0
7070
7030
6038
E038
E018
E018
E018
6038
6038
7030
3870
3FE0
1FC0
ENDCHAR
STARTCHAR 03C0
ENCODING 960
SWIDTH 540 0
DWIDTH 15 0
BBX 13 16 1 -1
BITMAP
FFF8
FFF8
3060
3060
3060
3060
3060
3060
3060
3060
3060
3060
3060
3078
3038
0010
ENDCHAR
STARTCHAR 03C1
ENCODING 961
SWIDTH 576 0
DWIDTH 16 0
BBX 13 22 2 -6
BITMAP
0300
1FC0
3DE0
7070
6030
6030
E030
E038
E038
E038
E030
E030
E070
F060
FFE0
EFC0
E000
E000
E000
E000
E000
E000
ENDCHAR
STARTCHAR 03C2
ENCODING 962
SWIDTH 540 0
DWIDTH 15 0
BBX 11 22 1 -6
BITMAP
0380
1FE0
3EE0
7000
7000
6000
E000
E000
E000
E000
6000
6000
7000
3800
3F80
0FC0
00E0
0060
0060
00E0
01C0
0180
ENDCHAR
STARTCHAR 03C3
ENCODING 963
SWIDTH 576 0
DWIDTH 16 0
BBX 14 15 1 0
BITMAP
1FFC
3FFC
7070
7030
6038
E038
E018
E018
E018
6038
6038
7030
3870
3FE0
1FC0
ENDCHAR
STARTCHAR 03C4
ENCODING 964
SWIDTH 540 0
DWIDTH 15 0
BBX 13 15 1 0
BITMAP
FFF8
FFF8
0700
0700
0700
0700
0700
0700
0700
0700
0700
0300
0380
03E0
01E0
ENDCHAR
STARTCHAR 03C5
ENCODING 965
SWIDTH 540 0
DWIDTH 15 0
BBX 11 15 2 0
BITMAP
C1C0
C0C0
C0E0
C060
C060
C060
C060
C060
C0E0
C0E0
C0C0
C1C0
E180
7F80
3F00
ENDCHAR
STARTCHAR 03C6
ENCODING 966
SWIDTH 612 0
DWIDTH 17 0
BBX 14 21 1 -6
BITMAP
19F0
3BF8
73B8
731C
631C
E30C
E30C
E30C
E30C
630C
631C
7318
3B38
3FF0
1FE0
0300
0300
0300
0300
0300
0300
ENDCHAR
STARTCHAR 03C7
ENCODING 967
SWIDTH 540 0
DWIDTH 15 0
BBX 13 21 1 -6
BITMAP
E030
F070
3860
18E0
18C0
1DC0
0D80
0F80
0700
0700
0600
0F00
0F00
1F80
1D80
3980
39C0
70C0
70F0
E078
E038
ENDCHAR
STARTCHAR 03C8
ENCODING 968
SWIDTH 612 0
DWIDTH 17 0
BBX 14 21 1 -6
BITMAP
E30C
E30C
E30C
E30C
E30C
E30C
E30C
E30C
E30C
E30C
630C
631C
7338
3FF8
1FE0
0300
0300
0300
0300
0300
0300
ENDCHAR
STARTCHAR 03C9
ENCODING 969
SWIDTH 756 0
DWIDTH 21 0
BBX 17 15 2 0
BITMAP
700700
600300
E00380
E00380
E00380
C00180
C1C180
C1C180
C1C180
C1C180
C1C180
E1C380
E36380
7F7F00
3E3E00
ENDCHAR
STARTCHAR 03CA
ENCODING 970
SWIDTH 324 0
DWIDTH 9 0
BBX 8 21 0 0
BITMAP
E6
E6
E6
00
00
00
38
38
38
38
38
38
38
38
38
38
38
38
18
1F
0F
ENDCHAR
STARTCHAR 03CB
ENCODING 971
SWIDTH 540 0
DWIDTH 15 0
BBX 11 21 2 0
BITMAP
7300
7300
7300
0000
0000
0000
C1C0
C0C0
C0E0
C060
C060
C060
C060
C060
C0E0
C0E0
C0C0
C1C0
E180
7F80
3F00
ENDCHAR
STARTCHAR 03CC
ENCODING 972
SWIDTH 540 0
DWIDTH 15 0
BBX 13 22 1 0
BITMAP
00C0
01C0
0180
0300
0600
0000
0700
1FC0
3FE0
7070
7030
6038
E038
E018
E018
E018
6038
6038
7030
3870
3FE0
1FC0
ENDCHAR
STARTCHAR 03CD
ENCODING 973
SWIDTH 540 0
DWIDTH 15 0
BBX 11 22 2 0
BITMAP
0300
0600
0E00
0C00
1800
0000
0000
C1C0
C0C0
C0E0
C060
C060
C060
C060
C060
C0E0
C0E0
C0C0
C1C0
E180
7F80
3F00
ENDCHAR
STARTCHAR 03CE
ENCODING 974
SWIDTH 756 0
DWIDTH 21 0
BBX 17 22 2 0
BITMAP
003000
006000
00C000
00C000
018000
000000
000000
700700
600300
E00380
E00380
E00380
C00180
C1C180
C1C180
C1C180
C1C180
C1C180
E1C380
E36380
7F7F00
3E3E00
ENDCHAR
STARTCHAR 03CF
ENCODING 975
SWIDTH 612 0
DWIDTH 17 0
BBX 15 26 2 -6
BITMAP
E03C
E078
E0F0
E1E0
E1C0
E380
E700
EE00
FC00
FC00
FE00
EE00
E700
E380
E1C0
E0E0
E070
E038
E03C
E01E
000E
000C
0018
0030
0030
0060
ENDCHAR
STARTCHAR 03D0
ENCODING 976
SWIDTH 540 0
DWIDTH 15 0
BBX 12 21 2 1
BITMAP
1F80
3F80
70C0
60C0
60C0
E0C0
E0C0
C1C0
C380
FF80
FF80
C1C0
C0E0
C060
E060
E070
6060
6060
70E0
3FC0
1F80
ENDCHAR
STARTCHAR 03D1
ENCODING 977
SWIDTH 576 0
DWIDTH 16 0
BBX 13 21 1 1
BITMAP
0FC0
0FE0
1C70
1830
1830
1838
1838
1C18
1E18
EFF8
E7F8
E018
6018
6038
6038
6038
7030
3070
3860
1FE0
0F80
ENDCHAR
STARTCHAR 03D2
ENCODING 978
SWIDTH 648 0
DWIDTH 18 0
BBX 16 21 1 0
BITMAP
4000
F81E
FC3F
1E77
0EE6
06C0
07C0
03C0
0380
0380
0380
0380
0380
0380
0380
0380
0380
0380
0380
0380
0380
ENDCHAR
STARTCHAR 03D3
ENCODING 979
SWIDTH 756 0
DWIDTH 21 0
BBX 21 22 0 0
BITMAP
380000
320000
67C0F0
E7E1F8
C0F3B8
003338
003F00
001E00
001E00
001C00
001C00
000C00
000C00
000C00
000C00
000C00
000C00
000C00
000C00
000C00
000C00
000C00
ENDCHAR
STARTCHAR 03D4
ENCODING 980
SWIDTH 648 0
DWIDTH 18 0
BBX 16 25 1 0
BITMAP
0E60
0E60
0000
0000
4000
F81E
FC3F
1E77
0EE6
06C0
07C0
03C0
0380
0380
0380
0380
0380
0380
0380
0380
0380
0380
0380
0380
0380
ENDCHAR
STARTCHAR 03D5
ENCODING 981
SWIDTH 612 0
DWIDTH 17 0
BBX 14 27 1 -6
BITMAP
0300
0300
0300
0300
0300
07C0
1FF0
3FF8
7338
731C
631C
E30C
E30C
E30C
E30C
630C
631C
7318
3B38
3FF0
1FE0
0300
0300
0300
0300
0300
0300
ENDCHAR
STARTCHAR 03D6
ENCODING 982
SWIDTH 756 0
DWIDTH 21 0
BBX 19 15 1 0
BITMAP
FFFFE0
FFFFE0
7001C0
7001C0
7001C0
6000C0
60E0C0
60E0C0
60E0C0
60E0C0
60E1C0
70E1C0
71B1C0
3FBF80
1F1F00
ENDCHAR
STARTCHAR 03D7
ENCODING 983
SWIDTH 612 0
DWIDTH 17 0
BBX 14 21 1 -6
BITMAP
780C
7C1C
8C3C
0678
0670
06E0
05E0
0FC0
0EC0
1CC0
38C0
78C0
70E4
F07C
C03C
0018
0018
0018
01F0
01F0
00C0
ENDCHAR
STARTCHAR 03D8
ENCODING 984
SWIDTH 720 0
DWIDTH 20 0
BBX 17 27 1 -6
BITMAP
01E000
0FF800
1FFE00
3C0E00
380700
700300
700380
600380
600180
E00180
E00180
E00180
E00180
600180
600380
700380
700700
380700
1C1E00
0FFC00
07F800
00C000
00C000
00C000
00C000
00C000
00C000
ENDCHAR
STARTCHAR 03D9
ENCODING 985
SWIDTH 540 0
DWIDTH 15 0
BBX 13 22 1 -6
BITMAP
0700
1FC0
3FE0
7070
7030
6038
E038
E018
E018
E018
6038
6038
7030
3870
3FE0
1FC0
0300
0300
0300
0300
0300
0300
ENDCHAR
STARTCHAR 03DA
ENCODING 986
SWIDTH 576 0
DWIDTH 16 0
BBX 13 26 2 -6
BITMAP
0FF8
3FF8
3800
7000
6000
E000
E000
C000
C000
C000
C000
C000
C000
E000
E000
6000
7000
7800
3F80
1FC0
00E0
0060
0060
00E0
01C0
0180
ENDCHAR
STARTCHAR 03DB
ENCODING 987
SWIDTH 540 0
DWIDTH 15 0
BBX 13 21 1 -6
BITMAP
0FF8
3FF8
3800
7000
6000
E000
E000
E000
E000
6000
6000
7000
3800
3F00
0F80
01C0
00C0
00C0
01C0
0380
0300
ENDCHAR
STARTCHAR 03DC
ENCODING 988
SWIDTH 540 0
DWIDTH 15 0
BBX 11 20 2 0
BITMAP
FFE0
FFE0
E000
E000
E000
E000
E000
E000
FFC0
FFC0
E000
E000
E000
E000
E000
E000
E000
E000
E000
E000
ENDCHAR
STARTCHAR 03DD
ENCODING 989
SWIDTH 432 0
DWIDTH 12 0
BBX 12 27 -2 -6
BITMAP
01F0
03F0
0300
0700
0600
0600
0600
0600
0600
07E0
07E0
0600
0600
0600
0600
0600
0600
0600
0600
0600
0600
0600
0600
0E00
9C00
F800
F000
ENDCHAR
STARTCHAR 03DE
ENCODING 990
SWIDTH 612 0
DWIDTH 17 0
BBX 13 20 2 0
BITMAP
F000
F800
3800
1800
1800
3808
3038
30F0
33F0
7FB0
7E70
7860
6060
80E0
00C0
00C0
00C0
00E8
00F8
0078
ENDCHAR
STARTCHAR 03DF
ENCODING 991
SWIDTH 612 0
DWIDTH 17 0
BBX 11 21 3 0
BITMAP
1800
3800
3000
3000
7000
6000
6000
E000
C000
FFE0
FFE0
00E0
00C0
00C0
01C0
0180
0180
0180
0380
0300
0300
ENDCHAR
STARTCHAR 03E0
ENCODING 992
SWIDTH 792 0
DWIDTH 22 0
BBX 19 27 1 -6
BITMAP
07E000
3FF800
7EFE00
FC0F00
CC0780
8C0380
0C03C0
0C07C0
0C0EC0
0C18C0
0C38E0
0038E0
0038E0
0038E0
0038E0
0038E0
0038E0
0038E0
0038E0
0038E0
0038E0
0000C0
0001C0
0001C0
000180
000380
000700
ENDCHAR
STARTCHAR 03E1
ENCODING 993
SWIDTH 576 0
DWIDTH 16 0
BBX 13 21 1 -5
BITMAP
C000
F800
FC00
0E00
0700
0380
01C0
01C0
03E0
0660
0E60
0CF0
19B0
3BB0
3318
6618
0018
0018
0018
0018
0018
ENDCHAR
STARTCHAR 03E2
ENCODING 994
SWIDTH 864 0
DWIDTH 24 0
BBX 21 26 1 -6
BITMAP
1C01E0
3800E0
380070
300070
700070
700030
600038
600038
E03038
E03038
E03038
E03038
607038
607038
707038
707878
79FCF0
3FDFF0
3FCFF0
1F87E0
0003C0
000780
001F00
007C00
01F800
00C000
ENDCHAR
STARTCHAR 03E3
ENCODING 995
SWIDTH 756 0
DWIDTH 21 0
BBX 17 21 2 -6
BITMAP
700700
600300
E00380
E00380
E00380
C00180
C1C180
C1C180
C1C180
C1C180
E1C380
E3E380
7F7F00
7F7F00
3E3E00
000E00
001C00
003800
00F000
07C000
020000
ENDCHAR
STARTCHAR 03E4
ENCODING 996
SWIDTH 684 0
DWIDTH 19 0
BBX 16 27 1 -6
BITMAP
0300
0F07
1F07
3C07
3807
7007
7007
7007
6007
E007
E007
E007
E007
6007
7007
700F
700F
381F
3E7F
1FF7
0FE7
0007
0007
0007
0007
0007
0007
ENDCHAR
STARTCHAR 03E5
ENCODING 997
SWIDTH 612 0
DWIDTH 17 0
BBX 13 22 1 -6
BITMAP
0600
1E18
3818
3018
7018
6018
6018
E018
E018
E018
6018
6018
7038
3878
3FF8
1FD8
0018
0018
0018
0018
0018
0018
ENDCHAR
STARTCHAR 03E6
ENCODING 998
SWIDTH 720 0
DWIDTH 20 0
BBX 17 26 2 -6
BITMAP
E00000
E00000
E00000
E00000
E1C000
E7F800
EFFC00
FC1E00
F80E00
F00700
E00700
E00300
E00380
E00380
E00300
E00300
E00700
E00700
E00F00
E00E00
001C00
007C00
00F000
03E000
1F8000
0C0000
ENDCHAR
STARTCHAR 03E7
ENCODING 999
SWIDTH 540 0
DWIDTH 15 0
BBX 13 16 1 0
BITMAP
0718
1FD8
3FF8
70F0
6070
60F0
73F8
7FB8
1E18
0018
0018
0038
0038
7070
FFF0
DFC0
ENDCHAR
STARTCHAR 03E8
ENCODING 1000
SWIDTH 612 0
DWIDTH 17 0
BBX 15 27 1 -6
BITMAP
07C0
1FF0
3FF8
383C
701C
700E
000E
000E
000E
000E
001C
001C
0038
0070
00E0
01C0
0380
0F00
1E00
3C00
7800
F000
7002
3C0E
1FFC
0FF8
03C0
ENDCHAR
STARTCHAR 03E9
ENCODING 1001
SWIDTH 540 0
DWIDTH 15 0
BBX 13 22 1 -6
BITMAP
0700
1FE0
3DF0
7070
7038
0038
0038
0038
0030
0070
00E0
01C0
0380
0700
1E00
3C00
F000
7000
3008
1CF8
0FF0
0780
ENDCHAR
STARTCHAR 03EA
ENCODING 1002
SWIDTH 684 0
DWIDTH 19 0
BBX 17 21 1 0
BITMAP
700380
780780
780F80
1C1C00
0E1C00
063800
073000
03F000
03E000
01E000
01C000
01E000
03E000
077000
063800
0E1800
0C1C00
1C0C00
380F00
FFFF80
FFFF80
ENDCHAR
STARTCHAR 03EB
ENCODING 1003
SWIDTH 576 0
DWIDTH 16 0
BBX 14 16 1 0
BITMAP
E01C
F03C
3870
18E0
1CE0
0FC0
0780
0380
0780
0FC0
0CC0
1CE0
3870
3070
FFFC
FFFC
ENDCHAR
STARTCHAR 03EC
ENCODING 1004
SWIDTH 648 0
DWIDTH 18 0
BBX 15 21 1 0
BITMAP
001E
0FFE
1FFC
3800
7000
71C0
6FF0
7FF8
781C
700C
E00E
E00E
E00E
E00E
600E
600E
700E
701C
383C
1FF8
0FF0
ENDCHAR
STARTCHAR 03ED
ENCODING 1005
SWIDTH 540 0
DWIDTH 15 0
BBX 13 21 1 0
BITMAP
0060
1FE0
3FC0
3000
6000
6300
6FC0
7DE0
7070
E030
E030
E038
E038
E038
E038
6038
6030
6070
3070
3FE0
1FC0
ENDCHAR
STARTCHAR 03EE
ENCODING 1006
SWIDTH 540 0
DWIDTH 15 0
BBX 14 26 1 -6
BITMAP
0700
0700
0700
0700
0700
FFFC
FFFC
C71C
0700
0700
0700
0700
0700
0700
0700
0700
0700
0700
0700
0700
0700
0700
0700
0700
0700
0700
ENDCHAR
STARTCHAR 03EF
ENCODING 1007
SWIDTH 504 0
DWIDTH 14 0
BBX 12 26 1 -6
BITMAP
0600
0600
0600
0600
0600
FFF0
FFF0
C630
0600
0600
0600
0600
0600
0600
0600
0600
0600
0600
0600
0600
0600
0600
0600
0600
0600
0600
ENDCHAR
STARTCHAR 03F0
ENCODING 1008
SWIDTH 612 0
DWIDTH 17 0
BBX 14 15 1 0
BITMAP
780C
7C1C
8C3C
0678
0670
06E0
05E0
0FC0
0EC0
1CC0
38C0
78C0
70E4
F07C
C03C
ENDCHAR
STARTCHAR 03F1
ENCODING 1009
SWIDTH 576 0
DWIDTH 16 0
BBX 13 22 2 -6
BITMAP
0300
1FC0
3DE0
7070
6030
6030
E030
E038
E038
E038
E030
E030
E070
F060
FFE0
6FC0
6000
6000
7000
3FF0
1FF0
0FF0
ENDCHAR
STARTCHAR 03F2
ENCODING 1010
SWIDTH 504 0
DWIDTH 14 0
BBX 11 16 1 0
BITMAP
0380
1FE0
3EE0
7000
7000
6000
E000
E000
E000
E000
6000
6000
7000
3800
3FE0
0FE0
ENDCHAR
STARTCHAR 03F3
ENCODING 1011
SWIDTH 252 0
DWIDTH 7 0
BBX 5 27 0 -6
BITMAP
38
38
38
00
00
00
38
38
38
38
38
38
38
38
38
38
38
38
38
38
38
38
38
30
70
F0
C0
ENDCHAR
STARTCHAR 03F4
ENCODING 1012
SWIDTH 720 0
DWIDTH 20 0
BBX 17 21 1 0
BITMAP
01E000
0FF800
1FFE00
3C0E00
380700
700300
700380
600380
600180
FFFF80
FFFF80
E00180
E00180
600180
600380
700380
700700
380700
1C0E00
0FFC00
07F800
ENDCHAR
STARTCHAR 03F5
ENCODING 1013
SWIDTH 576 0
DWIDTH 16 0
BBX 11 16 1 0
BITMAP
0380
1FE0
3EE0
3000
7000
6000
E000
FFE0
FFE0
E000
6000
6000
7000
3800
1FE0
0FE0
ENDCHAR
STARTCHAR 03F6
ENCODING 1014
SWIDTH 576 0
DWIDTH 16 0
BBX 11 16 2 0
BITMAP
3C00
FF00
FF80
01C0
00C0
00E0
0060
FFE0
FFE0
0060
0060
00E0
00C0
01C0
FF80
FF00
ENDCHAR
STARTCHAR 03F7
ENCODING 1015
SWIDTH 540 0
DWIDTH 15 0
BBX 12 20 2 0
BITMAP
E000
E000
E000
FF00
FFC0
E3E0
E070
E070
E030
E030
E030
E070
E0F0
FFE0
FFC0
E000
E000
E000
E000
E000
ENDCHAR
STARTCHAR 03F8
ENCODING 1016
SWIDTH 576 0
DWIDTH 16 0
BBX 13 27 2 -6
BITMAP
E000
E000
E000
E000
E000
E700
EFC0
FDE0
F070
E030
E030
E030
E038
E038
E038
E030
E030
E070
F060
FFE0
EFC0
E000
E000
E000
E000
E000
E000
ENDCHAR
STARTCHAR 03F9
ENCODING 1017
SWIDTH 648 0
DWIDTH 18 0
BBX 15 21 1 0
BITMAP
01E0
07FC
1FBE
3C06
3802
7000
7000
6000
6000
E000
E000
E000
E000
6000
6000
7000
7000
3802
1E0E
0FFE
07F8
ENDCHAR
STARTCHAR 03FA
ENCODING 1018
SWIDTH 792 0
DWIDTH 22 0
BBX 17 20 2 0
BITMAP
F80780
FC0F80
FC1F80
EE1D80
E73980
E77180
E3F180
E1E180
E1C180
E00180
E00180
E00180
E00180
E00180
E00180
E00180
E00180
E00180
E00180
E00180
ENDCHAR
STARTCHAR 03FB
ENCODING 1019
SWIDTH 576 0
DWIDTH 16 0
BBX 13 21 2 -6
BITMAP
F078
F0F8
F8D8
D9D8
DF98
CF18
CF18
C618
C018
C018
C018
C018
C018
C018
C018
C000
C000
C000
C000
C000
C000
ENDCHAR
STARTCHAR 03FC
ENCODING 1020
SWIDTH 576 0
DWIDTH 16 0
BBX 14 22 1 -6
BITMAP
0180
0FE0
1EF0
3838
3018
3018
7018
701C
701C
701C
7018
7018
7038
7830
7FF0
77E0
7000
7000
FFC0
FFC0
7000
7000
ENDCHAR
STARTCHAR 03FD
ENCODING 1021
SWIDTH 648 0
DWIDTH 18 0
BBX 15 21 1 0
BITMAP
0F80
7FE0
FFF0
C038
801C
001C
000E
000E
000E
0006
0006
0006
0006
000E
000E
000E
001C
803C
E078
7FF0
3FC0
ENDCHAR
STARTCHAR 03FE
ENCODING 1022
SWIDTH 648 0
DWIDTH 18 0
BBX 15 21 1 0
BITMAP
01E0
07FC
1FBE
3C06
3802
7000
7000
6000
6000
E000
E060
E060
E060
6000
6000
7000
7000
3802
1E0E
0FFE
07F8
ENDCHAR
STARTCHAR 03FF
ENCODING 1023
SWIDTH 648 0
DWIDTH 18 0
BBX 15 21 1 0
BITMAP
0F80
7FE0
FFF0
C038
801C
001C
000E
000E
000E
0006
0E06
0E06
0E06
000E
000E
000E
001C
803C
E078
7FF0
3FC0
ENDCHAR
STARTCHAR 0400
ENCODING 1024
SWIDTH 576 0
DWIDTH 16 0
BBX 12 26 2 0
BITMAP
0600
0600
0300
0180
0000
0000
FFF0
FFF0
E000
E000
E000
E000
E000
E000
FFF0
FFF0
E000
E000
E000
E000
E000
E000
E000
E000
FFF0
FFF0
ENDCHAR
STARTCHAR 0401
ENCODING 1025
SWIDTH 576 0
DWIDTH 16 0
BBX 12 25 2 0
BITMAP
19C0
19C0
0000
0000
0000
FFF0
FFF0
E000
E000
E000
E000
E000
E000
FFF0
FFF0
E000
E000
E000
E000
E000
E000
E000
E000
FFF0
FFF0
ENDCHAR
STARTCHAR 0402
ENCODING 1026
SWIDTH 720 0
DWIDTH 20 0
BBX 18 26 0 -6
BITMAP
FFFC00
FFFC00
070000
070000
070000
070000
070000
070000
07FE00
07FF00
070780
0701C0
0701C0
0701C0
0701C0
0701C0
0701C0
0701C0
0701C0
0701C0
0001C0
0001C0
000380
000F80
000F00
000800
ENDCHAR
STARTCHAR 0403
ENCODING 1027
SWIDTH 540 0
DWIDTH 15 0
BBX 12 26 2 0
BITMAP
0180
0300
0300
0600
0000
0000
FFF0
FFF0
E000
E000
E000
E000
E000
E000
E000
E000
E000
E000
E000
E000
E000
E000
E000
E000
E000
E000
ENDCHAR
STARTCHAR 0404
ENCODING 1028
SWIDTH 648 0
DWIDTH 18 0
BBX 15 21 1 0
BITMAP
01E0
07FC
1FBE
3C06
3802
7000
7000
6000
6000
E000
FFF8
FFF8
E000
6000
6000
7000
7000
3802
1C0E
0FFE
07F8
ENDCHAR
STARTCHAR 0405
ENCODING 1029
SWIDTH 576 0
DWIDTH 16 0
BBX 13 21 2 0
BITMAP
0F80
3FE0
7DE0
E000
C000
C000
C000
E000
F000
7F00
3FC0
0FE0
00F0
0070
0038
0038
0038
0070
C0F0
FFE0
7FC0
ENDCHAR
STARTCHAR 0406
ENCODING 1030
SWIDTH 252 0
DWIDTH 7 0
BBX 3 20 2 0
BITMAP
E0
E0
E0
E0
E0
E0
E0
E0
E0
E0
E0
E0
E0
E0
E0
E0
E0
E0
E0
E0
ENDCHAR
STARTCHAR 0407
ENCODING 1031
SWIDTH 252 0
DWIDTH 7 0
BBX 7 25 0 0
BITMAP
E6
E6
00
00
00
38
38
38
38
38
38
38
38
38
38
38
38
38
38
38
38
38
38
38
38
ENDCHAR
STARTCHAR 0408
ENCODING 1032
SWIDTH 252 0
DWIDTH 7 0
BBX 6 26 -1 -6
BITMAP
1C
1C
1C
1C
1C
1C
1C
1C
1C
1C
1C
1C
1C
1C
1C
1C
1C
1C
1C
1C
1C
1C
18
F8
F0
80
ENDCHAR
STARTCHAR 0409
ENCODING 1033
SWIDTH 1008 0
DWIDTH 28 0
BBX 25 20 1 0
BITMAP
07FE0000
07FE0000
06060000
06060000
06060000
0E060000
0E060000
0E060000
0E07F800
0E07FE00
0E060F00
0E060700
0E060380
0C060380
1C060380
1C060380
38060700
F8060F00
F007FE00
C007F800
ENDCHAR
STARTCHAR 040A
ENCODING 1034
SWIDTH 936 0
DWIDTH 26 0
BBX 23 20 2 0
BITMAP
E01800
E01800
E01800
E01800
E01800
E01800
E01800
E01800
FFFFE0
FFFFF8
E0183C
E0181C
E0180C
E0180E
E0180E
E0180C
E0181C
E0183C
E01FF8
E01FE0
ENDCHAR
STARTCHAR 040B
ENCODING 1035
SWIDTH 720 0
DWIDTH 20 0
BBX 18 20 0 0
BITMAP
FFFC00
FFFC00
070000
070000
070000
070000
070000
070000
07FE00
07FF00
070780
0701C0
0701C0
0701C0
0701C0
0701C0
0701C0
0701C0
0701C0
0701C0
ENDCHAR
STARTCHAR 040C
ENCODING 1036
SWIDTH 648 0
DWIDTH 18 0
BBX 15 26 2 0
BITMAP
00C0
0180
0300
0300
0000
0000
E01E
E038
E070
E0F0
E0E0
E1C0
E380
E700
EF00
FF80
F9C0
F8C0
F0E0
E060
E070
E038
E018
E01C
E00E
E00E
ENDCHAR
STARTCHAR 040D
ENCODING 1037
SWIDTH 684 0
DWIDTH 19 0
BBX 14 26 2 0
BITMAP
0E00
0600
0300
0180
0000
0000
E01C
E03C
E03C
E07C
E06C
E0EC
E0CC
E1CC
E18C
E38C
E30C
E70C
E60C
EE0C
EC0C
FC0C
FC0C
F80C
F80C
F00C
ENDCHAR
STARTCHAR 040E
ENCODING 1038
SWIDTH 540 0
DWIDTH 15 0
BBX 14 26 1 0
BITMAP
1060
1DC0
0FC0
0000
0000
0000
C01C
E018
6038
7030
7070
3070
3860
38E0
1CE0
1DC0
0DC0
0F80
0F80
0780
0700
0700
0600
1E00
7E00
7800
ENDCHAR
STARTCHAR 040F
ENCODING 1039
SWIDTH 684 0
DWIDTH 19 0
BBX 14 24 2 -4
BITMAP
E00C
E00C
E00C
E00C
E00C
E00C
E00C
E00C
E00C
E00C
E00C
E00C
E00C
E00C
E00C
E00C
E00C
E00C
FFFC
FFFC
0380
0380
0380
0380
ENDCHAR
STARTCHAR 0410
ENCODING 1040
SWIDTH 612 0
DWIDTH 17 0
BBX 17 20 0 0
BITMAP
01C000
01E000
03E000
036000
037000
073000
063000
0E3800
0E1800
0C1800
1C1C00
1C0C00
1FFC00
3FFE00
3FFE00
300600
700700
700300
600380
E00380
ENDCHAR
STARTCHAR 0411
ENCODING 1041
SWIDTH 612 0
DWIDTH 17 0
BBX 13 20 2 0
BITMAP
FFF0
FFF0
E000
E000
E000
E000
E000
E000
FFC0
FFF0
E078
E038
E018
E018
E018
E018
E038
E078
FFF0
FFC0
ENDCHAR
STARTCHAR 0412
ENCODING 1042
SWIDTH 612 0
DWIDTH 17 0
BBX 14 20 2 0
BITMAP
FFE0
FFF0
E070
E038
E038
E038
E030
E070
FFE0
FFE0
E070
E038
E018
E018
E01C
E018
E038
E078
FFF0
FFC0
ENDCHAR
STARTCHAR 0413
ENCODING 1043
SWIDTH 540 0
DWIDTH 15 0
BBX 12 20 2 0
BITMAP
FFF0
FFF0
E000
E000
E000
E000
E000
E000
E000
E000
E000
E000
E000
E000
E000
E000
E000
E000
E000
E000
ENDCHAR
STARTCHAR 0414
ENCODING 1044
SWIDTH 720 0
DWIDTH 20 0
BBX 17 24 1 -4
BITMAP
0FFE00
0FFE00
0E0600
0E0600
0E0600
0E0600
0E0600
0E0600
0E0600
0E0600
0E0600
0C0600
0C0600
0C0600
1C0600
1C0600
180600
780600
FFFF80
FFFF80
C00180
C00180
C00180
C00180
ENDCHAR
STARTCHAR 0415
ENCODING 1045
SWIDTH 576 0
DWIDTH 16 0
BBX 12 20 2 0
BITMAP
FFF0
FFF0
E000
E000
E000
E000
E000
E000
FFF0
FFF0
E000
E000
E000
E000
E000
E000
E000
E000
FFF0
FFF0
ENDCHAR
STARTCHAR 0416
ENCODING 1046
SWIDTH 972 0
DWIDTH 27 0
BBX 25 20 1 0
BITMAP
F01C0780
381C0700
381C0E00
1C1C1C00
0E1C3800
071C7000
039CE000
01DCE000
03DDE000
03FFF000
077F3000
0E3E3800
0C1E1800
1C1C1C00
181C0C00
381C0E00
701C0700
701C0300
E01C0380
C01C0180
ENDCHAR
STARTCHAR 0417
ENCODING 1047
SWIDTH 576 0
DWIDTH 16 0
BBX 12 21 2 0
BITMAP
3E00
FFC0
FFE0
8070
0070
0030
0030
0070
00E0
1FC0
1FC0
01E0
0070
0030
0030
0030
0030
0070
C0F0
FFE0
FF80
ENDCHAR
STARTCHAR 0418
ENCODING 1048
SWIDTH 684 0
DWIDTH 19 0
BBX 14 20 2 0
BITMAP
E01C
E03C
E03C
E07C
E06C
E0EC
E0CC
E1CC
E18C
E38C
E30C
E70C
E60C
EE0C
EC0C
FC0C
FC0C
F80C
F80C
F00C
ENDCHAR
STARTCHAR 0419
ENCODING 1049
SWIDTH 684 0
DWIDTH 19 0
BBX 14 26 2 0
BITMAP
1820
0EE0
0FC0
0000
0000
0000
E01C
E03C
E03C
E07C
E06C
E0EC
E0CC
E1CC
E18C
E38C
E30C
E70C
E60C
EE0C
EC0C
FC0C
FC0C
F80C
F80C
F00C
ENDCHAR
STARTCHAR 041A
ENCODING 1050
SWIDTH 648 0
DWIDTH 18 0
BBX 15 20 2 0
BITMAP
E01E
E038
E070
E0F0
E0E0
E1C0
E380
E700
EF00
FF80
F9C0
F8C0
F0E0
E060
E070
E038
E018
E01C
E00E
E00E
ENDCHAR
STARTCHAR 041B
ENCODING 1051
SWIDTH 684 0
DWIDTH 19 0
BBX 15 20 1 0
BITMAP
07FE
07FE
0606
0606
0E06
0E06
0E06
0E06
0E06
0E06
0E06
0E06
0E06
0C06
0C06
1C06
3806
7806
F006
C006
ENDCHAR
STARTCHAR 041C
ENCODING 1052
SWIDTH 792 0
DWIDTH 22 0
BBX 17 20 2 0
BITMAP
F80780
F80780
F80780
FC0D80
EC0D80
EC0D80
EE1980
E61980
E61980
E73180
E33180
E33180
E3E180
E1E180
E1E180
E1C180
E00180
E00180
E00180
E00180
ENDCHAR
STARTCHAR 041D
ENCODING 1053
SWIDTH 684 0
DWIDTH 19 0
BBX 14 20 2 0
BITMAP
E00C
E00C
E00C
E00C
E00C
E00C
E00C
E00C
FFFC
FFFC
E00C
E00C
E00C
E00C
E00C
E00C
E00C
E00C
E00C
E00C
ENDCHAR
STARTCHAR 041E
ENCODING 1054
SWIDTH 720 0
DWIDTH 20 0
BBX 17 21 1 0
BITMAP
01E000
0FF800
1FFE00
3C0E00
380700
700300
700380
600380
600180
E00180
E00180
E00180
E00180
600180
600380
700380
700700
380700
1C0E00
0FFC00
07F800
ENDCHAR
STARTCHAR 041F
ENCODING 1055
SWIDTH 684 0
DWIDTH 19 0
BBX 14 20 2 0
BITMAP
FFFC
FFFC
E00C
E00C
E00C
E00C
E00C
E00C
E00C
E00C
E00C
E00C
E00C
E00C
E00C
E00C
E00C
E00C
E00C
E00C
ENDCHAR
STARTCHAR 0420
ENCODING 1056
SWIDTH 540 0
DWIDTH 15 0
BBX 12 20 2 0
BITMAP
FFC0
FFE0
E0F0
E070
E030
E030
E030
E070
E070
E3E0
FFC0
FF00
E000
E000
E000
E000
E000
E000
E000
E000
ENDCHAR
STARTCHAR 0421
ENCODING 1057
SWIDTH 648 0
DWIDTH 18 0
BBX 15 21 1 0
BITMAP
01E0
07FC
1FBE
3C06
3802
7000
7000
6000
6000
E000
E000
E000
E000
6000
6000
7000
7000
3802
1E0E
0FFE
07F8
ENDCHAR
STARTCHAR 0422
ENCODING 1058
SWIDTH 540 0
DWIDTH 15 0
BBX 15 20 0 0
BITMAP
FFFE
FFFE
0380
0380
0380
0380
0380
0380
0380
0380
0380
0380
0380
0380
0380
0380
0380
0380
0380
0380
ENDCHAR
STARTCHAR 0423
ENCODING 1059
SWIDTH 540 0
DWIDTH 15 0
BBX 14 20 1 0
BITMAP
C01C
E018
6038
7030
7070
3070
3860
38E0
1CE0
1DC0
0DC0
0F80
0F80
0780
0700
0700
0600
1E00
7E00
7800
ENDCHAR
STARTCHAR 0424
ENCODING 1060
SWIDTH 792 0
DWIDTH 22 0
BBX 19 20 1 0
BITMAP
006000
00E000
07FE00
1FFF80
3C63C0
7861C0
7060E0
6060E0
606060
E06060
606060
6060E0
7060E0
7061C0
3C63C0
1FFF80
0FFE00
00F000
006000
006000
ENDCHAR
STARTCHAR 0425
ENCODING 1061
SWIDTH 612 0
DWIDTH 17 0
BBX 15 20 1 0
BITMAP
700E
301C
3818
1C38
0C70
0E70
06E0
07C0
03C0
0380
07C0
07C0
0EE0
0C70
1C30
3838
3818
701C
600E
E006
ENDCHAR
STARTCHAR 0426
ENCODING 1062
SWIDTH 720 0
DWIDTH 20 0
BBX 17 24 2 -4
BITMAP
E00C00
E00C00
E00C00
E00C00
E00C00
E00C00
E00C00
E00C00
E00C00
E00C00
E00C00
E00C00
E00C00
E00C00
E00C00
E00C00
E00C00
E00C00
FFFF80
FFFF80
000380
000380
000380
000380
ENDCHAR
STARTCHAR 0427
ENCODING 1063
SWIDTH 612 0
DWIDTH 17 0
BBX 13 20 2 0
BITMAP
E038
E038
E038
E038
E038
E038
E038
E038
7038
7FF8
3FF8
07F8
0038
0038
0038
0038
0038
0038
0038
0038
ENDCHAR
STARTCHAR 0428
ENCODING 1064
SWIDTH 972 0
DWIDTH 27 0
BBX 22 20 2 0
BITMAP
E0380C
E0380C
E0380C
E0380C
E0380C
E0380C
E0380C
E0380C
E0380C
E0380C
E0380C
E0380C
E0380C
E0380C
E0380C
E0380C
E0380C
E0380C
FFFFFC
FFFFFC
ENDCHAR
STARTCHAR 0429
ENCODING 1065
SWIDTH 1008 0
DWIDTH 28 0
BBX 25 24 2 -4
BITMAP
E0380C00
E0380C00
E0380C00
E0380C00
E0380C00
E0380C00
E0380C00
E0380C00
E0380C00
E0380C00
E0380C00
E0380C00
E0380C00
E0380C00
E0380C00
E0380C00
E0380C00
E0380C00
FFFFFF80
FFFFFF80
00000380
00000380
00000380
00000380
ENDCHAR
STARTCHAR 042A
ENCODING 1066
SWIDTH 756 0
DWIDTH 21 0
BBX 18 20 1 0
BITMAP
FF0000
FF0000
070000
070000
070000
070000
070000
070000
07FE00
07FF80
070780
0701C0
0701C0
0700C0
0700C0
0701C0
0701C0
070780
07FF80
07FE00
ENDCHAR
STARTCHAR 042B
ENCODING 1067
SWIDTH 792 0
DWIDTH 22 0
BBX 18 20 2 0
BITMAP
E001C0
E001C0
E001C0
E001C0
E001C0
E001C0
E001C0
E001C0
FFC1C0
FFF1C0
E079C0
E039C0
E019C0
E019C0
E019C0
E019C0
E039C0
E079C0
FFF1C0
FFC1C0
ENDCHAR
STARTCHAR 042C
ENCODING 1068
SWIDTH 612 0
DWIDTH 17 0
BBX 13 20 2 0
BITMAP
E000
E000
E000
E000
E000
E000
E000
E000
FFC0
FFF0
E078
E038
E018
E018
E018
E018
E038
E078
FFF0
FFC0
ENDCHAR
STARTCHAR 042D
ENCODING 1069
SWIDTH 648 0
DWIDTH 18 0
BBX 15 21 1 0
BITMAP
0F80
7FE0
FFF0
C038
801C
001C
000E
000E
000E
0006
1FFE
1FFE
000E
000E
000E
000C
001C
801C
E078
FFF0
3FC0
ENDCHAR
STARTCHAR 042E
ENCODING 1070
SWIDTH 972 0
DWIDTH 27 0
BBX 23 21 3 0
BITMAP
000F80
C03FE0
C07DF0
C0E078
C1C038
C1801C
C3801C
C3800C
C3800E
C3000E
FF000E
FF000E
C3000E
C3800E
C3800C
C3801C
C1C01C
C1C038
C0F070
C07FF0
C03FC0
ENDCHAR
STARTCHAR 042F
ENCODING 1071
SWIDTH 648 0
DWIDTH 18 0
BBX 13 20 2 0
BITMAP
1FF8
3FF8
7018
6018
E018
E018
E018
6018
7018
3FF8
1FF8
0E18
0E18
1C18
1818
3818
3018
7018
6018
E018
ENDCHAR
STARTCHAR 0430
ENCODING 1072
SWIDTH 540 0
DWIDTH 15 0
BBX 11 16 2 0
BITMAP
0C00
7F80
7FC0
00E0
0060
0060
0FE0
7FE0
F060
C060
C060
C0E0
C0E0
E1E0
FF60
7E60
ENDCHAR
STARTCHAR 0431
ENCODING 1073
SWIDTH 576 0
DWIDTH 16 0
BBX 13 22 1 0
BITMAP
0070
0FF0
1FE0
3800
7000
6000
6300
FFE0
FFF0
F070
F038
E038
E018
E018
6018
6018
6018
6038
7030
3870
3FE0
0FC0
ENDCHAR
STARTCHAR 0432
ENCODING 1074
SWIDTH 540 0
DWIDTH 15 0
BBX 11 15 2 0
BITMAP
FF80
FFC0
E0E0
E0E0
E0E0
E1C0
FF80
FFC0
E0E0
E060
E060
E060
E0E0
FFC0
FF80
ENDCHAR
STARTCHAR 0433
ENCODING 1075
SWIDTH 468 0
DWIDTH 13 0
BBX 10 15 2 0
BITMAP
FFC0
FFC0
E000
E000
E000
E000
E000
E000
E000
E000
E000
E000
E000
E000
E000
ENDCHAR
STARTCHAR 0434
ENCODING 1076
SWIDTH 612 0
DWIDTH 17 0
BBX 15 19 1 -4
BITMAP
0FF8
0FF8
0C18
0C18
0C18
0C18
0C18
0C18
0C18
1C18
1818
1818
3818
FFFE
FFFE
C006
C006
C006
C006
ENDCHAR
STARTCHAR 0435
ENCODING 1077
SWIDTH 576 0
DWIDTH 16 0
BBX 13 16 1 0
BITMAP
0380
1FE0
3FF0
3030
7038
6018
6018
FFF8
FFF8
E000
6000
6000
7000
3818
1FF8
0FF0
ENDCHAR
STARTCHAR 0436
ENCODING 1078
SWIDTH 828 0
DWIDTH 23 0
BBX 21 15 1 0
BITMAP
706070
3860E0
1C61C0
0C6380
066700
076600
07EF00
0FFF00
0CF980
1C71C0
1860C0
3060E0
706060
606030
E06038
ENDCHAR
STARTCHAR 0437
ENCODING 1079
SWIDTH 468 0
DWIDTH 13 0
BBX 10 16 2 0
BITMAP
3C00
FF00
FF80
0180
01C0
0180
0380
3E00
3F00
0180
01C0
00C0
01C0
01C0
FF80
FF00
ENDCHAR
STARTCHAR 0438
ENCODING 1080
SWIDTH 576 0
DWIDTH 16 0
BBX 12 15 2 0
BITMAP
E070
E0F0
E0F0
E1B0
E1B0
E330
E730
E630
EE30
EC30
FC30
F830
F830
F030
E030
ENDCHAR
STARTCHAR 0439
ENCODING 1081
SWIDTH 576 0
DWIDTH 16 0
BBX 12 21 2 0
BITMAP
30C0
10C0
1F80
0F00
0000
0000
E070
E0F0
E0F0
E1B0
E1B0
E330
E730
E630
EE30
EC30
FC30
F830
F830
F030
E030
ENDCHAR
STARTCHAR 043A
ENCODING 1082
SWIDTH 540 0
DWIDTH 15 0
BBX 12 15 2 0
BITMAP
E0E0
E1C0
E380
E300
E600
EE00
FE00
FF00
F300
E380
E1C0
E0C0
E0E0
E060
E030
ENDCHAR
STARTCHAR 043B
ENCODING 1083
SWIDTH 576 0
DWIDTH 16 0
BBX 13 15 1 0
BITMAP
0FF8
0FF8
0C18
0C18
0C18
0C18
0C18
1C18
1C18
1818
1818
3818
7018
F018
C018
ENDCHAR
STARTCHAR 043C
ENCODING 1084
SWIDTH 684 0
DWIDTH 19 0
BBX 15 15 2 0
BITMAP
F01E
F01E
F83E
F83E
F83E
EC6E
EC6E
E6CE
E6CE
E6CE
E38E
E38E
E00E
E00E
E00E
ENDCHAR
STARTCHAR 043D
ENCODING 1085
SWIDTH 576 0
DWIDTH 16 0
BBX 12 15 2 0
BITMAP
E030
E030
E030
E030
E030
E030
FFF0
FFF0
E030
E030
E030
E030
E030
E030
E030
ENDCHAR
STARTCHAR 043E
ENCODING 1086
SWIDTH 540 0
DWIDTH 15 0
BBX 13 16 1 0
BITMAP
0700
1FC0
3FE0
7070
7030
6038
E038
E018
E018
E018
6038
6038
7030
3870
3FE0
1FC0
ENDCHAR
STARTCHAR 043F
ENCODING 1087
SWIDTH 576 0
DWIDTH 16 0
BBX 12 15 2 0
BITMAP
FFF0
FFF0
E030
E030
E030
E030
E030
E030
E030
E030
E030
E030
E030
E030
E030
ENDCHAR
STARTCHAR 0440
ENCODING 1088
SWIDTH 576 0
DWIDTH 16 0
BBX 13 22 2 -6
BITMAP
0700
EFC0
FDE0
F070
E030
E030
E030
E038
E038
E038
E030
E030
E070
F060
FFE0
EFC0
E000
E000
E000
E000
E000
E000
ENDCHAR
STARTCHAR 0441
ENCODING 1089
SWIDTH 504 0
DWIDTH 14 0
BBX 11 16 1 0
BITMAP
0380
1FE0
3EE0
7000
7000
6000
E000
E000
E000
E000
6000
6000
7000
3800
3FE0
0FE0
ENDCHAR
STARTCHAR 0442
ENCODING 1090
SWIDTH 540 0
DWIDTH 15 0
BBX 13 15 1 0
BITMAP
FFF8
FFF8
0600
0600
0600
0600
0600
0600
0600
0600
0600
0600
0600
0600
0600
ENDCHAR
STARTCHAR 0443
ENCODING 1091
SWIDTH 540 0
DWIDTH 15 0
BBX 13 21 1 -6
BITMAP
C038
E038
6030
7070
3060
3060
38E0
18C0
18C0
1DC0
0D80
0D80
0F80
0700
0700
0600
0600
0E00
1C00
7C00
7000
ENDCHAR
STARTCHAR 0444
ENCODING 1092
SWIDTH 792 0
DWIDTH 22 0
BBX 19 26 1 -6
BITMAP
006000
006000
006000
006000
0C6600
1F6F80
3FFBC0
70F0C0
60E0E0
606060
E06060
E06060
E06060
E06060
E06060
6060E0
60E0E0
70F1C0
3F7FC0
1F6F80
006000
006000
006000
006000
006000
006000
ENDCHAR
STARTCHAR 0445
ENCODING 1093
SWIDTH 540 0
DWIDTH 15 0
BBX 13 15 1 0
BITMAP
6030
7070
38E0
18C0
1DC0
0F80
0700
0700
0F80
1D80
19C0
38E0
7060
6070
E038
ENDCHAR
STARTCHAR 0446
ENCODING 1094
SWIDTH 612 0
DWIDTH 17 0
BBX 14 19 2 -4
BITMAP
E030
E030
E030
E030
E030
E030
E030
E030
E030
E030
E030
E030
E030
FFFC
FFFC
000C
000C
000C
000C
ENDCHAR
STARTCHAR 0447
ENCODING 1095
SWIDTH 540 0
DWIDTH 15 0
BBX 11 15 2 0
BITMAP
C0E0
C0E0
C0E0
C0E0
C0E0
E0E0
F0E0
7FE0
0FE0
00E0
00E0
00E0
00E0
00E0
00E0
ENDCHAR
STARTCHAR 0448
ENCODING 1096
SWIDTH 828 0
DWIDTH 23 0
BBX 19 15 2 0
BITMAP
E0E0E0
E0E0E0
E0E0E0
E0E0E0
E0E0E0
E0E0E0
E0E0E0
E0E0E0
E0E0E0
E0E0E0
E0E0E0
E0E0E0
E0E0E0
FFFFE0
FFFFE0
ENDCHAR
STARTCHAR 0449
ENCODING 1097
SWIDTH 864 0
DWIDTH 24 0
BBX 21 19 2 -4
BITMAP
E0E0E0
E0E0E0
E0E0E0
E0E0E0
E0E0E0
E0E0E0
E0E0E0
E0E0E0
E0E0E0
E0E0E0
E0E0E0
E0E0E0
E0E0E0
FFFFF8
FFFFF8
000018
000018
000018
000018
ENDCHAR
STARTCHAR 044A
ENCODING 1098
SWIDTH 648 0
DWIDTH 18 0
BBX 15 15 1 0
BITMAP
FE00
FE00
0E00
0E00
0E00
0E00
0FF8
0FFC
0E0E
0E06
0E06
0E06
0E0E
0FFC
0FF8
ENDCHAR
STARTCHAR 044B
ENCODING 1099
SWIDTH 720 0
DWIDTH 20 0
BBX 16 15 2 1
BITMAP
E007
E007
E007
E007
E007
E007
FF87
FFC7
E0E7
E067
E067
E067
E0E7
FFC7
FF87
ENDCHAR
STARTCHAR 044C
ENCODING 1100
SWIDTH 540 0
DWIDTH 15 0
BBX 11 15 2 0
BITMAP
E000
E000
E000
E000
E000
E000
FF80
FFC0
E0E0
E060
E060
E060
E0E0
FFC0
FF80
ENDCHAR
STARTCHAR 044D
ENCODING 1101
SWIDTH 504 0
DWIDTH 14 0
BBX 11 16 1 0
BITMAP
1C00
FF00
F780
81C0
00E0
00E0
0060
3FE0
3FE0
0060
0060
00E0
00E0
81C0
FF80
7F00
ENDCHAR
STARTCHAR 044E
ENCODING 1102
SWIDTH 756 0
DWIDTH 21 0
BBX 18 16 2 0
BITMAP
003800
E0FE00
E1EF00
E38380
E30180
E701C0
E701C0
FF01C0
FF01C0
E701C0
E701C0
E30180
E38380
E38380
E1FF00
E0FE00
ENDCHAR
STARTCHAR 044F
ENCODING 1103
SWIDTH 540 0
DWIDTH 15 0
BBX 11 15 2 0
BITMAP
3FE0
7FE0
6060
E060
E060
E060
7C60
3FE0
1FE0
1860
3860
3060
6060
E060
C060
ENDCHAR
STARTCHAR 0450
ENCODING 1104
SWIDTH 576 0
DWIDTH 16 0
BBX 13 22 1 0
BITMAP
1800
0C00
0E00
0600
0300
0000
0380
1FE0
3FF0
3030
7038
6018
6018
FFF8
FFF8
E000
6000
6000
7000
3818
1FF8
0FF0
ENDCHAR
STARTCHAR 0451
ENCODING 1105
SWIDTH 576 0
DWIDTH 16 0
BBX 13 21 1 0
BITMAP
1CE0
1CE0
1CE0
0000
0000
0380
1FE0
3FF0
3030
7038
6018
6018
FFF8
FFF8
E000
6000
6000
7000
3818
1FF8
0FF0
ENDCHAR
STARTCHAR 0452
ENCODING 1106
SWIDTH 576 0
DWIDTH 16 0
BBX 13 27 1 -6
BITMAP
3000
3000
3000
3000
3000
3000
FFE0
FFE0
3000
3000
3080
37F0
3FF0
3838
3818
3018
3018
3018
3018
3018
3018
0030
0030
0060
01C0
0380
0200
ENDCHAR
STARTCHAR 0453
ENCODING 1107
SWIDTH 468 0
DWIDTH 13 0
BBX 10 22 2 0
BITMAP
01C0
0380
0300
0600
0C00
0000
0000
FFC0
FFC0
E000
E000
E000
E000
E000
E000
E000
E000
E000
E000
E000
E000
E000
ENDCHAR
STARTCHAR 0454
ENCODING 1108
SWIDTH 504 0
DWIDTH 14 0
BBX 11 16 1 0
BITMAP
0380
1FE0
3EE0
3000
7000
6000
E000
FFC0
FFC0
E000
6000
6000
7000
3800
3FE0
0FE0
ENDCHAR
STARTCHAR 0455
ENCODING 1109
SWIDTH 468 0
DWIDTH 13 0
BBX 11 16 1 0
BITMAP
0F00
3FC0
79C0
6000
E000
E000
7000
7E00
1F80
03C0
00E0
0060
0060
C0E0
FFC0
7F80
ENDCHAR
STARTCHAR 0456
ENCODING 1110
SWIDTH 252 0
DWIDTH 7 0
BBX 3 21 2 0
BITMAP
E0
E0
E0
00
00
00
E0
E0
E0
E0
E0
E0
E0
E0
E0
E0
E0
E0
E0
E0
E0
ENDCHAR
STARTCHAR 0457
ENCODING 1111
SWIDTH 252 0
DWIDTH 7 0
BBX 7 21 0 0
BITMAP
C6
C6
C6
00
00
00
38
38
38
38
38
38
38
38
38
38
38
38
38
38
38
ENDCHAR
STARTCHAR 0458
ENCODING 1112
SWIDTH 252 0
DWIDTH 7 0
BBX 5 27 0 -6
BITMAP
38
38
38
00
00
00
38
38
38
38
38
38
38
38
38
38
38
38
38
38
38
38
38
30
70
F0
C0
ENDCHAR
STARTCHAR 0459
ENCODING 1113
SWIDTH 828 0
DWIDTH 23 0
BBX 20 15 1 0
BITMAP
0FF800
0FF800
0C3800
0C3800
0C3800
0C3800
0C3FC0
1C3FE0
1C3870
1C3830
183830
383830
783870
F03FE0
C03FC0
ENDCHAR
STARTCHAR 045A
ENCODING 1114
SWIDTH 828 0
DWIDTH 23 0
BBX 19 15 2 0
BITMAP
E07000
E07000
E07000
E07000
E07000
E07000
FFFF80
FFFFC0
E070E0
E07060
E07060
E07060
E070E0
E07FC0
E07F80
ENDCHAR
STARTCHAR 045B
ENCODING 1115
SWIDTH 576 0
DWIDTH 16 0
BBX 13 21 1 0
BITMAP
3000
3000
3000
3000
3000
3000
FFE0
FFE0
3000
3000
3080
37F0
3FF0
3838
3818
3018
3018
3018
3018
3018
3018
ENDCHAR
STARTCHAR 045C
ENCODING 1116
SWIDTH 540 0
DWIDTH 15 0
BBX 12 22 2 0
BITMAP
0180
0300
0700
0600
0C00
0000
0000
E0E0
E1C0
E380
E300
E600
EE00
FE00
FF00
F300
E380
E1C0
E0C0
E0E0
E060
E030
ENDCHAR
STARTCHAR 045D
ENCODING 1117
SWIDTH 576 0
DWIDTH 16 0
BBX 12 22 2 0
BITMAP
3000
1800
0C00
0C00
0600
0000
0000
E070
E0F0
E0F0
E1B0
E1B0
E330
E730
E630
EE30
EC30
FC30
F830
F830
F030
E030
ENDCHAR
STARTCHAR 045E
ENCODING 1118
SWIDTH 540 0
DWIDTH 15 0
BBX 13 27 1 -6
BITMAP
1040
18C0
1FC0
0F00
0000
0000
C038
E038
6030
7070
3060
3060
38E0
18C0
18C0
1DC0
0D80
0D80
0F80
0700
0700
0600
0600
0E00
1C00
7C00
7000
ENDCHAR
STARTCHAR 045F
ENCODING 1119
SWIDTH 576 0
DWIDTH 16 0
BBX 12 19 2 -4
BITMAP
E030
E030
E030
E030
E030
E030
E030
E030
E030
E030
E030
E030
E030
FFF0
FFF0
0600
0600
0600
0600
ENDCHAR
STARTCHAR 0460
ENCODING 1120
SWIDTH 864 0
DWIDTH 24 0
BBX 21 20 1 0
BITMAP
1C01E0
3800E0
380070
300070
700070
700030
600038
600038
E03038
E03038
E03038
E03038
607038
607038
707038
707878
79FCF0
3FDFF0
3FCFE0
1F87C0
ENDCHAR
STARTCHAR 0461
ENCODING 1121
SWIDTH 756 0
DWIDTH 21 0
BBX 17 15 2 0
BITMAP
700700
600300
E00380
E00380
E00380
C00180
C1C180
C1C180
C1C180
C1C180
C1C180
E1C380
E36380
7F7F00
3E3E00
ENDCHAR
STARTCHAR 0462
ENCODING 1122
SWIDTH 684 0
DWIDTH 19 0
BBX 18 20 0 0
BITMAP
060000
060000
060000
FFF000
FFF000
060000
060000
060000
07FE00
07FF00
060780
0601C0
0601C0
0601C0
0601C0
0601C0
0601C0
060780
07FF00
07FE00
ENDCHAR
STARTCHAR 0463
ENCODING 1123
SWIDTH 612 0
DWIDTH 17 0
BBX 15 21 0 0
BITMAP
0E00
0E00
0E00
0E00
0E00
0E00
FFF0
FFF0
0E00
0E00
0E00
0E00
0FF8
0FFC
0E0E
0E06
0E06
0E06
0E0E
0FFC
0FF8
ENDCHAR
STARTCHAR 0464
ENCODING 1124
SWIDTH 864 0
DWIDTH 24 0
BBX 19 21 3 0
BITMAP
001E00
C07FC0
C1FFE0
C1C060
C38020
C70000
C70000
C70000
C60000
FFFF00
FFFF00
C60000
C60000
C60000
C70000
C70000
C38000
C38020
C1E060
C0FFE0
C07FC0
ENDCHAR
STARTCHAR 0465
ENCODING 1125
SWIDTH 684 0
DWIDTH 19 0
BBX 15 16 2 0
BITMAP
0038
E1FE
E3EE
E300
E700
E600
E600
FFF8
FFF8
EE00
E600
E600
E700
E380
E3FE
E0FE
ENDCHAR
STARTCHAR 0466
ENCODING 1126
SWIDTH 792 0
DWIDTH 22 0
BBX 22 20 0 0
BITMAP
007800
007800
00FC00
00EC00
01CE00
01CE00
038700
038700
030380
070380
07FFC0
0FFFC0
0FFFC0
1C30E0
1C3060
383070
383030
703038
703038
E0301C
ENDCHAR
STARTCHAR 0467
ENCODING 1127
SWIDTH 720 0
DWIDTH 20 0
BBX 18 15 1 0
BITMAP
01E000
01E000
03F000
033000
073800
061800
0E1C00
0C0C00
1FFE00
18C600
30C700
70C300
60C380
E0C180
C0C1C0
ENDCHAR
STARTCHAR 0468
ENCODING 1128
SWIDTH 1044 0
DWIDTH 29 0
BBX 26 20 2 0
BITMAP
E003C000
E007C000
E007C000
E00EE000
E00E6000
E00C7000
E01C3000
E0183800
FFF83800
FFF01C00
E07FFC00
E07FFE00
E0FFFE00
E0E38700
E1C38700
E1C38380
E3838380
E3838180
E30381C0
E70380C0
ENDCHAR
STARTCHAR 0469
ENCODING 1129
SWIDTH 900 0
DWIDTH 25 0
BBX 22 15 2 0
BITMAP
E00E00
E01F00
E01B00
E03B80
E03180
E071C0
FFE0C0
FFC0E0
E0FFE0
E18E70
E38E30
E30E38
E70E18
E60E1C
EE0E0C
ENDCHAR
STARTCHAR 046A
ENCODING 1130
SWIDTH 720 0
DWIDTH 20 0
BBX 17 20 1 0
BITMAP
7FFF80
3FFF00
180600
1C0E00
0C0C00
0E1C00
061800
073800
03F000
03F000
07F800
1FFC00
1CCE00
38C700
70C300
70C380
60C380
60C180
E0C180
E0C180
ENDCHAR
STARTCHAR 046B
ENCODING 1131
SWIDTH 540 0
DWIDTH 15 0
BBX 13 15 1 0
BITMAP
7FF8
7FF0
3070
3860
18E0
1DC0
0DC0
0F80
1FE0
3BF0
7370
6338
6338
E318
E318
ENDCHAR
STARTCHAR 046C
ENCODING 1132
SWIDTH 936 0
DWIDTH 26 0
BBX 22 20 2 0
BITMAP
E1FFFC
E1FFF8
E0C038
E0E070
E06060
E070E0
E038C0
E039C0
FFFD80
FFFF80
E03FC0
E07FE0
E0E670
E1C638
E38618
E3861C
E3061C
E3060C
E7060C
E7060C
ENDCHAR
STARTCHAR 046D
ENCODING 1133
SWIDTH 756 0
DWIDTH 21 0
BBX 17 15 2 0
BITMAP
E7FF80
E3FF80
E38700
E18700
E1CE00
E0CC00
FFFC00
FFFC00
E1FE00
E3B700
E33380
E73380
E63180
E63180
E63180
ENDCHAR
STARTCHAR 046E
ENCODING 1134
SWIDTH 576 0
DWIDTH 16 0
BBX 13 32 1 -6
BITMAP
1860
08C0
0880
0D80
0500
0F80
7FE0
7FF0
4070
0038
0038
0038
0030
0070
0FC0
0FE0
01F0
0030
0038
0018
0038
0038
0038
00F0
7FE0
7FC0
6000
E000
6000
7FF0
3FF0
1E10
ENDCHAR
STARTCHAR 046F
ENCODING 1135
SWIDTH 504 0
DWIDTH 14 0
BBX 11 26 1 -5
BITMAP
30C0
3180
1100
1B00
0A00
1E00
7F80
7FC0
00C0
00E0
00C0
01C0
1F00
1F80
00C0
00E0
0060
00E0
00C0
7FC0
FF00
C000
C000
C000
7FC0
7FC0
ENDCHAR
STARTCHAR 0470
ENCODING 1136
SWIDTH 792 0
DWIDTH 22 0
BBX 21 20 0 0
BITMAP
E0E038
60E078
60E0E0
70E0C0
30E1C0
30E180
38E180
18E380
18E300
1CE300
0CE700
0CE600
0EE600
07FE00
07FC00
07FC00
00E000
00E000
00E000
00E000
ENDCHAR
STARTCHAR 0471
ENCODING 1137
SWIDTH 792 0
DWIDTH 22 0
BBX 20 27 1 -6
BITMAP
00C000
00C000
00C000
00C000
00C000
00C030
C0C0F0
E0C0E0
60C1C0
60C180
70C380
30C300
30C300
38C700
18C600
18C600
1CCE00
0CCC00
0CCC00
0FFC00
07F800
00C000
00C000
00C000
00C000
00C000
00C000
ENDCHAR
STARTCHAR 0472
ENCODING 1138
SWIDTH 720 0
DWIDTH 20 0
BBX 17 21 1 0
BITMAP
01E000
0FF800
1FFE00
3C0E00
380700
700300
700380
600380
600180
FFFF80
FFFF80
E00180
E00180
600180
600380
700380
700700
380700
1C0E00
0FFC00
07F800
ENDCHAR
STARTCHAR 0473
ENCODING 1139
SWIDTH 540 0
DWIDTH 15 0
BBX 13 16 1 0
BITMAP
0700
1FC0
3DE0
7070
7030
6038
E038
FFF8
FFF8
E018
6038
6038
7030
3870
3FE0
1FC0
ENDCHAR
STARTCHAR 0474
ENCODING 1140
SWIDTH 720 0
DWIDTH 20 0
BBX 19 21 0 0
BITMAP
0000E0
E001E0
6003E0
700380
300700
300600
380E00
180E00
180C00
1C1C00
0C1C00
0C1800
0E3800
063800
073000
077000
037000
03E000
03E000
01E000
01C000
ENDCHAR
STARTCHAR 0475
ENCODING 1141
SWIDTH 612 0
DWIDTH 17 0
BBX 15 16 1 0
BITMAP
000E
C01E
E038
6030
6070
7060
3060
30E0
38C0
18C0
19C0
1D80
0D80
0F80
0F00
0700
ENDCHAR
STARTCHAR 0476
ENCODING 1142
SWIDTH 720 0
DWIDTH 20 0
BBX 19 26 0 0
BITMAP
0CC000
066000
033000
033000
000000
0000E0
E001E0
6003E0
700380
300700
300600
380E00
180E00
180C00
1C1C00
0C1C00
0C1800
0E3800
063800
073000
077000
037000
03E000
03E000
01E000
01C000
ENDCHAR
STARTCHAR 0477
ENCODING 1143
SWIDTH 612 0
DWIDTH 17 0
BBX 15 22 1 0
BITMAP
1980
0CC0
0CC0
0660
0660
0000
000E
C01E
E038
6030
6070
7060
3060
30E0
38C0
18C0
19C0
1D80
0D80
0F80
0F00
0700
ENDCHAR
STARTCHAR 0478
ENCODING 1144
SWIDTH 900 0
DWIDTH 25 0
BBX 23 27 1 -6
BITMAP
070000
1F8000
3DC000
30E000
706000
607000
607606
60760E
E0370C
E0331C
E0331C
E03398
E031B8
6071B0
6071F0
6070F0
7060E0
3060E0
38E0E0
1FC0C0
0F81C0
0001C0
000180
000380
000700
001F00
001E00
ENDCHAR
STARTCHAR 0479
ENCODING 1145
SWIDTH 828 0
DWIDTH 23 0
BBX 21 22 1 -6
BITMAP
0E0000
1F3838
3B9830
71D830
60DC70
60CC60
E0CE60
E0EEE0
E0E6C0
E0E7C0
60C3C0
60C380
60C380
71C300
3F8300
1F0700
000600
000600
000E00
001C00
007C00
007000
ENDCHAR
STARTCHAR 047A
ENCODING 1146
SWIDTH 864 0
DWIDTH 24 0
BBX 22 21 1 0
BITMAP
003000
01FE00
0FFFC0
1F39E0
380070
300030
700038
700038
600018
E0001C
E0001C
E0001C
E00018
600018
700038
700038
380070
3C30F0
1FFFE0
07FF80
003800
ENDCHAR
STARTCHAR 047B
ENCODING 1147
SWIDTH 684 0
DWIDTH 19 0
BBX 17 16 1 0
BITMAP
008000
0FF800
3FFE00
388E00
700700
600300
600380
E00380
E00380
E00380
600380
600300
700700
39CE00
1FFC00
03E000
ENDCHAR
STARTCHAR 047C
ENCODING 1148
SWIDTH 1080 0
DWIDTH 30 0
BBX 27 26 1 0
BITMAP
000F8000
003FC000
00784000
00406000
00060000
00060000
00020000
00020000
1C0E0380
18000380
380001C0
300001C0
700000C0
700000E0
600000E0
60000060
60000060
E0000060
E0000060
E0000060
601F8060
703FC0E0
78FFF1E0
7FE0FFC0
3FC03FC0
1F001F80
ENDCHAR
STARTCHAR 047D
ENCODING 1149
SWIDTH 936 0
DWIDTH 26 0
BBX 22 21 2 0
BITMAP
007C00
00FE00
03C200
020300
003800
003800
001800
001000
703038
600038
600018
E0001C
E0001C
C0000C
C0000C
C0000C
C0300C
C0FC1C
E3CE1C
7F03F8
3E01F0
ENDCHAR
STARTCHAR 047E
ENCODING 1150
SWIDTH 864 0
DWIDTH 24 0
BBX 21 26 1 0
BITMAP
07FF00
03FF00
022200
000000
000000
000000
1C01E0
3800E0
380070
300070
700070
700030
600038
600038
E03038
E03038
E03038
E03038
607038
607038
707038
707878
79FCF0
3FDFF0
3FCFE0
1F87C0
ENDCHAR
STARTCHAR 047F
ENCODING 1151
SWIDTH 756 0
DWIDTH 21 0
BBX 17 21 2 0
BITMAP
1FFC00
1FFC00
088800
000000
000000
000000
700700
600300
E00380
E00380
E00380
C00180
C1C180
C1C180
C1C180
C1C180
C1C180
E1C380
E36380
7F7F00
3E3E00
ENDCHAR
STARTCHAR 0480
ENCODING 1152
SWIDTH 648 0
DWIDTH 18 0
BBX 15 27 1 -6
BITMAP
01E0
07FC
1FBE
3C06
3802
7000
7000
6000
6000
E000
E000
E000
E000
6000
7000
7000
3800
3C00
1F00
0FFC
03FC
000C
000C
000C
000C
000C
000C
ENDCHAR
STARTCHAR 0481
ENCODING 1153
SWIDTH 504 0
DWIDTH 14 0
BBX 11 22 1 -6
BITMAP
0380
1FE0
3EE0
7000
7000
6000
E000
E000
E000
E000
6000
6000
7000
3800
1FC0
0FC0
00C0
00C0
00C0
00C0
00C0
00C0
ENDCHAR
STARTCHAR 0482
ENCODING 1154
SWIDTH 468 0
DWIDTH 13 0
BBX 11 14 1 -1
BITMAP
0100
1180
1F80
3F80
0F80
07E0
4FE0
FE40
FC00
3E00
3F00
3700
7200
2000
ENDCHAR
STARTCHAR 0483
ENCODING 1155
SWIDTH 0 0
DWIDTH 0 0
BBX 11 6 -13 17
BITMAP
00C0
01E0
7FE0
FFC0
E000
6000
ENDCHAR
STARTCHAR 0484
ENCODING 1156
SWIDTH 0 0
DWIDTH 0 0
BBX 9 4 -9 18
BITMAP
1E00
7F00
E180
8080
ENDCHAR
STARTCHAR 0485
ENCODING 1157
SWIDTH 0 0
DWIDTH 0 0
BBX 3 5 -7 17
BITMAP
E0
E0
80
C0
60
ENDCHAR
STARTCHAR 0486
ENCODING 1158
SWIDTH 0 0
DWIDTH 0 0
BBX 3 5 -7 17
BITMAP
E0
E0
60
60
C0
ENDCHAR
STARTCHAR 0487
ENCODING 1159
SWIDTH 0 0
DWIDTH 0 0
BBX 19 5 -19 17
BITMAP
1F8000
7FF000
F07C00
C01FE0
0001E0
ENDCHAR
STARTCHAR 0488
ENCODING 1160
SWIDTH 396 0
DWIDTH 11 0
BBX 36 31 -26 -5
BITMAP
0000700000
0001F80000
00018C0000
0003040000
03C0003C00
07E0007E00
0630006300
0C1000C100
0000000000
0000000000
0000000000
0000000000
0000000000
0000000000
3E000003E0
7E000007F0
C300000430
C100000410
0000000000
0000000000
0000000000
0000000000
0000000000
03C0001C00
07E0007E00
0630006300
0C10004100
0000F00000
0001F80000
00018C0000
0003040000
ENDCHAR
STARTCHAR 0489
ENCODING 1161
SWIDTH 396 0
DWIDTH 11 0
BBX 33 37 -24 -8
BITMAP
0000600000
0000C00000
0000C00000
0000C00000
0201C00000
0601C00000
0301C00800
0300007C00
038000F000
03C001E000
0180008000
0000000000
0000000000
0000000000
0000000000
0000000000
C000000000
FC00001800
7C00001E00
1C00001F80
0000000380
0000000000
0000000000
0000000000
0000000000
0000000000
0180008000
03C001C000
078001C000
1F0000E000
0801C06000
0001C06000
0001C02000
0001800000
0001800000
0003000000
0003000000
ENDCHAR
STARTCHAR 048A
ENCODING 1162
SWIDTH 684 0
DWIDTH 19 0
BBX 17 32 2 -6
BITMAP
182000
0EE000
0FC000
000000
000000
000000
E01C00
E03C00
E03C00
E07C00
E06C00
E0EC00
E0CC00
E1CC00
E18C00
E38C00
E30C00
E70C00
E60C00
EE0C00
EC0C00
FC0C00
FC0C00
F80C00
F80F80
F00F80
000300
000700
000600
000C00
000800
001800
ENDCHAR
STARTCHAR 048B
ENCODING 1163
SWIDTH 612 0
DWIDTH 17 0
BBX 14 27 2 -6
BITMAP
3040
18C0
1F80
0F00
0000
0000
E070
E0F0
E0F0
E1B0
E1B0
E330
E330
E630
EE30
EC30
FC30
F830
F830
F03C
F03C
000C
001C
0018
0030
0030
0020
ENDCHAR
STARTCHAR 048C
ENCODING 1164
SWIDTH 612 0
DWIDTH 17 0
BBX 15 20 0 0
BITMAP
3800
3800
3800
FE00
FE00
3800
3800
3800
3FF0
3FFC
381E
380E
3806
3806
3806
3806
380E
381E
3FFC
3FF0
ENDCHAR
STARTCHAR 048D
ENCODING 1165
SWIDTH 540 0
DWIDTH 15 0
BBX 13 20 0 0
BITMAP
3800
3800
3800
3800
3800
FE00
FE00
3800
3800
3800
3800
3FE0
3FF0
3838
3818
3818
3818
3838
3FF0
3FE0
ENDCHAR
STARTCHAR 048E
ENCODING 1166
SWIDTH 540 0
DWIDTH 15 0
BBX 13 20 2 0
BITMAP
FFC0
FFE0
E0F0
E070
E030
E330
E3B0
E1F0
E0F0
E3F0
FFF8
FF18
E000
E000
E000
E000
E000
E000
E000
E000
ENDCHAR
STARTCHAR 048F
ENCODING 1167
SWIDTH 576 0
DWIDTH 16 0
BBX 13 22 2 -6
BITMAP
0300
EFC0
FDE0
F070
E030
E030
E030
E038
E038
E038
E130
E330
E1F0
F0E0
FFE0
EFE0
E030
E010
E000
E000
E000
E000
ENDCHAR
STARTCHAR 0490
ENCODING 1168
SWIDTH 540 0
DWIDTH 15 0
BBX 12 25 2 0
BITMAP
0030
0030
0030
0030
0030
FFF0
FFF0
E000
E000
E000
E000
E000
E000
E000
E000
E000
E000
E000
E000
E000
E000
E000
E000
E000
E000
ENDCHAR
STARTCHAR 0491
ENCODING 1169
SWIDTH 468 0
DWIDTH 13 0
BBX 10 20 2 0
BITMAP
00C0
00C0
00C0
00C0
00C0
FFC0
FFC0
E000
E000
E000
E000
E000
E000
E000
E000
E000
E000
E000
E000
E000
ENDCHAR
STARTCHAR 0492
ENCODING 1170
SWIDTH 612 0
DWIDTH 17 0
BBX 15 20 1 0
BITMAP
1FFE
1FFE
1C00
1C00
1C00
1C00
1C00
1C00
1C00
FFF0
FFF0
1C00
1C00
1C00
1C00
1C00
1C00
1C00
1C00
1C00
ENDCHAR
STARTCHAR 0493
ENCODING 1171
SWIDTH 540 0
DWIDTH 15 0
BBX 13 15 1 0
BITMAP
1FF8
1FF8
1800
1800
1800
1800
FFC0
FFC0
1800
1800
1800
1800
1800
1800
1800
ENDCHAR
STARTCHAR 0494
ENCODING 1172
SWIDTH 576 0
DWIDTH 16 0
BBX 13 26 2 -6
BITMAP
FFF0
FFF0
E000
E000
E000
E000
E000
E000
FFC0
FFF0
E070
E038
E038
E018
E018
E018
E018
E018
E018
E018
0038
0038
0038
01F0
01E0
0100
ENDCHAR
STARTCHAR 0495
ENCODING 1173
SWIDTH 468 0
DWIDTH 13 0
BBX 11 21 2 -6
BITMAP
FFC0
FFC0
E000
E000
E000
E000
FE00
FFC0
E1C0
E0E0
E0E0
E0E0
E0E0
E0E0
E0E0
00E0
00E0
00E0
01C0
0FC0
0F00
ENDCHAR
STARTCHAR 0496
ENCODING 1174
SWIDTH 972 0
DWIDTH 27 0
BBX 26 24 1 -4
BITMAP
F01C0780
381C0700
381C0E00
1C1C1C00
0E1C3800
071C7000
039CE000
01DCE000
03DDE000
03FFF000
077F3000
0E3E3800
0C1E1800
1C1C1C00
181C0C00
381C0E00
701C0700
701C0300
E01C03C0
C01C01C0
000000C0
000000C0
000000C0
000000C0
ENDCHAR
STARTCHAR 0497
ENCODING 1175
SWIDTH 828 0
DWIDTH 23 0
BBX 21 19 1 -4
BITMAP
706070
3860E0
1C61C0
0C6380
066700
076600
07EF00
0FFF00
0CF980
1C71C0
1860C0
3060E0
706060
606038
E06038
000018
000018
000018
000018
ENDCHAR
STARTCHAR 0498
ENCODING 1176
SWIDTH 576 0
DWIDTH 16 0
BBX 12 26 2 -5
BITMAP
3E00
FFC0
FFE0
8070
0070
0030
0030
0070
00E0
1FC0
1FC0
01E0
0070
0030
0030
0030
0030
0070
C0F0
FFE0
FF80
0400
0600
0200
2600
3E00
ENDCHAR
STARTCHAR 0499
ENCODING 1177
SWIDTH 468 0
DWIDTH 13 0
BBX 10 21 2 -5
BITMAP
3C00
FF00
FF80
0180
01C0
0180
0380
3E00
3F00
0180
01C0
00C0
01C0
01C0
FF80
FF00
0800
0C00
0C00
4C00
7C00
ENDCHAR
STARTCHAR 049A
ENCODING 1178
SWIDTH 648 0
DWIDTH 18 0
BBX 16 24 2 -4
BITMAP
E01E
E038
E070
E0F0
E0E0
E1C0
E380
E700
EF00
FF80
F9C0
F8C0
F0E0
E060
E070
E038
E018
E01C
E00F
E00F
0003
0003
0003
0003
ENDCHAR
STARTCHAR 049B
ENCODING 1179
SWIDTH 540 0
DWIDTH 15 0
BBX 13 19 2 -4
BITMAP
E0E0
E1C0
E380
E300
E600
EE00
FE00
FF00
F300
E380
E1C0
E0C0
E0E0
E078
E038
0018
0018
0018
0018
ENDCHAR
STARTCHAR 049C
ENCODING 1180
SWIDTH 648 0
DWIDTH 18 0
BBX 15 20 2 0
BITMAP
E01E
E038
E070
E4F0
E5E0
E5C0
E780
E700
EF00
FF80
FDC0
FCC0
F4E0
E460
E470
E438
E018
E01C
E00E
E00E
ENDCHAR
STARTCHAR 049D
ENCODING 1181
SWIDTH 540 0
DWIDTH 15 0
BBX 12 15 2 0
BITMAP
E0E0
E1C0
E380
EB00
EE00
EE00
FE00
FF00
FB00
EB80
E9C0
E8C0
E0E0
E060
E030
ENDCHAR
STARTCHAR 049E
ENCODING 1182
SWIDTH 648 0
DWIDTH 18 0
BBX 17 20 0 0
BITMAP
380780
380E00
381C00
FE3C00
FE3800
387000
38E000
39C000
3BC000
3FE000
3E7000
3E3000
3C3800
381800
381C00
380E00
380600
380700
380380
380380
ENDCHAR
STARTCHAR 049F
ENCODING 1183
SWIDTH 540 0
DWIDTH 15 0
BBX 13 21 1 0
BITMAP
7000
FF00
FF00
7000
7000
7000
7070
70E0
71C0
7180
7300
7700
7F00
7F80
7980
71C0
70E0
7060
7070
7030
7018
ENDCHAR
STARTCHAR 04A0
ENCODING 1184
SWIDTH 792 0
DWIDTH 22 0
BBX 20 20 1 0
BITMAP
FF00E0
FF01C0
070380
070700
070E00
071E00
073C00
073800
077800
07FC00
07CC00
078E00
070700
070700
070380
070180
0701C0
0700E0
0700E0
070070
ENDCHAR
STARTCHAR 04A1
ENCODING 1185
SWIDTH 756 0
DWIDTH 21 0
BBX 16 15 1 0
BITMAP
FE0E
FE1C
0E38
0E70
0E60
0EE0
0FE0
0FF0
0F30
0E38
0E18
0E0C
0E0E
0E06
0E03
ENDCHAR
STARTCHAR 04A2
ENCODING 1186
SWIDTH 684 0
DWIDTH 19 0
BBX 17 24 2 -4
BITMAP
E00C00
E00C00
E00C00
E00C00
E00C00
E00C00
E00C00
E00C00
FFFC00
FFFC00
E00C00
E00C00
E00C00
E00C00
E00C00
E00C00
E00C00
E00C00
E00F80
E00F80
000380
000380
000380
000380
ENDCHAR
STARTCHAR 04A3
ENCODING 1187
SWIDTH 612 0
DWIDTH 17 0
BBX 15 19 2 -4
BITMAP
E030
E030
E030
E030
E030
E030
FFF0
FFF0
E030
E030
E030
E030
E030
E03E
E03E
000E
000E
000E
000E
ENDCHAR
STARTCHAR 04A4
ENCODING 1188
SWIDTH 936 0
DWIDTH 26 0
BBX 23 20 2 0
BITMAP
E00FFE
E00FFE
E00C00
E00C00
E00C00
E00C00
E00C00
E00C00
FFFC00
FFFC00
E00C00
E00C00
E00C00
E00C00
E00C00
E00C00
E00C00
E00C00
E00C00
E00C00
ENDCHAR
STARTCHAR 04A5
ENCODING 1189
SWIDTH 792 0
DWIDTH 22 0
BBX 20 15 2 0
BITMAP
E03FF0
E03FF0
E03000
E03000
E03000
E03000
FFF000
FFF000
E03000
E03000
E03000
E03000
E03000
E03000
E03000
ENDCHAR
STARTCHAR 04A6
ENCODING 1190
SWIDTH 972 0
DWIDTH 27 0
BBX 25 26 2 -6
BITMAP
FFFC0000
FFFC0000
E00C0000
E00C0000
E00C0000
E00C0000
E00C0000
E00C0000
E00FFC00
E00FFE00
E00C0F00
E00C0700
E00C0300
E00C0380
E00C0380
E00C0380
E00C0380
E00C0380
E00C0380
E00C0380
00000380
00000300
00000700
00003F00
00003E00
00003000
ENDCHAR
STARTCHAR 04A7
ENCODING 1191
SWIDTH 828 0
DWIDTH 23 0
BBX 20 21 2 -6
BITMAP
FFF000
FFF000
E03000
E03000
E03000
E03000
E03F80
E03FF0
E03070
E03030
E03030
E03030
E03030
E03030
E03030
000030
000030
000030
000070
0003E0
0003C0
ENDCHAR
STARTCHAR 04A8
ENCODING 1192
SWIDTH 792 0
DWIDTH 22 0
BBX 21 21 1 0
BITMAP
018000
078000
1F9F80
1C3FC0
3871C0
7070E0
7060E0
6060E0
60E060
E0E060
E0E060
E060E0
E060E0
6070E0
7070C0
7039C0
303980
381F80
1C0F00
0FFFF8
07F9F8
ENDCHAR
STARTCHAR 04A9
ENCODING 1193
SWIDTH 612 0
DWIDTH 17 0
BBX 16 16 1 0
BITMAP
0200
1E00
3E78
38FC
70CC
61CE
618E
E18E
E18E
E1CC
60CC
60CC
70F8
3878
3FFF
0FFF
ENDCHAR
STARTCHAR 04AA
ENCODING 1194
SWIDTH 648 0
DWIDTH 18 0
BBX 15 26 1 -5
BITMAP
01E0
07FC
1FBE
3C06
3802
7000
7000
6000
6000
E000
E000
E000
E000
6000
6000
7000
7000
3802
1E0E
0FFE
07F8
0040
0060
0020
0260
03E0
ENDCHAR
STARTCHAR 04AB
ENCODING 1195
SWIDTH 504 0
DWIDTH 14 0
BBX 11 21 1 -5
BITMAP
0380
1FE0
3EE0
7000
7000
6000
E000
E000
E000
E000
6000
6000
7000
3800
3FE0
0FE0
0100
0180
0080
0980
0F80
ENDCHAR
STARTCHAR 04AC
ENCODING 1196
SWIDTH 540 0
DWIDTH 15 0
BBX 15 24 0 -4
BITMAP
FFFE
FFFE
0380
0380
0380
0380
0380
0380
0380
0380
0380
0380
0380
0380
0380
0380
0380
0380
03E0
03E0
0060
0060
0060
0060
ENDCHAR
STARTCHAR 04AD
ENCODING 1197
SWIDTH 540 0
DWIDTH 15 0
BBX 13 19 1 -4
BITMAP
FFF8
FFF8
0600
0600
0600
0600
0600
0600
0600
0600
0600
0600
0600
07C0
07C0
01C0
01C0
01C0
01C0
ENDCHAR
STARTCHAR 04AE
ENCODING 1198
SWIDTH 540 0
DWIDTH 15 0
BBX 15 20 0 0
BITMAP
E00E
700C
301C
3838
1C30
0C70
0E60
06E0
07C0
0380
0380
0380
0380
0380
0380
0380
0380
0380
0380
0380
ENDCHAR
STARTCHAR 04AF
ENCODING 1199
SWIDTH 540 0
DWIDTH 15 0
BBX 13 21 1 -6
BITMAP
C038
E038
6030
7070
3060
3060
38E0
18C0
18C0
1DC0
0D80
0D80
0F80
0700
0700
0700
0700
0700
0700
0700
0700
ENDCHAR
STARTCHAR 04B0
ENCODING 1200
SWIDTH 540 0
DWIDTH 15 0
BBX 15 20 0 0
BITMAP
E00E
700C
301C
3838
1C30
0C70
0E60
06E0
07C0
0380
0380
0380
0380
1FF0
1FF0
0380
0380
0380
0380
0380
ENDCHAR
STARTCHAR 04B1
ENCODING 1201
SWIDTH 540 0
DWIDTH 15 0
BBX 13 21 1 -6
BITMAP
C038
E038
6030
7070
3060
3060
38E0
18C0
18C0
1DC0
0D80
0D80
0F80
0700
0700
0700
3FE0
3FE0
0700
0700
0700
ENDCHAR
STARTCHAR 04B2
ENCODING 1202
SWIDTH 612 0
DWIDTH 17 0
BBX 15 24 1 -4
BITMAP
700E
301C
3818
1C38
0C70
0E70
06E0
07C0
03C0
0380
07C0
07C0
0EE0
0C70
1C30
3838
3818
701C
600E
E006
0006
0006
0006
0006
ENDCHAR
STARTCHAR 04B3
ENCODING 1203
SWIDTH 540 0
DWIDTH 15 0
BBX 13 19 1 -4
BITMAP
6030
7070
38E0
18C0
1DC0
0F80
0700
0700
0F80
1D80
19C0
38E0
7060
6078
E038
0018
0018
0018
0018
ENDCHAR
STARTCHAR 04B4
ENCODING 1204
SWIDTH 864 0
DWIDTH 24 0
BBX 23 24 0 -4
BITMAP
FFFE30
FFFE30
038030
038030
038030
038030
038030
038030
038030
038030
038030
038030
038030
038030
038030
038030
038030
038030
03FFFE
03FFFE
00000E
00000E
00000E
00000E
ENDCHAR
STARTCHAR 04B5
ENCODING 1205
SWIDTH 720 0
DWIDTH 20 0
BBX 20 19 0 -4
BITMAP
FFF980
FFF980
030180
030180
030180
030180
030180
030180
030180
030180
030180
030180
030180
03FFF0
03FFF0
000070
000070
000070
000070
ENDCHAR
STARTCHAR 04B6
ENCODING 1206
SWIDTH 612 0
DWIDTH 17 0
BBX 15 24 2 -4
BITMAP
E038
E038
E038
E038
E038
E038
E038
7038
7FF8
3FF8
0038
0038
0038
0038
0038
0038
0038
0038
003E
003E
0006
0006
0006
0006
ENDCHAR
STARTCHAR 04B7
ENCODING 1207
SWIDTH 540 0
DWIDTH 15 0
BBX 13 19 2 -4
BITMAP
C0E0
C0E0
C0E0
C0E0
C0E0
E0E0
7FE0
3FE0
00E0
00E0
00E0
00E0
00E0
00F8
00F8
0018
0018
0018
0018
ENDCHAR
STARTCHAR 04B8
ENCODING 1208
SWIDTH 612 0
DWIDTH 17 0
BBX 13 20 2 0
BITMAP
E038
E038
E038
E038
E338
E338
E338
7338
7FF8
3FF8
0338
0338
0338
0338
0038
0038
0038
0038
0038
0038
ENDCHAR
STARTCHAR 04B9
ENCODING 1209
SWIDTH 540 0
DWIDTH 15 0
BBX 11 15 2 0
BITMAP
C0E0
C0E0
C0E0
CCE0
CCE0
ECE0
7FE0
3FE0
0CE0
0CE0
0CE0
00E0
00E0
00E0
00E0
ENDCHAR
STARTCHAR 04BA
ENCODING 1210
SWIDTH 612 0
DWIDTH 17 0
BBX 13 20 2 0
BITMAP
E000
E000
E000
E000
E000
E000
E000
E000
FFC0
FFE0
E0F0
E030
E038
E038
E038
E038
E038
E038
E038
E038
ENDCHAR
ENDFONT
